# vtk DataFile Version 2.0
box_, Created by Gmsh 4.10.5 
ASCII
DATASET UNSTRUCTURED_GRID
POINTS 189 double
-1 -0.1 -0.1
-1 -0.1    0
-1 -0.1  0.1
-1    0 -0.1
-1  0  0
-1   0 0.1
-1  0.1 -0.1
-1 0.1   0
-1 0.1 0.1
-0.9 -0.1 -0.1
-0.9 -0.1    0
-0.9 -0.1  0.1
-0.9    0 -0.1
-0.9    0    0
-0.9    0  0.1
-0.9  0.1 -0.1
-0.9  0.1    0
-0.9  0.1  0.1
-0.8 -0.1 -0.1
-0.8 -0.1    0
-0.8 -0.1  0.1
-0.8    0 -0.1
-0.8    0    0
-0.8    0  0.1
-0.8  0.1 -0.1
-0.8  0.1    0
-0.8  0.1  0.1
-0.7 -0.1 -0.1
-0.7 -0.1    0
-0.7 -0.1  0.1
-0.7    0 -0.1
-0.7    0    0
-0.7    0  0.1
-0.7  0.1 -0.1
-0.7  0.1    0
-0.7  0.1  0.1
-0.6 -0.1 -0.1
-0.6 -0.1    0
-0.6 -0.1  0.1
-0.6    0 -0.1
-0.6    0    0
-0.6    0  0.1
-0.6  0.1 -0.1
-0.6  0.1    0
-0.6  0.1  0.1
-0.5 -0.1 -0.1
-0.5 -0.1    0
-0.5 -0.1  0.1
-0.5    0 -0.1
-0.5    0    0
-0.5    0  0.1
-0.5  0.1 -0.1
-0.5  0.1    0
-0.5  0.1  0.1
-0.4 -0.1 -0.1
-0.4 -0.1    0
-0.4 -0.1  0.1
-0.4    0 -0.1
-0.4    0    0
-0.4    0  0.1
-0.4  0.1 -0.1
-0.4  0.1    0
-0.4  0.1  0.1
-0.3 -0.1 -0.1
-0.3 -0.1    0
-0.3 -0.1  0.1
-0.3    0 -0.1
-0.3    0    0
-0.3    0  0.1
-0.3  0.1 -0.1
-0.3  0.1    0
-0.3  0.1  0.1
-0.2 -0.1 -0.1
-0.2 -0.1    0
-0.2 -0.1  0.1
-0.2    0 -0.1
-0.2    0    0
-0.2    0  0.1
-0.2  0.1 -0.1
-0.2  0.1    0
-0.2  0.1  0.1
-0.1 -0.1 -0.1
-0.1 -0.1    0
-0.1 -0.1  0.1
-0.1    0 -0.1
-0.1    0    0
-0.1    0  0.1
-0.1  0.1 -0.1
-0.1  0.1    0
-0.1  0.1  0.1
0 -0.1 -0.1
0 -0.1    0
0 -0.1  0.1
0    0 -0.1
0 0 0
0   0 0.1
0  0.1 -0.1
0 0.1   0
0 0.1 0.1
0.1 -0.1 -0.1
0.1 -0.1    0
0.1 -0.1  0.1
0.1    0 -0.1
0.1   0   0
0.1   0 0.1
0.1  0.1 -0.1
0.1 0.1   0
0.1 0.1 0.1
0.2 -0.1 -0.1
0.2 -0.1    0
0.2 -0.1  0.1
0.2    0 -0.1
0.2   0   0
0.2   0 0.1
0.2  0.1 -0.1
0.2 0.1   0
0.2 0.1 0.1
0.3 -0.1 -0.1
0.3 -0.1    0
0.3 -0.1  0.1
0.3    0 -0.1
0.3   0   0
0.3   0 0.1
0.3  0.1 -0.1
0.3 0.1   0
0.3 0.1 0.1
0.4 -0.1 -0.1
0.4 -0.1    0
0.4 -0.1  0.1
0.4    0 -0.1
0.4   0   0
0.4   0 0.1
0.4  0.1 -0.1
0.4 0.1   0
0.4 0.1 0.1
0.5 -0.1 -0.1
0.5 -0.1    0
0.5 -0.1  0.1
0.5    0 -0.1
0.5   0   0
0.5   0 0.1
0.5  0.1 -0.1
0.5 0.1   0
0.5 0.1 0.1
0.6 -0.1 -0.1
0.6 -0.1    0
0.6 -0.1  0.1
0.6    0 -0.1
0.6   0   0
0.6   0 0.1
0.6  0.1 -0.1
0.6 0.1   0
0.6 0.1 0.1
0.7 -0.1 -0.1
0.7 -0.1    0
0.7 -0.1  0.1
0.7    0 -0.1
0.7   0   0
0.7   0 0.1
0.7  0.1 -0.1
0.7 0.1   0
0.7 0.1 0.1
0.8 -0.1 -0.1
0.8 -0.1    0
0.8 -0.1  0.1
0.8    0 -0.1
0.8   0   0
0.8   0 0.1
0.8  0.1 -0.1
0.8 0.1   0
0.8 0.1 0.1
0.9 -0.1 -0.1
0.9 -0.1    0
0.9 -0.1  0.1
0.9    0 -0.1
0.9   0   0
0.9   0 0.1
0.9  0.1 -0.1
0.9 0.1   0
0.9 0.1 0.1
1 -0.1 -0.1
1 -0.1    0
1 -0.1  0.1
1    0 -0.1
1 0 0
1   0 0.1
1  0.1 -0.1
1 0.1   0
1 0.1 0.1

CELLS 400 2000
4 0 12 10 9
4 4 12 0 3
4 10 12 4 13
4 4 0 10 1
4 0 12 4 10
4 13 10 14 4
4 14 4 2 5
4 2 10 14 11
4 4 10 2 1
4 14 10 2 4
4 15 12 16 6
4 16 6 4 7
4 4 12 16 13
4 6 12 4 3
4 16 12 4 6
4 4 16 14 13
4 8 16 4 7
4 14 16 8 17
4 8 4 14 5
4 4 16 8 14
4 21 18 22 12
4 22 12 10 13
4 10 18 22 19
4 12 18 10 9
4 22 18 10 12
4 10 22 20 19
4 14 22 10 13
4 20 22 14 23
4 14 10 20 11
4 10 22 14 20
4 12 24 22 21
4 16 24 12 15
4 22 24 16 25
4 16 12 22 13
4 12 24 16 22
4 25 22 26 16
4 26 16 14 17
4 14 22 26 23
4 16 22 14 13
4 26 22 14 16
4 18 30 28 27
4 22 30 18 21
4 28 30 22 31
4 22 18 28 19
4 18 30 22 28
4 31 28 32 22
4 32 22 20 23
4 20 28 32 29
4 22 28 20 19
4 32 28 20 22
4 33 30 34 24
4 34 24 22 25
4 22 30 34 31
4 24 30 22 21
4 34 30 22 24
4 22 34 32 31
4 26 34 22 25
4 32 34 26 35
4 26 22 32 23
4 22 34 26 32
4 39 36 40 30
4 40 30 28 31
4 28 36 40 37
4 30 36 28 27
4 40 36 28 30
4 28 40 38 37
4 32 40 28 31
4 38 40 32 41
4 32 28 38 29
4 28 40 32 38
4 30 42 40 39
4 34 42 30 33
4 40 42 34 43
4 34 30 40 31
4 30 42 34 40
4 43 40 44 34
4 44 34 32 35
4 32 40 44 41
4 34 40 32 31
4 44 40 32 34
4 36 48 46 45
4 40 48 36 39
4 46 48 40 49
4 40 36 46 37
4 36 48 40 46
4 49 46 50 40
4 50 40 38 41
4 38 46 50 47
4 40 46 38 37
4 50 46 38 40
4 51 48 52 42
4 52 42 40 43
4 40 48 52 49
4 42 48 40 39
4 52 48 40 42
4 40 52 50 49
4 44 52 40 43
4 50 52 44 53
4 44 40 50 41
4 40 52 44 50
4 57 54 58 48
4 58 48 46 49
4 46 54 58 55
4 48 54 46 45
4 58 54 46 48
4 46 58 56 55
4 50 58 46 49
4 56 58 50 59
4 50 46 56 47
4 46 58 50 56
4 48 60 58 57
4 52 60 48 51
4 58 60 52 61
4 52 48 58 49
4 48 60 52 58
4 61 58 62 52
4 62 52 50 53
4 50 58 62 59
4 52 58 50 49
4 62 58 50 52
4 54 66 64 63
4 58 66 54 57
4 64 66 58 67
4 58 54 64 55
4 54 66 58 64
4 67 64 68 58
4 68 58 56 59
4 56 64 68 65
4 58 64 56 55
4 68 64 56 58
4 69 66 70 60
4 70 60 58 61
4 58 66 70 67
4 60 66 58 57
4 70 66 58 60
4 58 70 68 67
4 62 70 58 61
4 68 70 62 71
4 62 58 68 59
4 58 70 62 68
4 75 72 76 66
4 76 66 64 67
4 64 72 76 73
4 66 72 64 63
4 76 72 64 66
4 64 76 74 73
4 68 76 64 67
4 74 76 68 77
4 68 64 74 65
4 64 76 68 74
4 66 78 76 75
4 70 78 66 69
4 76 78 70 79
4 70 66 76 67
4 66 78 70 76
4 79 76 80 70
4 80 70 68 71
4 68 76 80 77
4 70 76 68 67
4 80 76 68 70
4 72 84 82 81
4 76 84 72 75
4 82 84 76 85
4 76 72 82 73
4 72 84 76 82
4 85 82 86 76
4 86 76 74 77
4 74 82 86 83
4 76 82 74 73
4 86 82 74 76
4 87 84 88 78
4 88 78 76 79
4 76 84 88 85
4 78 84 76 75
4 88 84 76 78
4 76 88 86 85
4 80 88 76 79
4 86 88 80 89
4 80 76 86 77
4 76 88 80 86
4 93 90 94 84
4 94 84 82 85
4 82 90 94 91
4 84 90 82 81
4 94 90 82 84
4 82 94 92 91
4 86 94 82 85
4 92 94 86 95
4 86 82 92 83
4 82 94 86 92
4 84 96 94 93
4 88 96 84 87
4 94 96 88 97
4 88 84 94 85
4 84 96 88 94
4 97 94 98 88
4 98 88 86 89
4 86 94 98 95
4 88 94 86 85
4 98 94 86 88
4 90 102 100 99
4 94 102 90 93
4 100 102 94 103
4 94 90 100 91
4 90 102 94 100
4 103 100 104 94
4 104 94 92 95
4 92 100 104 101
4 94 100 92 91
4 104 100 92 94
4 105 102 106 96
4 106 96 94 97
4 94 102 106 103
4 96 102 94 93
4 106 102 94 96
4 94 106 104 103
4 98 106 94 97
4 104 106 98 107
4 98 94 104 95
4 94 106 98 104
4 111 108 112 102
4 112 102 100 103
4 100 108 112 109
4 102 108 100 99
4 112 108 100 102
4 100 112 110 109
4 104 112 100 103
4 110 112 104 113
4 104 100 110 101
4 100 112 104 110
4 102 114 112 111
4 106 114 102 105
4 112 114 106 115
4 106 102 112 103
4 102 114 106 112
4 115 112 116 106
4 116 106 104 107
4 104 112 116 113
4 106 112 104 103
4 116 112 104 106
4 108 120 118 117
4 112 120 108 111
4 118 120 112 121
4 112 108 118 109
4 108 120 112 118
4 121 118 122 112
4 122 112 110 113
4 110 118 122 119
4 112 118 110 109
4 122 118 110 112
4 123 120 124 114
4 124 114 112 115
4 112 120 124 121
4 114 120 112 111
4 124 120 112 114
4 112 124 122 121
4 116 124 112 115
4 122 124 116 125
4 116 112 122 113
4 112 124 116 122
4 129 126 130 120
4 130 120 118 121
4 118 126 130 127
4 120 126 118 117
4 130 126 118 120
4 118 130 128 127
4 122 130 118 121
4 128 130 122 131
4 122 118 128 119
4 118 130 122 128
4 120 132 130 129
4 124 132 120 123
4 130 132 124 133
4 124 120 130 121
4 120 132 124 130
4 133 130 134 124
4 134 124 122 125
4 122 130 134 131
4 124 130 122 121
4 134 130 122 124
4 126 138 136 135
4 130 138 126 129
4 136 138 130 139
4 130 126 136 127
4 126 138 130 136
4 139 136 140 130
4 140 130 128 131
4 128 136 140 137
4 130 136 128 127
4 140 136 128 130
4 141 138 142 132
4 142 132 130 133
4 130 138 142 139
4 132 138 130 129
4 142 138 130 132
4 130 142 140 139
4 134 142 130 133
4 140 142 134 143
4 134 130 140 131
4 130 142 134 140
4 147 144 148 138
4 148 138 136 139
4 136 144 148 145
4 138 144 136 135
4 148 144 136 138
4 136 148 146 145
4 140 148 136 139
4 146 148 140 149
4 140 136 146 137
4 136 148 140 146
4 138 150 148 147
4 142 150 138 141
4 148 150 142 151
4 142 138 148 139
4 138 150 142 148
4 151 148 152 142
4 152 142 140 143
4 140 148 152 149
4 142 148 140 139
4 152 148 140 142
4 144 156 154 153
4 148 156 144 147
4 154 156 148 157
4 148 144 154 145
4 144 156 148 154
4 157 154 158 148
4 158 148 146 149
4 146 154 158 155
4 148 154 146 145
4 158 154 146 148
4 159 156 160 150
4 160 150 148 151
4 148 156 160 157
4 150 156 148 147
4 160 156 148 150
4 148 160 158 157
4 152 160 148 151
4 158 160 152 161
4 152 148 158 149
4 148 160 152 158
4 165 162 166 156
4 166 156 154 157
4 154 162 166 163
4 156 162 154 153
4 166 162 154 156
4 154 166 164 163
4 158 166 154 157
4 164 166 158 167
4 158 154 164 155
4 154 166 158 164
4 156 168 166 165
4 160 168 156 159
4 166 168 160 169
4 160 156 166 157
4 156 168 160 166
4 169 166 170 160
4 170 160 158 161
4 158 166 170 167
4 160 166 158 157
4 170 166 158 160
4 162 174 172 171
4 166 174 162 165
4 172 174 166 175
4 166 162 172 163
4 162 174 166 172
4 175 172 176 166
4 176 166 164 167
4 164 172 176 173
4 166 172 164 163
4 176 172 164 166
4 177 174 178 168
4 178 168 166 169
4 166 174 178 175
4 168 174 166 165
4 178 174 166 168
4 166 178 176 175
4 170 178 166 169
4 176 178 170 179
4 170 166 176 167
4 166 178 170 176
4 183 180 184 174
4 184 174 172 175
4 172 180 184 181
4 174 180 172 171
4 184 180 172 174
4 172 184 182 181
4 176 184 172 175
4 182 184 176 185
4 176 172 182 173
4 172 184 176 182
4 174 186 184 183
4 178 186 174 177
4 184 186 178 187
4 178 174 184 175
4 174 186 178 184
4 187 184 188 178
4 188 178 176 179
4 176 184 188 185
4 178 184 176 175
4 188 184 176 178

CELL_TYPES 400
10
10
10
10
10
10
10
10
10
10
10
10
10
10
10
10
10
10
10
10
10
10
10
10
10
10
10
10
10
10
10
10
10
10
10
10
10
10
10
10
10
10
10
10
10
10
10
10
10
10
10
10
10
10
10
10
10
10
10
10
10
10
10
10
10
10
10
10
10
10
10
10
10
10
10
10
10
10
10
10
10
10
10
10
10
10
10
10
10
10
10
10
10
10
10
10
10
10
10
10
10
10
10
10
10
10
10
10
10
10
10
10
10
10
10
10
10
10
10
10
10
10
10
10
10
10
10
10
10
10
10
10
10
10
10
10
10
10
10
10
10
10
10
10
10
10
10
10
10
10
10
10
10
10
10
10
10
10
10
10
10
10
10
10
10
10
10
10
10
10
10
10
10
10
10
10
10
10
10
10
10
10
10
10
10
10
10
10
10
10
10
10
10
10
10
10
10
10
10
10
10
10
10
10
10
10
10
10
10
10
10
10
10
10
10
10
10
10
10
10
10
10
10
10
10
10
10
10
10
10
10
10
10
10
10
10
10
10
10
10
10
10
10
10
10
10
10
10
10
10
10
10
10
10
10
10
10
10
10
10
10
10
10
10
10
10
10
10
10
10
10
10
10
10
10
10
10
10
10
10
10
10
10
10
10
10
10
10
10
10
10
10
10
10
10
10
10
10
10
10
10
10
10
10
10
10
10
10
10
10
10
10
10
10
10
10
10
10
10
10
10
10
10
10
10
10
10
10
10
10
10
10
10
10
10
10
10
10
10
10
10
10
10
10
10
10
10
10
10
10
10
10
10
10
10
10
10
10
10
10
10
10
10
10
10
10
10
10
10
10
10
10
10
10
10
10
10
10
10
10
10
10
10
10
10
10
10
10
10
10
10
10
10
10
10
10
10
10
10
10