# vtk DataFile Version 3.0
Thin cylinder mesh from CutZSubMesh Z from 0 to 0.25
ASCII

DATASET UNSTRUCTURED_GRID
POINTS 123 double
  1.00000000   0.00000000   0.00000000
  0.00000000   1.00000000   0.00000000
 -1.00000000   0.00000000   0.00000000
  0.00000000  -1.00000000   0.00000000
  0.00000000   0.00000000   0.00000000
  0.50000000   0.00000000   0.25000000
  0.00000000   0.00000000   0.25000000
  0.00000000   0.50000000   0.25000000
  0.70710678   0.70710678   0.25000000
  0.00000000   1.00000000   0.25000000
  0.00000000   0.50000000   0.00000000
  1.00000000   0.00000000   0.25000000
  0.70710678   0.70710678   0.00000000
  0.50000000   0.00000000   0.00000000
 -0.50000000   0.00000000   0.25000000
 -0.70710678   0.70710678   0.25000000
 -1.00000000   0.00000000   0.25000000
 -0.50000000   0.00000000   0.00000000
 -0.70710678   0.70710678   0.00000000
  0.00000000  -0.50000000   0.25000000
 -0.70710678  -0.70710678   0.25000000
  0.00000000  -1.00000000   0.25000000
  0.00000000  -0.50000000   0.00000000
 -0.70710678  -0.70710678   0.00000000
  0.70710678  -0.70710678   0.25000000
  0.70710678  -0.70710678   0.00000000
  0.35355339   0.35355339   0.25000000
  0.00000000   0.25000000   0.25000000
  0.00000000   0.25000000   0.12500000
  0.25000000   0.00000000   0.25000000
  0.25000000   0.00000000   0.12500000
  0.00000000   0.00000000   0.12500000
  0.64714216   0.37908710   0.25000000
  0.00000000   0.75000000   0.25000000
  0.38268343   0.92387953   0.25000000
  0.38268343   0.92387953   0.12500000
  0.37908710   0.64714216   0.12500000
  0.00000000   1.00000000   0.12500000
  0.00000000   0.75000000   0.12500000
  0.00000000   0.75000000   0.00000000
  0.35355339   0.35355339   0.12500000
  0.00000000   0.50000000   0.12500000
  0.00000000   0.25000000   0.00000000
  0.33541020   0.67082039   0.25000000
  0.92387953   0.38268343   0.25000000
  0.75000000   0.00000000   0.25000000
  0.38268343   0.92387953   0.00000000
  0.70710678   0.70710678   0.12500000
  0.37908710   0.64714216   0.00000000
  0.92387953   0.38268343   0.12500000
  1.00000000   0.00000000   0.12500000
  0.75000000   0.00000000   0.12500000
  0.92387953   0.38268343   0.00000000
  0.64714216   0.37908710   0.00000000
  0.75000000   0.00000000   0.00000000
  0.50000000   0.00000000   0.12500000
  0.35355339   0.35355339   0.00000000
  0.25000000   0.00000000   0.00000000
  0.64714216   0.37908710   0.12500000
 -0.35355339   0.35355339   0.25000000
 -0.25000000   0.00000000   0.25000000
 -0.25000000   0.00000000   0.12500000
 -0.37908710   0.64714216   0.25000000
 -0.75000000   0.00000000   0.25000000
 -0.92387953   0.38268343   0.25000000
 -0.92387953   0.38268343   0.12500000
 -0.64714216   0.37908710   0.12500000
 -1.00000000   0.00000000   0.12500000
 -0.75000000   0.00000000   0.12500000
 -0.75000000   0.00000000   0.00000000
 -0.35355339   0.35355339   0.12500000
 -0.50000000   0.00000000   0.12500000
 -0.25000000   0.00000000   0.00000000
 -0.67082039   0.33541020   0.25000000
 -0.38268343   0.92387953   0.25000000
 -0.92387953   0.38268343   0.00000000
 -0.70710678   0.70710678   0.12500000
 -0.64714216   0.37908710   0.00000000
 -0.38268343   0.92387953   0.12500000
 -0.38268343   0.92387953   0.00000000
 -0.37908710   0.64714216   0.00000000
 -0.35355339   0.35355339   0.00000000
 -0.37908710   0.64714216   0.12500000
 -0.35355339  -0.35355339   0.25000000
  0.00000000  -0.25000000   0.25000000
  0.00000000  -0.25000000   0.12500000
 -0.64714216  -0.37908710   0.25000000
  0.00000000  -0.75000000   0.25000000
 -0.38268343  -0.92387953   0.25000000
 -0.38268343  -0.92387953   0.12500000
 -0.37908710  -0.64714216   0.12500000
  0.00000000  -1.00000000   0.12500000
  0.00000000  -0.75000000   0.12500000
  0.00000000  -0.75000000   0.00000000
 -0.35355339  -0.35355339   0.12500000
  0.00000000  -0.50000000   0.12500000
  0.00000000  -0.25000000   0.00000000
 -0.33541020  -0.67082039   0.25000000
 -0.92387953  -0.38268343   0.25000000
 -0.38268343  -0.92387953   0.00000000
 -0.70710678  -0.70710678   0.12500000
 -0.37908710  -0.64714216   0.00000000
 -0.92387953  -0.38268343   0.12500000
 -0.92387953  -0.38268343   0.00000000
 -0.64714216  -0.37908710   0.00000000
 -0.35355339  -0.35355339   0.00000000
 -0.64714216  -0.37908710   0.12500000
  0.35355339  -0.35355339   0.25000000
  0.37908710  -0.64714216   0.25000000
  0.92387953  -0.38268343   0.25000000
  0.92387953  -0.38268343   0.12500000
  0.64714216  -0.37908710   0.12500000
  0.35355339  -0.35355339   0.12500000
  0.67082039  -0.33541020   0.25000000
  0.38268343  -0.92387953   0.25000000
  0.92387953  -0.38268343   0.00000000
  0.70710678  -0.70710678   0.12500000
  0.64714216  -0.37908710   0.00000000
  0.38268343  -0.92387953   0.12500000
  0.38268343  -0.92387953   0.00000000
  0.37908710  -0.64714216   0.00000000
  0.35355339  -0.35355339   0.00000000
  0.37908710  -0.64714216   0.12500000

CELLS 384 1920
4      7     26     27     28
4      5     29     26     30
4     27     29      6     31
4     31     28     30      4
4     28     29     30     26
4     28     27     29     26
4     28     30     29     31
4     28     29     27     31
4      8     34     35     36
4      9     37     34     38
4     35     37      1     39
4     39     36     38     10
4     36     37     38     34
4     36     35     37     34
4     36     38     37     39
4     36     37     35     39
4     10     40     41     42
4      5     26     40     30
4     41     26      7     28
4     28     42     30      4
4     42     26     30     40
4     42     41     26     40
4     42     30     26     28
4     42     26     41     28
4      5     26     43     40
4      7     33     26     41
4     43     33      9     38
4     38     40     41     10
4     40     33     41     26
4     40     43     33     26
4     40     41     33     38
4     40     33     43     38
4      5     43     32     40
4      9     34     43     38
4     32     34      8     36
4     36     40     38     10
4     40     34     38     43
4     40     32     34     43
4     40     38     34     36
4     40     34     32     36
4      1     46     35     39
4     12     47     46     48
4     35     47      8     36
4     36     39     48     10
4     39     47     48     46
4     39     35     47     46
4     39     48     47     36
4     39     47     35     36
4     11     49     50     51
4     12     52     49     53
4     50     52      0     54
4     54     51     53     13
4     51     52     53     49
4     51     50     52     49
4     51     53     52     54
4     51     52     50     54
4     13     55     56     57
4      5     40     55     30
4     56     40     10     42
4     42     57     30      4
4     57     40     30     55
4     57     56     40     55
4     57     30     40     42
4     57     40     56     42
4      5     58     40     32
4     12     48     58     47
4     40     48     10     36
4     36     32     47      8
4     32     48     47     58
4     32     40     48     58
4     32     47     48     36
4     32     48     40     36
4      5     45     58     32
4     11     49     45     44
4     58     49     12     47
4     47     32     44      8
4     32     49     44     45
4     32     58     49     45
4     32     44     49     47
4     32     49     58     47
4      5     40     58     55
4     10     48     40     56
4     58     48     12     53
4     53     55     56     13
4     55     48     56     40
4     55     58     48     40
4     55     56     48     53
4     55     48     58     53
4      5     58     45     55
4     12     49     58     53
4     45     49     11     51
4     51     55     53     13
4     55     49     53     58
4     55     45     49     58
4     55     53     49     51
4     55     49     45     51
4     14     59     60     61
4      7     27     59     28
4     60     27      6     31
4     31     61     28      4
4     61     27     28     59
4     61     60     27     59
4     61     28     27     31
4     61     27     60     31
4     15     64     65     66
4     16     67     64     68
4     65     67      2     69
4     69     66     68     17
4     66     67     68     64
4     66     65     67     64
4     66     68     67     69
4     66     67     65     69
4     17     70     71     72
4      7     59     70     28
4     71     59     14     61
4     61     72     28      4
4     72     59     28     70
4     72     71     59     70
4     72     28     59     61
4     72     59     71     61
4      7     59     73     70
4     14     63     59     71
4     73     63     16     68
4     68     70     71     17
4     70     63     71     59
4     70     73     63     59
4     70     71     63     68
4     70     63     73     68
4      7     73     62     70
4     16     64     73     68
4     62     64     15     66
4     66     70     68     17
4     70     64     68     73
4     70     62     64     73
4     70     68     64     66
4     70     64     62     66
4      2     75     65     69
4     18     76     75     77
4     65     76     15     66
4     66     69     77     17
4     69     76     77     75
4     69     65     76     75
4     69     77     76     66
4     69     76     65     66
4      9     78     37     38
4     18     79     78     80
4     37     79      1     39
4     39     38     80     10
4     38     79     80     78
4     38     37     79     78
4     38     80     79     39
4     38     79     37     39
4     10     41     81     42
4      7     70     41     28
4     81     70     17     72
4     72     42     28      4
4     42     70     28     41
4     42     81     70     41
4     42     28     70     72
4     42     70     81     72
4      7     82     70     62
4     18     77     82     76
4     70     77     17     66
4     66     62     76     15
4     62     77     76     82
4     62     70     77     82
4     62     76     77     66
4     62     77     70     66
4      7     33     82     62
4      9     78     33     74
4     82     78     18     76
4     76     62     74     15
4     62     78     74     33
4     62     82     78     33
4     62     74     78     76
4     62     78     82     76
4      7     70     82     41
4     17     77     70     81
4     82     77     18     80
4     80     41     81     10
4     41     77     81     70
4     41     82     77     70
4     41     81     77     80
4     41     77     82     80
4      7     82     33     41
4     18     78     82     80
4     33     78      9     38
4     38     41     80     10
4     41     78     80     82
4     41     33     78     82
4     41     80     78     38
4     41     78     33     38
4     19     83     84     85
4     14     60     83     61
4     84     60      6     31
4     31     85     61      4
4     85     60     61     83
4     85     84     60     83
4     85     61     60     31
4     85     60     84     31
4     20     88     89     90
4     21     91     88     92
4     89     91      3     93
4     93     90     92     22
4     90     91     92     88
4     90     89     91     88
4     90     92     91     93
4     90     91     89     93
4     22     94     95     96
4     14     83     94     61
4     95     83     19     85
4     85     96     61      4
4     96     83     61     94
4     96     95     83     94
4     96     61     83     85
4     96     83     95     85
4     14     83     97     94
4     19     87     83     95
4     97     87     21     92
4     92     94     95     22
4     94     87     95     83
4     94     97     87     83
4     94     95     87     92
4     94     87     97     92
4     14     97     86     94
4     21     88     97     92
4     86     88     20     90
4     90     94     92     22
4     94     88     92     97
4     94     86     88     97
4     94     92     88     90
4     94     88     86     90
4      3     99     89     93
4     23    100     99    101
4     89    100     20     90
4     90     93    101     22
4     93    100    101     99
4     93     89    100     99
4     93    101    100     90
4     93    100     89     90
4     16    102     67     68
4     23    103    102    104
4     67    103      2     69
4     69     68    104     17
4     68    103    104    102
4     68     67    103    102
4     68    104    103     69
4     68    103     67     69
4     17     71    105     72
4     14     94     71     61
4    105     94     22     96
4     96     72     61      4
4     72     94     61     71
4     72    105     94     71
4     72     61     94     96
4     72     94    105     96
4     14    106     94     86
4     23    101    106    100
4     94    101     22     90
4     90     86    100     20
4     86    101    100    106
4     86     94    101    106
4     86    100    101     90
4     86    101     94     90
4     14     63    106     86
4     16    102     63     98
4    106    102     23    100
4    100     86     98     20
4     86    102     98     63
4     86    106    102     63
4     86     98    102    100
4     86    102    106    100
4     14     94    106     71
4     22    101     94    105
4    106    101     23    104
4    104     71    105     17
4     71    101    105     94
4     71    106    101     94
4     71    105    101    104
4     71    101    106    104
4     14    106     63     71
4     23    102    106    104
4     63    102     16     68
4     68     71    104     17
4     71    102    104    106
4     71     63    102    106
4     71    104    102     68
4     71    102     63     68
4      5    107     29     30
4     19     84    107     85
4     29     84      6     31
4     31     30     85      4
4     30     84     85    107
4     30     29     84    107
4     30     85     84     31
4     30     84     29     31
4     24    109    110    111
4     11     50    109     51
4    110     50      0     54
4     54    111     51     13
4    111     50     51    109
4    111    110     50    109
4    111     51     50     54
4    111     50    110     54
4     13    112     55     57
4     19    107    112     85
4     55    107      5     30
4     30     57     85      4
4     57    107     85    112
4     57     55    107    112
4     57     85    107     30
4     57    107     55     30
4     19    107    113    112
4      5     45    107     55
4    113     45     11     51
4     51    112     55     13
4    112     45     55    107
4    112    113     45    107
4    112     55     45     51
4    112     45    113     51
4     19    113    108    112
4     11    109    113     51
4    108    109     24    111
4    111    112     51     13
4    112    109     51    113
4    112    108    109    113
4    112     51    109    111
4    112    109    108    111
4      0    115    110     54
4     25    116    115    117
4    110    116     24    111
4    111     54    117     13
4     54    116    117    115
4     54    110    116    115
4     54    117    116    111
4     54    116    110    111
4     21    118     91     92
4     25    119    118    120
4     91    119      3     93
4     93     92    120     22
4     92    119    120    118
4     92     91    119    118
4     92    120    119     93
4     92    119     91     93
4     22     95    121     96
4     19    112     95     85
4    121    112     13     57
4     57     96     85      4
4     96    112     85     95
4     96    121    112     95
4     96     85    112     57
4     96    112    121     57
4     19    122    112    108
4     25    117    122    116
4    112    117     13    111
4    111    108    116     24
4    108    117    116    122
4    108    112    117    122
4    108    116    117    111
4    108    117    112    111
4     19     87    122    108
4     21    118     87    114
4    122    118     25    116
4    116    108    114     24
4    108    118    114     87
4    108    122    118     87
4    108    114    118    116
4    108    118    122    116
4     19    112    122     95
4     13    117    112    121
4    122    117     25    120
4    120     95    121     22
4     95    117    121    112
4     95    122    117    112
4     95    121    117    120
4     95    117    122    120
4     19    122     87     95
4     25    118    122    120
4     87    118     21     92
4     92     95    120     22
4     95    118    120    122
4     95     87    118    122
4     95    120    118     92
4     95    118     87     92

CELL_TYPES 384
10
10
10
10
10
10
10
10
10
10
10
10
10
10
10
10
10
10
10
10
10
10
10
10
10
10
10
10
10
10
10
10
10
10
10
10
10
10
10
10
10
10
10
10
10
10
10
10
10
10
10
10
10
10
10
10
10
10
10
10
10
10
10
10
10
10
10
10
10
10
10
10
10
10
10
10
10
10
10
10
10
10
10
10
10
10
10
10
10
10
10
10
10
10
10
10
10
10
10
10
10
10
10
10
10
10
10
10
10
10
10
10
10
10
10
10
10
10
10
10
10
10
10
10
10
10
10
10
10
10
10
10
10
10
10
10
10
10
10
10
10
10
10
10
10
10
10
10
10
10
10
10
10
10
10
10
10
10
10
10
10
10
10
10
10
10
10
10
10
10
10
10
10
10
10
10
10
10
10
10
10
10
10
10
10
10
10
10
10
10
10
10
10
10
10
10
10
10
10
10
10
10
10
10
10
10
10
10
10
10
10
10
10
10
10
10
10
10
10
10
10
10
10
10
10
10
10
10
10
10
10
10
10
10
10
10
10
10
10
10
10
10
10
10
10
10
10
10
10
10
10
10
10
10
10
10
10
10
10
10
10
10
10
10
10
10
10
10
10
10
10
10
10
10
10
10
10
10
10
10
10
10
10
10
10
10
10
10
10
10
10
10
10
10
10
10
10
10
10
10
10
10
10
10
10
10
10
10
10
10
10
10
10
10
10
10
10
10
10
10
10
10
10
10
10
10
10
10
10
10
10
10
10
10
10
10
10
10
10
10
10
10
10
10
10
10
10
10
10
10
10
10
10
10
10
10
10
10
10
10
10
10
10
10
10
10
10
10
10
10
10
10
10
10
10
10
10
10
10
10
10
10
10
10

