# vtk DataFile Version 3.0
Cylinder
ASCII

DATASET UNSTRUCTURED_GRID
POINTS 369 double
  1.00000000   0.00000000   0.50000000
  0.00000000   1.00000000   0.50000000
 -1.00000000   0.00000000   0.50000000
  0.00000000  -1.00000000   0.50000000
  0.00000000   0.00000000   0.50000000
  1.00000000   0.00000000   0.00000000
  0.00000000   1.00000000   0.00000000
 -1.00000000   0.00000000   0.00000000
  0.00000000  -1.00000000   0.00000000
  0.00000000   0.00000000   0.00000000
  1.00000000   0.00000000  -0.50000000
  0.00000000   1.00000000  -0.50000000
 -1.00000000   0.00000000  -0.50000000
  0.00000000  -1.00000000  -0.50000000
  0.00000000   0.00000000  -0.50000000
  0.50000000   0.00000000   0.50000000
  0.70710678   0.70710678   0.50000000
  0.50000000   0.00000000   0.25000000
  0.00000000   0.50000000   0.50000000
  0.00000000   0.00000000   0.25000000
  0.00000000   0.50000000   0.25000000
  0.70710678   0.70710678   0.25000000
  0.00000000   1.00000000   0.25000000
  0.00000000   0.50000000   0.00000000
  1.00000000   0.00000000   0.25000000
  0.70710678   0.70710678   0.00000000
  0.50000000   0.00000000   0.00000000
 -0.70710678   0.70710678   0.50000000
 -0.50000000   0.00000000   0.50000000
 -0.50000000   0.00000000   0.25000000
 -0.70710678   0.70710678   0.25000000
 -1.00000000   0.00000000   0.25000000
 -0.50000000   0.00000000   0.00000000
 -0.70710678   0.70710678   0.00000000
 -0.70710678  -0.70710678   0.50000000
  0.00000000  -0.50000000   0.50000000
  0.00000000  -0.50000000   0.25000000
 -0.70710678  -0.70710678   0.25000000
  0.00000000  -1.00000000   0.25000000
  0.00000000  -0.50000000   0.00000000
 -0.70710678  -0.70710678   0.00000000
  0.70710678  -0.70710678   0.50000000
  0.70710678  -0.70710678   0.25000000
  0.70710678  -0.70710678   0.00000000
  0.50000000   0.00000000  -0.25000000
  0.00000000   0.00000000  -0.25000000
  0.00000000   0.50000000  -0.25000000
  0.70710678   0.70710678  -0.25000000
  0.00000000   1.00000000  -0.25000000
  0.00000000   0.50000000  -0.50000000
  1.00000000   0.00000000  -0.25000000
  0.70710678   0.70710678  -0.50000000
  0.50000000   0.00000000  -0.50000000
 -0.50000000   0.00000000  -0.25000000
 -0.70710678   0.70710678  -0.25000000
 -1.00000000   0.00000000  -0.25000000
 -0.50000000   0.00000000  -0.50000000
 -0.70710678   0.70710678  -0.50000000
  0.00000000  -0.50000000  -0.25000000
 -0.70710678  -0.70710678  -0.25000000
  0.00000000  -1.00000000  -0.25000000
  0.00000000  -0.50000000  -0.50000000
 -0.70710678  -0.70710678  -0.50000000
  0.70710678  -0.70710678  -0.25000000
  0.70710678  -0.70710678  -0.50000000
  0.75000000   0.00000000   0.50000000
  0.92387953   0.38268343   0.50000000
  0.75000000   0.00000000   0.37500000
  0.64714216   0.37908710   0.50000000
  0.50000000   0.00000000   0.37500000
  0.64714216   0.37908710   0.37500000
  0.00000000   0.25000000   0.50000000
  0.25000000   0.00000000   0.50000000
  0.00000000   0.00000000   0.37500000
  0.35355339   0.35355339   0.50000000
  0.00000000   0.25000000   0.37500000
  0.25000000   0.00000000   0.37500000
  0.37908710   0.64714216   0.50000000
  0.38268343   0.92387953   0.50000000
  0.37908710   0.64714216   0.37500000
  0.00000000   0.75000000   0.50000000
  0.00000000   0.50000000   0.37500000
  0.00000000   0.75000000   0.37500000
  0.35355339   0.35355339   0.25000000
  0.00000000   0.25000000   0.25000000
  0.00000000   0.25000000   0.12500000
  0.25000000   0.00000000   0.25000000
  0.25000000   0.00000000   0.12500000
  0.00000000   0.00000000   0.12500000
  0.35355339   0.35355339   0.37500000
  0.92387953   0.38268343   0.37500000
  0.70710678   0.70710678   0.37500000
  0.64714216   0.37908710   0.25000000
  0.00000000   1.00000000   0.37500000
  0.38268343   0.92387953   0.37500000
  0.00000000   0.75000000   0.25000000
  0.38268343   0.92387953   0.25000000
  0.38268343   0.92387953   0.12500000
  0.37908710   0.64714216   0.12500000
  0.00000000   1.00000000   0.12500000
  0.00000000   0.75000000   0.12500000
  0.00000000   0.75000000   0.00000000
  0.35355339   0.35355339   0.12500000
  0.00000000   0.50000000   0.12500000
  0.00000000   0.25000000   0.00000000
  0.33541020   0.67082039   0.25000000
  1.00000000   0.00000000   0.37500000
  0.92387953   0.38268343   0.25000000
  0.75000000   0.00000000   0.25000000
  0.38268343   0.92387953   0.00000000
  0.70710678   0.70710678   0.12500000
  0.37908710   0.64714216   0.00000000
  0.92387953   0.38268343   0.12500000
  1.00000000   0.00000000   0.12500000
  0.75000000   0.00000000   0.12500000
  0.92387953   0.38268343   0.00000000
  0.64714216   0.37908710   0.00000000
  0.75000000   0.00000000   0.00000000
  0.50000000   0.00000000   0.12500000
  0.35355339   0.35355339   0.00000000
  0.25000000   0.00000000   0.00000000
  0.64714216   0.37908710   0.12500000
 -0.38268343   0.92387953   0.50000000
 -0.37908710   0.64714216   0.50000000
 -0.37908710   0.64714216   0.37500000
 -0.25000000   0.00000000   0.50000000
 -0.35355339   0.35355339   0.50000000
 -0.25000000   0.00000000   0.37500000
 -0.64714216   0.37908710   0.50000000
 -0.92387953   0.38268343   0.50000000
 -0.64714216   0.37908710   0.37500000
 -0.75000000   0.00000000   0.50000000
 -0.50000000   0.00000000   0.37500000
 -0.75000000   0.00000000   0.37500000
 -0.35355339   0.35355339   0.25000000
 -0.25000000   0.00000000   0.25000000
 -0.25000000   0.00000000   0.12500000
 -0.35355339   0.35355339   0.37500000
 -0.38268343   0.92387953   0.37500000
 -0.70710678   0.70710678   0.37500000
 -0.37908710   0.64714216   0.25000000
 -1.00000000   0.00000000   0.37500000
 -0.92387953   0.38268343   0.37500000
 -0.75000000   0.00000000   0.25000000
 -0.92387953   0.38268343   0.25000000
 -0.92387953   0.38268343   0.12500000
 -0.64714216   0.37908710   0.12500000
 -1.00000000   0.00000000   0.12500000
 -0.75000000   0.00000000   0.12500000
 -0.75000000   0.00000000   0.00000000
 -0.35355339   0.35355339   0.12500000
 -0.50000000   0.00000000   0.12500000
 -0.25000000   0.00000000   0.00000000
 -0.67082039   0.33541020   0.25000000
 -0.38268343   0.92387953   0.25000000
 -0.92387953   0.38268343   0.00000000
 -0.70710678   0.70710678   0.12500000
 -0.64714216   0.37908710   0.00000000
 -0.38268343   0.92387953   0.12500000
 -0.38268343   0.92387953   0.00000000
 -0.37908710   0.64714216   0.00000000
 -0.35355339   0.35355339   0.00000000
 -0.37908710   0.64714216   0.12500000
 -0.92387953  -0.38268343   0.50000000
 -0.64714216  -0.37908710   0.50000000
 -0.64714216  -0.37908710   0.37500000
  0.00000000  -0.25000000   0.50000000
 -0.35355339  -0.35355339   0.50000000
  0.00000000  -0.25000000   0.37500000
 -0.37908710  -0.64714216   0.50000000
 -0.38268343  -0.92387953   0.50000000
 -0.37908710  -0.64714216   0.37500000
  0.00000000  -0.75000000   0.50000000
  0.00000000  -0.50000000   0.37500000
  0.00000000  -0.75000000   0.37500000
 -0.35355339  -0.35355339   0.25000000
  0.00000000  -0.25000000   0.25000000
  0.00000000  -0.25000000   0.12500000
 -0.35355339  -0.35355339   0.37500000
 -0.92387953  -0.38268343   0.37500000
 -0.70710678  -0.70710678   0.37500000
 -0.64714216  -0.37908710   0.25000000
  0.00000000  -1.00000000   0.37500000
 -0.38268343  -0.92387953   0.37500000
  0.00000000  -0.75000000   0.25000000
 -0.38268343  -0.92387953   0.25000000
 -0.38268343  -0.92387953   0.12500000
 -0.37908710  -0.64714216   0.12500000
  0.00000000  -1.00000000   0.12500000
  0.00000000  -0.75000000   0.12500000
  0.00000000  -0.75000000   0.00000000
 -0.35355339  -0.35355339   0.12500000
  0.00000000  -0.50000000   0.12500000
  0.00000000  -0.25000000   0.00000000
 -0.33541020  -0.67082039   0.25000000
 -0.92387953  -0.38268343   0.25000000
 -0.38268343  -0.92387953   0.00000000
 -0.70710678  -0.70710678   0.12500000
 -0.37908710  -0.64714216   0.00000000
 -0.92387953  -0.38268343   0.12500000
 -0.92387953  -0.38268343   0.00000000
 -0.64714216  -0.37908710   0.00000000
 -0.35355339  -0.35355339   0.00000000
 -0.64714216  -0.37908710   0.12500000
  0.38268343  -0.92387953   0.50000000
  0.37908710  -0.64714216   0.50000000
  0.37908710  -0.64714216   0.37500000
  0.35355339  -0.35355339   0.50000000
  0.64714216  -0.37908710   0.50000000
  0.92387953  -0.38268343   0.50000000
  0.64714216  -0.37908710   0.37500000
  0.35355339  -0.35355339   0.25000000
  0.35355339  -0.35355339   0.37500000
  0.38268343  -0.92387953   0.37500000
  0.70710678  -0.70710678   0.37500000
  0.37908710  -0.64714216   0.25000000
  0.92387953  -0.38268343   0.37500000
  0.92387953  -0.38268343   0.25000000
  0.92387953  -0.38268343   0.12500000
  0.64714216  -0.37908710   0.12500000
  0.35355339  -0.35355339   0.12500000
  0.67082039  -0.33541020   0.25000000
  0.38268343  -0.92387953   0.25000000
  0.92387953  -0.38268343   0.00000000
  0.70710678  -0.70710678   0.12500000
  0.64714216  -0.37908710   0.00000000
  0.38268343  -0.92387953   0.12500000
  0.38268343  -0.92387953   0.00000000
  0.37908710  -0.64714216   0.00000000
  0.35355339  -0.35355339   0.00000000
  0.37908710  -0.64714216   0.12500000
  0.75000000   0.00000000  -0.12500000
  0.50000000   0.00000000  -0.12500000
  0.64714216   0.37908710  -0.12500000
  0.00000000   0.00000000  -0.12500000
  0.00000000   0.25000000  -0.12500000
  0.25000000   0.00000000  -0.12500000
  0.37908710   0.64714216  -0.12500000
  0.00000000   0.50000000  -0.12500000
  0.00000000   0.75000000  -0.12500000
  0.35355339   0.35355339  -0.25000000
  0.00000000   0.25000000  -0.25000000
  0.00000000   0.25000000  -0.37500000
  0.25000000   0.00000000  -0.25000000
  0.25000000   0.00000000  -0.37500000
  0.00000000   0.00000000  -0.37500000
  0.35355339   0.35355339  -0.12500000
  0.92387953   0.38268343  -0.12500000
  0.70710678   0.70710678  -0.12500000
  0.64714216   0.37908710  -0.25000000
  0.00000000   1.00000000  -0.12500000
  0.38268343   0.92387953  -0.12500000
  0.00000000   0.75000000  -0.25000000
  0.38268343   0.92387953  -0.25000000
  0.38268343   0.92387953  -0.37500000
  0.37908710   0.64714216  -0.37500000
  0.00000000   1.00000000  -0.37500000
  0.00000000   0.75000000  -0.37500000
  0.00000000   0.75000000  -0.50000000
  0.35355339   0.35355339  -0.37500000
  0.00000000   0.50000000  -0.37500000
  0.00000000   0.25000000  -0.50000000
  0.33541020   0.67082039  -0.25000000
  1.00000000   0.00000000  -0.12500000
  0.92387953   0.38268343  -0.25000000
  0.75000000   0.00000000  -0.25000000
  0.38268343   0.92387953  -0.50000000
  0.70710678   0.70710678  -0.37500000
  0.37908710   0.64714216  -0.50000000
  0.92387953   0.38268343  -0.37500000
  1.00000000   0.00000000  -0.37500000
  0.75000000   0.00000000  -0.37500000
  0.92387953   0.38268343  -0.50000000
  0.64714216   0.37908710  -0.50000000
  0.75000000   0.00000000  -0.50000000
  0.50000000   0.00000000  -0.37500000
  0.35355339   0.35355339  -0.50000000
  0.25000000   0.00000000  -0.50000000
  0.64714216   0.37908710  -0.37500000
 -0.37908710   0.64714216  -0.12500000
 -0.25000000   0.00000000  -0.12500000
 -0.64714216   0.37908710  -0.12500000
 -0.50000000   0.00000000  -0.12500000
 -0.75000000   0.00000000  -0.12500000
 -0.35355339   0.35355339  -0.25000000
 -0.25000000   0.00000000  -0.25000000
 -0.25000000   0.00000000  -0.37500000
 -0.35355339   0.35355339  -0.12500000
 -0.38268343   0.92387953  -0.12500000
 -0.70710678   0.70710678  -0.12500000
 -0.37908710   0.64714216  -0.25000000
 -1.00000000   0.00000000  -0.12500000
 -0.92387953   0.38268343  -0.12500000
 -0.75000000   0.00000000  -0.25000000
 -0.92387953   0.38268343  -0.25000000
 -0.92387953   0.38268343  -0.37500000
 -0.64714216   0.37908710  -0.37500000
 -1.00000000   0.00000000  -0.37500000
 -0.75000000   0.00000000  -0.37500000
 -0.75000000   0.00000000  -0.50000000
 -0.35355339   0.35355339  -0.37500000
 -0.50000000   0.00000000  -0.37500000
 -0.25000000   0.00000000  -0.50000000
 -0.67082039   0.33541020  -0.25000000
 -0.38268343   0.92387953  -0.25000000
 -0.92387953   0.38268343  -0.50000000
 -0.70710678   0.70710678  -0.37500000
 -0.64714216   0.37908710  -0.50000000
 -0.38268343   0.92387953  -0.37500000
 -0.38268343   0.92387953  -0.50000000
 -0.37908710   0.64714216  -0.50000000
 -0.35355339   0.35355339  -0.50000000
 -0.37908710   0.64714216  -0.37500000
 -0.64714216  -0.37908710  -0.12500000
  0.00000000  -0.25000000  -0.12500000
 -0.37908710  -0.64714216  -0.12500000
  0.00000000  -0.50000000  -0.12500000
  0.00000000  -0.75000000  -0.12500000
 -0.35355339  -0.35355339  -0.25000000
  0.00000000  -0.25000000  -0.25000000
  0.00000000  -0.25000000  -0.37500000
 -0.35355339  -0.35355339  -0.12500000
 -0.92387953  -0.38268343  -0.12500000
 -0.70710678  -0.70710678  -0.12500000
 -0.64714216  -0.37908710  -0.25000000
  0.00000000  -1.00000000  -0.12500000
 -0.38268343  -0.92387953  -0.12500000
  0.00000000  -0.75000000  -0.25000000
 -0.38268343  -0.92387953  -0.25000000
 -0.38268343  -0.92387953  -0.37500000
 -0.37908710  -0.64714216  -0.37500000
  0.00000000  -1.00000000  -0.37500000
  0.00000000  -0.75000000  -0.37500000
  0.00000000  -0.75000000  -0.50000000
 -0.35355339  -0.35355339  -0.37500000
  0.00000000  -0.50000000  -0.37500000
  0.00000000  -0.25000000  -0.50000000
 -0.33541020  -0.67082039  -0.25000000
 -0.92387953  -0.38268343  -0.25000000
 -0.38268343  -0.92387953  -0.50000000
 -0.70710678  -0.70710678  -0.37500000
 -0.37908710  -0.64714216  -0.50000000
 -0.92387953  -0.38268343  -0.37500000
 -0.92387953  -0.38268343  -0.50000000
 -0.64714216  -0.37908710  -0.50000000
 -0.35355339  -0.35355339  -0.50000000
 -0.64714216  -0.37908710  -0.37500000
  0.37908710  -0.64714216  -0.12500000
  0.64714216  -0.37908710  -0.12500000
  0.35355339  -0.35355339  -0.25000000
  0.35355339  -0.35355339  -0.12500000
  0.38268343  -0.92387953  -0.12500000
  0.70710678  -0.70710678  -0.12500000
  0.37908710  -0.64714216  -0.25000000
  0.92387953  -0.38268343  -0.12500000
  0.92387953  -0.38268343  -0.25000000
  0.92387953  -0.38268343  -0.37500000
  0.64714216  -0.37908710  -0.37500000
  0.35355339  -0.35355339  -0.37500000
  0.67082039  -0.33541020  -0.25000000
  0.38268343  -0.92387953  -0.25000000
  0.92387953  -0.38268343  -0.50000000
  0.70710678  -0.70710678  -0.37500000
  0.64714216  -0.37908710  -0.50000000
  0.38268343  -0.92387953  -0.37500000
  0.38268343  -0.92387953  -0.50000000
  0.37908710  -0.64714216  -0.50000000
  0.35355339  -0.35355339  -0.50000000
  0.37908710  -0.64714216  -0.37500000

CELLS 1536 7680
4      0     65     66     67
4     15     68     65     69
4     66     68     16     70
4     70     67     69     17
4     67     68     69     65
4     67     66     68     65
4     67     69     68     70
4     67     68     66     70
4      4     71     72     73
4     18     74     71     75
4     72     74     15     76
4     76     73     75     19
4     73     74     75     71
4     73     72     74     71
4     73     75     74     76
4     73     74     72     76
4     16     77     78     79
4     18     80     77     81
4     78     80      1     82
4     82     79     81     20
4     79     80     81     77
4     79     78     80     77
4     79     81     80     82
4     79     80     78     82
4     20     83     84     85
4     17     86     83     87
4     84     86     19     88
4     88     85     87      9
4     85     86     87     83
4     85     84     86     83
4     85     87     86     88
4     85     86     84     88
4     17     89     86     69
4     18     75     89     74
4     86     75     19     76
4     76     69     74     15
4     69     75     74     89
4     69     86     75     89
4     69     74     75     76
4     69     75     86     76
4     17     70     89     69
4     16     77     70     68
4     89     77     18     74
4     74     69     68     15
4     69     77     68     70
4     69     89     77     70
4     69     68     77     74
4     69     77     89     74
4     17     86     89     83
4     19     75     86     84
4     89     75     18     81
4     81     83     84     20
4     83     75     84     86
4     83     89     75     86
4     83     84     75     81
4     83     75     89     81
4     17     89     70     83
4     18     77     89     81
4     70     77     16     79
4     79     83     81     20
4     83     77     81     89
4     83     70     77     89
4     83     81     77     79
4     83     77     70     79
4      0     66     90     67
4     16     91     66     70
4     90     91     21     92
4     92     67     70     17
4     67     91     70     66
4     67     90     91     66
4     67     70     91     92
4     67     91     90     92
4      1     93     78     82
4     22     94     93     95
4     78     94     16     79
4     79     82     95     20
4     82     94     95     93
4     82     78     94     93
4     82     95     94     79
4     82     94     78     79
4     21     96     97     98
4     22     99     96    100
4     97     99      6    101
4    101     98    100     23
4     98     99    100     96
4     98     97     99     96
4     98    100     99    101
4     98     99     97    101
4     23    102    103    104
4     17     83    102     87
4    103     83     20     85
4     85    104     87      9
4    104     83     87    102
4    104    103     83    102
4    104     87     83     85
4    104     83    103     85
4     17    105     83     70
4     22     95    105     94
4     83     95     20     79
4     79     70     94     16
4     70     95     94    105
4     70     83     95    105
4     70     94     95     79
4     70     95     83     79
4     17     92    105     70
4     21     96     92     91
4    105     96     22     94
4     94     70     91     16
4     70     96     91     92
4     70    105     96     92
4     70     91     96     94
4     70     96    105     94
4     17     83    105    102
4     20     95     83    103
4    105     95     22    100
4    100    102    103     23
4    102     95    103     83
4    102    105     95     83
4    102    103     95    100
4    102     95    105    100
4     17    105     92    102
4     22     96    105    100
4     92     96     21     98
4     98    102    100     23
4    102     96    100    105
4    102     92     96    105
4    102    100     96     98
4    102     96     92     98
4      0     90    106     67
4     21    107     90     92
4    106    107     24    108
4    108     67     92     17
4     67    107     92     90
4     67    106    107     90
4     67     92    107    108
4     67    107    106    108
4      6    109     97    101
4     25    110    109    111
4     97    110     21     98
4     98    101    111     23
4    101    110    111    109
4    101     97    110    109
4    101    111    110     98
4    101    110     97     98
4     24    112    113    114
4     25    115    112    116
4    113    115      5    117
4    117    114    116     26
4    114    115    116    112
4    114    113    115    112
4    114    116    115    117
4    114    115    113    117
4     26    118    119    120
4     17    102    118     87
4    119    102     23    104
4    104    120     87      9
4    120    102     87    118
4    120    119    102    118
4    120     87    102    104
4    120    102    119    104
4     17    121    102     92
4     25    111    121    110
4    102    111     23     98
4     98     92    110     21
4     92    111    110    121
4     92    102    111    121
4     92    110    111     98
4     92    111    102     98
4     17    108    121     92
4     24    112    108    107
4    121    112     25    110
4    110     92    107     21
4     92    112    107    108
4     92    121    112    108
4     92    107    112    110
4     92    112    121    110
4     17    102    121    118
4     23    111    102    119
4    121    111     25    116
4    116    118    119     26
4    118    111    119    102
4    118    121    111    102
4    118    119    111    116
4    118    111    121    116
4     17    121    108    118
4     25    112    121    116
4    108    112     24    114
4    114    118    116     26
4    118    112    116    121
4    118    108    112    121
4    118    116    112    114
4    118    112    108    114
4      1     80    122     82
4     18    123     80     81
4    122    123     27    124
4    124     82     81     20
4     82    123     81     80
4     82    122    123     80
4     82     81    123    124
4     82    123    122    124
4      4    125     71     73
4     28    126    125    127
4     71    126     18     75
4     75     73    127     19
4     73    126    127    125
4     73     71    126    125
4     73    127    126     75
4     73    126     71     75
4     27    128    129    130
4     28    131    128    132
4    129    131      2    133
4    133    130    132     29
4    130    131    132    128
4    130    129    131    128
4    130    132    131    133
4    130    131    129    133
4     29    134    135    136
4     20     84    134     85
4    135     84     19     88
4     88    136     85      9
4    136     84     85    134
4    136    135     84    134
4    136     85     84     88
4    136     84    135     88
4     20    137     84     81
4     28    127    137    126
4     84    127     19     75
4     75     81    126     18
4     81    127    126    137
4     81     84    127    137
4     81    126    127     75
4     81    127     84     75
4     20    124    137     81
4     27    128    124    123
4    137    128     28    126
4    126     81    123     18
4     81    128    123    124
4     81    137    128    124
4     81    123    128    126
4     81    128    137    126
4     20     84    137    134
4     19    127     84    135
4    137    127     28    132
4    132    134    135     29
4    134    127    135     84
4    134    137    127     84
4    134    135    127    132
4    134    127    137    132
4     20    137    124    134
4     28    128    137    132
4    124    128     27    130
4    130    134    132     29
4    134    128    132    137
4    134    124    128    137
4    134    132    128    130
4    134    128    124    130
4      1    122    138     82
4     27    139    122    124
4    138    139     30    140
4    140     82    124     20
4     82    139    124    122
4     82    138    139    122
4     82    124    139    140
4     82    139    138    140
4      2    141    129    133
4     31    142    141    143
4    129    142     27    130
4    130    133    143     29
4    133    142    143    141
4    133    129    142    141
4    133    143    142    130
4    133    142    129    130
4     30    144    145    146
4     31    147    144    148
4    145    147      7    149
4    149    146    148     32
4    146    147    148    144
4    146    145    147    144
4    146    148    147    149
4    146    147    145    149
4     32    150    151    152
4     20    134    150     85
4    151    134     29    136
4    136    152     85      9
4    152    134     85    150
4    152    151    134    150
4    152     85    134    136
4    152    134    151    136
4     20    153    134    124
4     31    143    153    142
4    134    143     29    130
4    130    124    142     27
4    124    143    142    153
4    124    134    143    153
4    124    142    143    130
4    124    143    134    130
4     20    140    153    124
4     30    144    140    139
4    153    144     31    142
4    142    124    139     27
4    124    144    139    140
4    124    153    144    140
4    124    139    144    142
4    124    144    153    142
4     20    134    153    150
4     29    143    134    151
4    153    143     31    148
4    148    150    151     32
4    150    143    151    134
4    150    153    143    134
4    150    151    143    148
4    150    143    153    148
4     20    153    140    150
4     31    144    153    148
4    140    144     30    146
4    146    150    148     32
4    150    144    148    153
4    150    140    144    153
4    150    148    144    146
4    150    144    140    146
4      1    138     93     82
4     30    154    138    140
4     93    154     22     95
4     95     82    140     20
4     82    154    140    138
4     82     93    154    138
4     82    140    154     95
4     82    154     93     95
4      7    155    145    149
4     33    156    155    157
4    145    156     30    146
4    146    149    157     32
4    149    156    157    155
4    149    145    156    155
4    149    157    156    146
4    149    156    145    146
4     22    158     99    100
4     33    159    158    160
4     99    159      6    101
4    101    100    160     23
4    100    159    160    158
4    100     99    159    158
4    100    160    159    101
4    100    159     99    101
4     23    103    161    104
4     20    150    103     85
4    161    150     32    152
4    152    104     85      9
4    104    150     85    103
4    104    161    150    103
4    104     85    150    152
4    104    150    161    152
4     20    162    150    140
4     33    157    162    156
4    150    157     32    146
4    146    140    156     30
4    140    157    156    162
4    140    150    157    162
4    140    156    157    146
4    140    157    150    146
4     20     95    162    140
4     22    158     95    154
4    162    158     33    156
4    156    140    154     30
4    140    158    154     95
4    140    162    158     95
4    140    154    158    156
4    140    158    162    156
4     20    150    162    103
4     32    157    150    161
4    162    157     33    160
4    160    103    161     23
4    103    157    161    150
4    103    162    157    150
4    103    161    157    160
4    103    157    162    160
4     20    162     95    103
4     33    158    162    160
4     95    158     22    100
4    100    103    160     23
4    103    158    160    162
4    103     95    158    162
4    103    160    158    100
4    103    158     95    100
4      2    131    163    133
4     28    164    131    132
4    163    164     34    165
4    165    133    132     29
4    133    164    132    131
4    133    163    164    131
4    133    132    164    165
4    133    164    163    165
4      4    166    125     73
4     35    167    166    168
4    125    167     28    127
4    127     73    168     19
4     73    167    168    166
4     73    125    167    166
4     73    168    167    127
4     73    167    125    127
4     34    169    170    171
4     35    172    169    173
4    170    172      3    174
4    174    171    173     36
4    171    172    173    169
4    171    170    172    169
4    171    173    172    174
4    171    172    170    174
4     36    175    176    177
4     29    135    175    136
4    176    135     19     88
4     88    177    136      9
4    177    135    136    175
4    177    176    135    175
4    177    136    135     88
4    177    135    176     88
4     29    178    135    132
4     35    168    178    167
4    135    168     19    127
4    127    132    167     28
4    132    168    167    178
4    132    135    168    178
4    132    167    168    127
4    132    168    135    127
4     29    165    178    132
4     34    169    165    164
4    178    169     35    167
4    167    132    164     28
4    132    169    164    165
4    132    178    169    165
4    132    164    169    167
4    132    169    178    167
4     29    135    178    175
4     19    168    135    176
4    178    168     35    173
4    173    175    176     36
4    175    168    176    135
4    175    178    168    135
4    175    176    168    173
4    175    168    178    173
4     29    178    165    175
4     35    169    178    173
4    165    169     34    171
4    171    175    173     36
4    175    169    173    178
4    175    165    169    178
4    175    173    169    171
4    175    169    165    171
4      2    163    179    133
4     34    180    163    165
4    179    180     37    181
4    181    133    165     29
4    133    180    165    163
4    133    179    180    163
4    133    165    180    181
4    133    180    179    181
4      3    182    170    174
4     38    183    182    184
4    170    183     34    171
4    171    174    184     36
4    174    183    184    182
4    174    170    183    182
4    174    184    183    171
4    174    183    170    171
4     37    185    186    187
4     38    188    185    189
4    186    188      8    190
4    190    187    189     39
4    187    188    189    185
4    187    186    188    185
4    187    189    188    190
4    187    188    186    190
4     39    191    192    193
4     29    175    191    136
4    192    175     36    177
4    177    193    136      9
4    193    175    136    191
4    193    192    175    191
4    193    136    175    177
4    193    175    192    177
4     29    194    175    165
4     38    184    194    183
4    175    184     36    171
4    171    165    183     34
4    165    184    183    194
4    165    175    184    194
4    165    183    184    171
4    165    184    175    171
4     29    181    194    165
4     37    185    181    180
4    194    185     38    183
4    183    165    180     34
4    165    185    180    181
4    165    194    185    181
4    165    180    185    183
4    165    185    194    183
4     29    175    194    191
4     36    184    175    192
4    194    184     38    189
4    189    191    192     39
4    191    184    192    175
4    191    194    184    175
4    191    192    184    189
4    191    184    194    189
4     29    194    181    191
4     38    185    194    189
4    181    185     37    187
4    187    191    189     39
4    191    185    189    194
4    191    181    185    194
4    191    189    185    187
4    191    185    181    187
4      2    179    141    133
4     37    195    179    181
4    141    195     31    143
4    143    133    181     29
4    133    195    181    179
4    133    141    195    179
4    133    181    195    143
4    133    195    141    143
4      8    196    186    190
4     40    197    196    198
4    186    197     37    187
4    187    190    198     39
4    190    197    198    196
4    190    186    197    196
4    190    198    197    187
4    190    197    186    187
4     31    199    147    148
4     40    200    199    201
4    147    200      7    149
4    149    148    201     32
4    148    200    201    199
4    148    147    200    199
4    148    201    200    149
4    148    200    147    149
4     32    151    202    152
4     29    191    151    136
4    202    191     39    193
4    193    152    136      9
4    152    191    136    151
4    152    202    191    151
4    152    136    191    193
4    152    191    202    193
4     29    203    191    181
4     40    198    203    197
4    191    198     39    187
4    187    181    197     37
4    181    198    197    203
4    181    191    198    203
4    181    197    198    187
4    181    198    191    187
4     29    143    203    181
4     31    199    143    195
4    203    199     40    197
4    197    181    195     37
4    181    199    195    143
4    181    203    199    143
4    181    195    199    197
4    181    199    203    197
4     29    191    203    151
4     39    198    191    202
4    203    198     40    201
4    201    151    202     32
4    151    198    202    191
4    151    203    198    191
4    151    202    198    201
4    151    198    203    201
4     29    203    143    151
4     40    199    203    201
4    143    199     31    148
4    148    151    201     32
4    151    199    201    203
4    151    143    199    203
4    151    201    199    148
4    151    199    143    148
4      3    172    204    174
4     35    205    172    173
4    204    205     41    206
4    206    174    173     36
4    174    205    173    172
4    174    204    205    172
4    174    173    205    206
4    174    205    204    206
4      4     72    166     73
4     15    207     72     76
4    166    207     35    168
4    168     73     76     19
4     73    207     76     72
4     73    166    207     72
4     73     76    207    168
4     73    207    166    168
4     41    208    209    210
4     15     65    208     69
4    209     65      0     67
4     67    210     69     17
4    210     65     69    208
4    210    209     65    208
4    210     69     65     67
4    210     65    209     67
4     17    211     86     87
4     36    176    211    177
4     86    176     19     88
4     88     87    177      9
4     87    176    177    211
4     87     86    176    211
4     87    177    176     88
4     87    176     86     88
4     36    212    176    173
4     15     76    212    207
4    176     76     19    168
4    168    173    207     35
4    173     76    207    212
4    173    176     76    212
4    173    207     76    168
4    173     76    176    168
4     36    206    212    173
4     41    208    206    205
4    212    208     15    207
4    207    173    205     35
4    173    208    205    206
4    173    212    208    206
4    173    205    208    207
4    173    208    212    207
4     36    176    212    211
4     19     76    176     86
4    212     76     15     69
4     69    211     86     17
4    211     76     86    176
4    211    212     76    176
4    211     86     76     69
4    211     76    212     69
4     36    212    206    211
4     15    208    212     69
4    206    208     41    210
4    210    211     69     17
4    211    208     69    212
4    211    206    208    212
4    211     69    208    210
4    211    208    206    210
4      3    204    213    174
4     41    214    204    206
4    213    214     42    215
4    215    174    206     36
4    174    214    206    204
4    174    213    214    204
4    174    206    214    215
4    174    214    213    215
4      0    106    209     67
4     24    216    106    108
4    209    216     41    210
4    210     67    108     17
4     67    216    108    106
4     67    209    216    106
4     67    108    216    210
4     67    216    209    210
4     42    217    218    219
4     24    113    217    114
4    218    113      5    117
4    117    219    114     26
4    219    113    114    217
4    219    218    113    217
4    219    114    113    117
4    219    113    218    117
4     26    220    118    120
4     36    211    220    177
4    118    211     17     87
4     87    120    177      9
4    120    211    177    220
4    120    118    211    220
4    120    177    211     87
4    120    211    118     87
4     36    221    211    206
4     24    108    221    216
4    211    108     17    210
4    210    206    216     41
4    206    108    216    221
4    206    211    108    221
4    206    216    108    210
4    206    108    211    210
4     36    215    221    206
4     42    217    215    214
4    221    217     24    216
4    216    206    214     41
4    206    217    214    215
4    206    221    217    215
4    206    214    217    216
4    206    217    221    216
4     36    211    221    220
4     17    108    211    118
4    221    108     24    114
4    114    220    118     26
4    220    108    118    211
4    220    221    108    211
4    220    118    108    114
4    220    108    221    114
4     36    221    215    220
4     24    217    221    114
4    215    217     42    219
4    219    220    114     26
4    220    217    114    221
4    220    215    217    221
4    220    114    217    219
4    220    217    215    219
4      3    213    182    174
4     42    222    213    215
4    182    222     38    184
4    184    174    215     36
4    174    222    215    213
4    174    182    222    213
4    174    215    222    184
4    174    222    182    184
4      5    223    218    117
4     43    224    223    225
4    218    224     42    219
4    219    117    225     26
4    117    224    225    223
4    117    218    224    223
4    117    225    224    219
4    117    224    218    219
4     38    226    188    189
4     43    227    226    228
4    188    227      8    190
4    190    189    228     39
4    189    227    228    226
4    189    188    227    226
4    189    228    227    190
4    189    227    188    190
4     39    192    229    193
4     36    220    192    177
4    229    220     26    120
4    120    193    177      9
4    193    220    177    192
4    193    229    220    192
4    193    177    220    120
4    193    220    229    120
4     36    230    220    215
4     43    225    230    224
4    220    225     26    219
4    219    215    224     42
4    215    225    224    230
4    215    220    225    230
4    215    224    225    219
4    215    225    220    219
4     36    184    230    215
4     38    226    184    222
4    230    226     43    224
4    224    215    222     42
4    215    226    222    184
4    215    230    226    184
4    215    222    226    224
4    215    226    230    224
4     36    220    230    192
4     26    225    220    229
4    230    225     43    228
4    228    192    229     39
4    192    225    229    220
4    192    230    225    220
4    192    229    225    228
4    192    225    230    228
4     36    230    184    192
4     43    226    230    228
4    184    226     38    189
4    189    192    228     39
4    192    226    228    230
4    192    184    226    230
4    192    228    226    189
4    192    226    184    189
4      5    117    115    231
4     26    116    117    232
4    115    116     25    233
4    233    231    232     44
4    231    116    232    117
4    231    115    116    117
4    231    232    116    233
4    231    116    115    233
4      9    104    120    234
4     23    119    104    235
4    120    119     26    236
4    236    234    235     45
4    234    119    235    104
4    234    120    119    104
4    234    235    119    236
4    234    119    120    236
4     25    111    109    237
4     23    101    111    238
4    109    101      6    239
4    239    237    238     46
4    237    101    238    111
4    237    109    101    111
4    237    238    101    239
4    237    101    109    239
4     46    240    241    242
4     44    243    240    244
4    241    243     45    245
4    245    242    244     14
4    242    243    244    240
4    242    241    243    240
4    242    244    243    245
4    242    243    241    245
4     44    246    243    232
4     23    235    246    119
4    243    235     45    236
4    236    232    119     26
4    232    235    119    246
4    232    243    235    246
4    232    119    235    236
4    232    235    243    236
4     44    233    246    232
4     25    111    233    116
4    246    111     23    119
4    119    232    116     26
4    232    111    116    233
4    232    246    111    233
4    232    116    111    119
4    232    111    246    119
4     44    243    246    240
4     45    235    243    241
4    246    235     23    238
4    238    240    241     46
4    240    235    241    243
4    240    246    235    243
4    240    241    235    238
4    240    235    246    238
4     44    246    233    240
4     23    111    246    238
4    233    111     25    237
4    237    240    238     46
4    240    111    238    246
4    240    233    111    246
4    240    238    111    237
4    240    111    233    237
4      5    115    247    231
4     25    248    115    233
4    247    248     47    249
4    249    231    233     44
4    231    248    233    115
4    231    247    248    115
4    231    233    248    249
4    231    248    247    249
4      6    250    109    239
4     48    251    250    252
4    109    251     25    237
4    237    239    252     46
4    239    251    252    250
4    239    109    251    250
4    239    252    251    237
4    239    251    109    237
4     47    253    254    255
4     48    256    253    257
4    254    256     11    258
4    258    255    257     49
4    255    256    257    253
4    255    254    256    253
4    255    257    256    258
4    255    256    254    258
4     49    259    260    261
4     44    240    259    244
4    260    240     46    242
4    242    261    244     14
4    261    240    244    259
4    261    260    240    259
4    261    244    240    242
4    261    240    260    242
4     44    262    240    233
4     48    252    262    251
4    240    252     46    237
4    237    233    251     25
4    233    252    251    262
4    233    240    252    262
4    233    251    252    237
4    233    252    240    237
4     44    249    262    233
4     47    253    249    248
4    262    253     48    251
4    251    233    248     25
4    233    253    248    249
4    233    262    253    249
4    233    248    253    251
4    233    253    262    251
4     44    240    262    259
4     46    252    240    260
4    262    252     48    257
4    257    259    260     49
4    259    252    260    240
4    259    262    252    240
4    259    260    252    257
4    259    252    262    257
4     44    262    249    259
4     48    253    262    257
4    249    253     47    255
4    255    259    257     49
4    259    253    257    262
4    259    249    253    262
4    259    257    253    255
4    259    253    249    255
4      5    247    263    231
4     47    264    247    249
4    263    264     50    265
4    265    231    249     44
4    231    264    249    247
4    231    263    264    247
4    231    249    264    265
4    231    264    263    265
4     11    266    254    258
4     51    267    266    268
4    254    267     47    255
4    255    258    268     49
4    258    267    268    266
4    258    254    267    266
4    258    268    267    255
4    258    267    254    255
4     50    269    270    271
4     51    272    269    273
4    270    272     10    274
4    274    271    273     52
4    271    272    273    269
4    271    270    272    269
4    271    273    272    274
4    271    272    270    274
4     52    275    276    277
4     44    259    275    244
4    276    259     49    261
4    261    277    244     14
4    277    259    244    275
4    277    276    259    275
4    277    244    259    261
4    277    259    276    261
4     44    278    259    249
4     51    268    278    267
4    259    268     49    255
4    255    249    267     47
4    249    268    267    278
4    249    259    268    278
4    249    267    268    255
4    249    268    259    255
4     44    265    278    249
4     50    269    265    264
4    278    269     51    267
4    267    249    264     47
4    249    269    264    265
4    249    278    269    265
4    249    264    269    267
4    249    269    278    267
4     44    259    278    275
4     49    268    259    276
4    278    268     51    273
4    273    275    276     52
4    275    268    276    259
4    275    278    268    259
4    275    276    268    273
4    275    268    278    273
4     44    278    265    275
4     51    269    278    273
4    265    269     50    271
4    271    275    273     52
4    275    269    273    278
4    275    265    269    278
4    275    273    269    271
4    275    269    265    271
4      6    101    159    239
4     23    160    101    238
4    159    160     33    279
4    279    239    238     46
4    239    160    238    101
4    239    159    160    101
4    239    238    160    279
4    239    160    159    279
4      9    152    104    234
4     32    161    152    280
4    104    161     23    235
4    235    234    280     45
4    234    161    280    152
4    234    104    161    152
4    234    280    161    235
4    234    161    104    235
4     33    157    155    281
4     32    149    157    282
4    155    149      7    283
4    283    281    282     53
4    281    149    282    157
4    281    155    149    157
4    281    282    149    283
4    281    149    155    283
4     53    284    285    286
4     46    241    284    242
4    285    241     45    245
4    245    286    242     14
4    286    241    242    284
4    286    285    241    284
4    286    242    241    245
4    286    241    285    245
4     46    287    241    238
4     32    280    287    161
4    241    280     45    235
4    235    238    161     23
4    238    280    161    287
4    238    241    280    287
4    238    161    280    235
4    238    280    241    235
4     46    279    287    238
4     33    157    279    160
4    287    157     32    161
4    161    238    160     23
4    238    157    160    279
4    238    287    157    279
4    238    160    157    161
4    238    157    287    161
4     46    241    287    284
4     45    280    241    285
4    287    280     32    282
4    282    284    285     53
4    284    280    285    241
4    284    287    280    241
4    284    285    280    282
4    284    280    287    282
4     46    287    279    284
4     32    157    287    282
4    279    157     33    281
4    281    284    282     53
4    284    157    282    287
4    284    279    157    287
4    284    282    157    281
4    284    157    279    281
4      6    159    288    239
4     33    289    159    279
4    288    289     54    290
4    290    239    279     46
4    239    289    279    159
4    239    288    289    159
4    239    279    289    290
4    239    289    288    290
4      7    291    155    283
4     55    292    291    293
4    155    292     33    281
4    281    283    293     53
4    283    292    293    291
4    283    155    292    291
4    283    293    292    281
4    283    292    155    281
4     54    294    295    296
4     55    297    294    298
4    295    297     12    299
4    299    296    298     56
4    296    297    298    294
4    296    295    297    294
4    296    298    297    299
4    296    297    295    299
4     56    300    301    302
4     46    284    300    242
4    301    284     53    286
4    286    302    242     14
4    302    284    242    300
4    302    301    284    300
4    302    242    284    286
4    302    284    301    286
4     46    303    284    279
4     55    293    303    292
4    284    293     53    281
4    281    279    292     33
4    279    293    292    303
4    279    284    293    303
4    279    292    293    281
4    279    293    284    281
4     46    290    303    279
4     54    294    290    289
4    303    294     55    292
4    292    279    289     33
4    279    294    289    290
4    279    303    294    290
4    279    289    294    292
4    279    294    303    292
4     46    284    303    300
4     53    293    284    301
4    303    293     55    298
4    298    300    301     56
4    300    293    301    284
4    300    303    293    284
4    300    301    293    298
4    300    293    303    298
4     46    303    290    300
4     55    294    303    298
4    290    294     54    296
4    296    300    298     56
4    300    294    298    303
4    300    290    294    303
4    300    298    294    296
4    300    294    290    296
4      6    288    250    239
4     54    304    288    290
4    250    304     48    252
4    252    239    290     46
4    239    304    290    288
4    239    250    304    288
4    239    290    304    252
4    239    304    250    252
4     12    305    295    299
4     57    306    305    307
4    295    306     54    296
4    296    299    307     56
4    299    306    307    305
4    299    295    306    305
4    299    307    306    296
4    299    306    295    296
4     48    308    256    257
4     57    309    308    310
4    256    309     11    258
4    258    257    310     49
4    257    309    310    308
4    257    256    309    308
4    257    310    309    258
4    257    309    256    258
4     49    260    311    261
4     46    300    260    242
4    311    300     56    302
4    302    261    242     14
4    261    300    242    260
4    261    311    300    260
4    261    242    300    302
4    261    300    311    302
4     46    312    300    290
4     57    307    312    306
4    300    307     56    296
4    296    290    306     54
4    290    307    306    312
4    290    300    307    312
4    290    306    307    296
4    290    307    300    296
4     46    252    312    290
4     48    308    252    304
4    312    308     57    306
4    306    290    304     54
4    290    308    304    252
4    290    312    308    252
4    290    304    308    306
4    290    308    312    306
4     46    300    312    260
4     56    307    300    311
4    312    307     57    310
4    310    260    311     49
4    260    307    311    300
4    260    312    307    300
4    260    311    307    310
4    260    307    312    310
4     46    312    252    260
4     57    308    312    310
4    252    308     48    257
4    257    260    310     49
4    260    308    310    312
4    260    252    308    312
4    260    310    308    257
4    260    308    252    257
4      7    149    200    283
4     32    201    149    282
4    200    201     40    313
4    313    283    282     53
4    283    201    282    149
4    283    200    201    149
4    283    282    201    313
4    283    201    200    313
4      9    193    152    234
4     39    202    193    314
4    152    202     32    280
4    280    234    314     45
4    234    202    314    193
4    234    152    202    193
4    234    314    202    280
4    234    202    152    280
4     40    198    196    315
4     39    190    198    316
4    196    190      8    317
4    317    315    316     58
4    315    190    316    198
4    315    196    190    198
4    315    316    190    317
4    315    190    196    317
4     58    318    319    320
4     53    285    318    286
4    319    285     45    245
4    245    320    286     14
4    320    285    286    318
4    320    319    285    318
4    320    286    285    245
4    320    285    319    245
4     53    321    285    282
4     39    314    321    202
4    285    314     45    280
4    280    282    202     32
4    282    314    202    321
4    282    285    314    321
4    282    202    314    280
4    282    314    285    280
4     53    313    321    282
4     40    198    313    201
4    321    198     39    202
4    202    282    201     32
4    282    198    201    313
4    282    321    198    313
4    282    201    198    202
4    282    198    321    202
4     53    285    321    318
4     45    314    285    319
4    321    314     39    316
4    316    318    319     58
4    318    314    319    285
4    318    321    314    285
4    318    319    314    316
4    318    314    321    316
4     53    321    313    318
4     39    198    321    316
4    313    198     40    315
4    315    318    316     58
4    318    198    316    321
4    318    313    198    321
4    318    316    198    315
4    318    198    313    315
4      7    200    322    283
4     40    323    200    313
4    322    323     59    324
4    324    283    313     53
4    283    323    313    200
4    283    322    323    200
4    283    313    323    324
4    283    323    322    324
4      8    325    196    317
4     60    326    325    327
4    196    326     40    315
4    315    317    327     58
4    317    326    327    325
4    317    196    326    325
4    317    327    326    315
4    317    326    196    315
4     59    328    329    330
4     60    331    328    332
4    329    331     13    333
4    333    330    332     61
4    330    331    332    328
4    330    329    331    328
4    330    332    331    333
4    330    331    329    333
4     61    334    335    336
4     53    318    334    286
4    335    318     58    320
4    320    336    286     14
4    336    318    286    334
4    336    335    318    334
4    336    286    318    320
4    336    318    335    320
4     53    337    318    313
4     60    327    337    326
4    318    327     58    315
4    315    313    326     40
4    313    327    326    337
4    313    318    327    337
4    313    326    327    315
4    313    327    318    315
4     53    324    337    313
4     59    328    324    323
4    337    328     60    326
4    326    313    323     40
4    313    328    323    324
4    313    337    328    324
4    313    323    328    326
4    313    328    337    326
4     53    318    337    334
4     58    327    318    335
4    337    327     60    332
4    332    334    335     61
4    334    327    335    318
4    334    337    327    318
4    334    335    327    332
4    334    327    337    332
4     53    337    324    334
4     60    328    337    332
4    324    328     59    330
4    330    334    332     61
4    334    328    332    337
4    334    324    328    337
4    334    332    328    330
4    334    328    324    330
4      7    322    291    283
4     59    338    322    324
4    291    338     55    293
4    293    283    324     53
4    283    338    324    322
4    283    291    338    322
4    283    324    338    293
4    283    338    291    293
4     13    339    329    333
4     62    340    339    341
4    329    340     59    330
4    330    333    341     61
4    333    340    341    339
4    333    329    340    339
4    333    341    340    330
4    333    340    329    330
4     55    342    297    298
4     62    343    342    344
4    297    343     12    299
4    299    298    344     56
4    298    343    344    342
4    298    297    343    342
4    298    344    343    299
4    298    343    297    299
4     56    301    345    302
4     53    334    301    286
4    345    334     61    336
4    336    302    286     14
4    302    334    286    301
4    302    345    334    301
4    302    286    334    336
4    302    334    345    336
4     53    346    334    324
4     62    341    346    340
4    334    341     61    330
4    330    324    340     59
4    324    341    340    346
4    324    334    341    346
4    324    340    341    330
4    324    341    334    330
4     53    293    346    324
4     55    342    293    338
4    346    342     62    340
4    340    324    338     59
4    324    342    338    293
4    324    346    342    293
4    324    338    342    340
4    324    342    346    340
4     53    334    346    301
4     61    341    334    345
4    346    341     62    344
4    344    301    345     56
4    301    341    345    334
4    301    346    341    334
4    301    345    341    344
4    301    341    346    344
4     53    346    293    301
4     62    342    346    344
4    293    342     55    298
4    298    301    344     56
4    301    342    344    346
4    301    293    342    346
4    301    344    342    298
4    301    342    293    298
4      8    190    227    317
4     39    228    190    316
4    227    228     43    347
4    347    317    316     58
4    317    228    316    190
4    317    227    228    190
4    317    316    228    347
4    317    228    227    347
4      9    120    193    234
4     26    229    120    236
4    193    229     39    314
4    314    234    236     45
4    234    229    236    120
4    234    193    229    120
4    234    236    229    314
4    234    229    193    314
4     43    225    223    348
4     26    117    225    232
4    223    117      5    231
4    231    348    232     44
4    348    117    232    225
4    348    223    117    225
4    348    232    117    231
4    348    117    223    231
4     44    349    243    244
4     58    319    349    320
4    243    319     45    245
4    245    244    320     14
4    244    319    320    349
4    244    243    319    349
4    244    320    319    245
4    244    319    243    245
4     58    350    319    316
4     26    236    350    229
4    319    236     45    314
4    314    316    229     39
4    316    236    229    350
4    316    319    236    350
4    316    229    236    314
4    316    236    319    314
4     58    347    350    316
4     43    225    347    228
4    350    225     26    229
4    229    316    228     39
4    316    225    228    347
4    316    350    225    347
4    316    228    225    229
4    316    225    350    229
4     58    319    350    349
4     45    236    319    243
4    350    236     26    232
4    232    349    243     44
4    349    236    243    319
4    349    350    236    319
4    349    243    236    232
4    349    236    350    232
4     58    350    347    349
4     26    225    350    232
4    347    225     43    348
4    348    349    232     44
4    349    225    232    350
4    349    347    225    350
4    349    232    225    348
4    349    225    347    348
4      8    227    351    317
4     43    352    227    347
4    351    352     63    353
4    353    317    347     58
4    317    352    347    227
4    317    351    352    227
4    317    347    352    353
4    317    352    351    353
4      5    263    223    231
4     50    354    263    265
4    223    354     43    348
4    348    231    265     44
4    231    354    265    263
4    231    223    354    263
4    231    265    354    348
4    231    354    223    348
4     63    355    356    357
4     50    270    355    271
4    356    270     10    274
4    274    357    271     52
4    357    270    271    355
4    357    356    270    355
4    357    271    270    274
4    357    270    356    274
4     52    358    275    277
4     58    349    358    320
4    275    349     44    244
4    244    277    320     14
4    277    349    320    358
4    277    275    349    358
4    277    320    349    244
4    277    349    275    244
4     58    359    349    347
4     50    265    359    354
4    349    265     44    348
4    348    347    354     43
4    347    265    354    359
4    347    349    265    359
4    347    354    265    348
4    347    265    349    348
4     58    353    359    347
4     63    355    353    352
4    359    355     50    354
4    354    347    352     43
4    347    355    352    353
4    347    359    355    353
4    347    352    355    354
4    347    355    359    354
4     58    349    359    358
4     44    265    349    275
4    359    265     50    271
4    271    358    275     52
4    358    265    275    349
4    358    359    265    349
4    358    275    265    271
4    358    265    359    271
4     58    359    353    358
4     50    355    359    271
4    353    355     63    357
4    357    358    271     52
4    358    355    271    359
4    358    353    355    359
4    358    271    355    357
4    358    355    353    357
4      8    351    325    317
4     63    360    351    353
4    325    360     60    327
4    327    317    353     58
4    317    360    353    351
4    317    325    360    351
4    317    353    360    327
4    317    360    325    327
4     10    361    356    274
4     64    362    361    363
4    356    362     63    357
4    357    274    363     52
4    274    362    363    361
4    274    356    362    361
4    274    363    362    357
4    274    362    356    357
4     60    364    331    332
4     64    365    364    366
4    331    365     13    333
4    333    332    366     61
4    332    365    366    364
4    332    331    365    364
4    332    366    365    333
4    332    365    331    333
4     61    335    367    336
4     58    358    335    320
4    367    358     52    277
4    277    336    320     14
4    336    358    320    335
4    336    367    358    335
4    336    320    358    277
4    336    358    367    277
4     58    368    358    353
4     64    363    368    362
4    358    363     52    357
4    357    353    362     63
4    353    363    362    368
4    353    358    363    368
4    353    362    363    357
4    353    363    358    357
4     58    327    368    353
4     60    364    327    360
4    368    364     64    362
4    362    353    360     63
4    353    364    360    327
4    353    368    364    327
4    353    360    364    362
4    353    364    368    362
4     58    358    368    335
4     52    363    358    367
4    368    363     64    366
4    366    335    367     61
4    335    363    367    358
4    335    368    363    358
4    335    367    363    366
4    335    363    368    366
4     58    368    327    335
4     64    364    368    366
4    327    364     60    332
4    332    335    366     61
4    335    364    366    368
4    335    327    364    368
4    335    366    364    332
4    335    364    327    332

CELL_TYPES 1536
10
10
10
10
10
10
10
10
10
10
10
10
10
10
10
10
10
10
10
10
10
10
10
10
10
10
10
10
10
10
10
10
10
10
10
10
10
10
10
10
10
10
10
10
10
10
10
10
10
10
10
10
10
10
10
10
10
10
10
10
10
10
10
10
10
10
10
10
10
10
10
10
10
10
10
10
10
10
10
10
10
10
10
10
10
10
10
10
10
10
10
10
10
10
10
10
10
10
10
10
10
10
10
10
10
10
10
10
10
10
10
10
10
10
10
10
10
10
10
10
10
10
10
10
10
10
10
10
10
10
10
10
10
10
10
10
10
10
10
10
10
10
10
10
10
10
10
10
10
10
10
10
10
10
10
10
10
10
10
10
10
10
10
10
10
10
10
10
10
10
10
10
10
10
10
10
10
10
10
10
10
10
10
10
10
10
10
10
10
10
10
10
10
10
10
10
10
10
10
10
10
10
10
10
10
10
10
10
10
10
10
10
10
10
10
10
10
10
10
10
10
10
10
10
10
10
10
10
10
10
10
10
10
10
10
10
10
10
10
10
10
10
10
10
10
10
10
10
10
10
10
10
10
10
10
10
10
10
10
10
10
10
10
10
10
10
10
10
10
10
10
10
10
10
10
10
10
10
10
10
10
10
10
10
10
10
10
10
10
10
10
10
10
10
10
10
10
10
10
10
10
10
10
10
10
10
10
10
10
10
10
10
10
10
10
10
10
10
10
10
10
10
10
10
10
10
10
10
10
10
10
10
10
10
10
10
10
10
10
10
10
10
10
10
10
10
10
10
10
10
10
10
10
10
10
10
10
10
10
10
10
10
10
10
10
10
10
10
10
10
10
10
10
10
10
10
10
10
10
10
10
10
10
10
10
10
10
10
10
10
10
10
10
10
10
10
10
10
10
10
10
10
10
10
10
10
10
10
10
10
10
10
10
10
10
10
10
10
10
10
10
10
10
10
10
10
10
10
10
10
10
10
10
10
10
10
10
10
10
10
10
10
10
10
10
10
10
10
10
10
10
10
10
10
10
10
10
10
10
10
10
10
10
10
10
10
10
10
10
10
10
10
10
10
10
10
10
10
10
10
10
10
10
10
10
10
10
10
10
10
10
10
10
10
10
10
10
10
10
10
10
10
10
10
10
10
10
10
10
10
10
10
10
10
10
10
10
10
10
10
10
10
10
10
10
10
10
10
10
10
10
10
10
10
10
10
10
10
10
10
10
10
10
10
10
10
10
10
10
10
10
10
10
10
10
10
10
10
10
10
10
10
10
10
10
10
10
10
10
10
10
10
10
10
10
10
10
10
10
10
10
10
10
10
10
10
10
10
10
10
10
10
10
10
10
10
10
10
10
10
10
10
10
10
10
10
10
10
10
10
10
10
10
10
10
10
10
10
10
10
10
10
10
10
10
10
10
10
10
10
10
10
10
10
10
10
10
10
10
10
10
10
10
10
10
10
10
10
10
10
10
10
10
10
10
10
10
10
10
10
10
10
10
10
10
10
10
10
10
10
10
10
10
10
10
10
10
10
10
10
10
10
10
10
10
10
10
10
10
10
10
10
10
10
10
10
10
10
10
10
10
10
10
10
10
10
10
10
10
10
10
10
10
10
10
10
10
10
10
10
10
10
10
10
10
10
10
10
10
10
10
10
10
10
10
10
10
10
10
10
10
10
10
10
10
10
10
10
10
10
10
10
10
10
10
10
10
10
10
10
10
10
10
10
10
10
10
10
10
10
10
10
10
10
10
10
10
10
10
10
10
10
10
10
10
10
10
10
10
10
10
10
10
10
10
10
10
10
10
10
10
10
10
10
10
10
10
10
10
10
10
10
10
10
10
10
10
10
10
10
10
10
10
10
10
10
10
10
10
10
10
10
10
10
10
10
10
10
10
10
10
10
10
10
10
10
10
10
10
10
10
10
10
10
10
10
10
10
10
10
10
10
10
10
10
10
10
10
10
10
10
10
10
10
10
10
10
10
10
10
10
10
10
10
10
10
10
10
10
10
10
10
10
10
10
10
10
10
10
10
10
10
10
10
10
10
10
10
10
10
10
10
10
10
10
10
10
10
10
10
10
10
10
10
10
10
10
10
10
10
10
10
10
10
10
10
10
10
10
10
10
10
10
10
10
10
10
10
10
10
10
10
10
10
10
10
10
10
10
10
10
10
10
10
10
10
10
10
10
10
10
10
10
10
10
10
10
10
10
10
10
10
10
10
10
10
10
10
10
10
10
10
10
10
10
10
10
10
10
10
10
10
10
10
10
10
10
10
10
10
10
10
10
10
10
10
10
10
10
10
10
10
10
10
10
10
10
10
10
10
10
10
10
10
10
10
10
10
10
10
10
10
10
10
10
10
10
10
10
10
10
10
10
10
10
10
10
10
10
10
10
10
10
10
10
10
10
10
10
10
10
10
10
10
10
10
10
10
10
10
10
10
10
10
10
10
10
10
10
10
10
10
10
10
10
10
10
10
10
10
10
10
10
10
10
10
10
10
10
10
10
10
10
10
10
10
10
10
10
10
10
10
10
10
10
10
10
10
10
10
10
10
10
10
10
10
10
10
10
10
10
10
10
10
10
10
10
10
10
10
10
10
10
10
10
10
10
10
10
10
10
10
10
10
10
10
10
10
10
10
10
10
10
10
10
10
10
10
10
10
10
10
10
10
10
10
10
10
10
10
10
10
10
10
10
10
10
10
10
10
10
10
10
10
10
10
10
10
10
10
10
10
10
10
10
10
10
10
10
10
10
10
10
10
10
10
10
10
10
10
10
10
10
10
10
10
10
10
10
10
10
10
10
10
10
10
10
10
10
10
10
10
10
10
10
10
10
10
10
10
10
10
10
10
10
10
10
10
10
10
10
10
10
10
10
10
10
10
10
10
10
10
10
10
10
10
10
10
10
10
10
10
10
10
10
10
10
10
10
10
10
10
10
10
10
10
10
10
10
10
10
10
10
10
10
10
10
10
10
10
10
10
10
10
10
10
10
10
10
10
10
10
10
10
10
10
10
10
10
10
10
10
10
10
10
10
10
10
10
10
10
10
10
10
10
10
10
10
10
10
10
10
10
10
10
10
10
10
10
10
10
10
10
10
10
10
10
10
10
10
10
10
10
10
10
10
10
10
10
10
10
10
10
10
10
10
10
10
10
10
10
10
10
10
10
10
10
10
10
10
10
10
10
10
10
10
10
10
10
10
10
10
10
10
10
10
10
10
10
10
10
10
10
10
10
10
10
10
10
10
10
10
10
10
10
10
10
10
10
10
10
10
10
10
10
10
10
10
10
10
10
10
10
10
10
10
10
10
10
10
10
10
10
10
10
10
10
10
10
10
10
10
10
10
10
10
10
10
10
10
10
10
10
10
10
10
10
10
10
10
10
10
10
10
10
10
10
10
10
10
10
10
10
10
10
10
10
10
10
10
10
10
10
10
10
10
10
10
10
10
10
10
10
10
10
10

