# vtk DataFile Version 2.0
cylinder_, Created by Gmsh 4.10.5 
ASCII
DATASET UNSTRUCTURED_GRID
POINTS 562 double
-1.00055587 -0.06615357099999999 0.0199534409
-1.00006771 -0.0260027256 -0.49999851
-0.998948455 -0.0065433532 0.339356601
-0.998510182 0.0223125368 -0.315294892
-0.996692266494436 0.03814007343854051 -0.1582164989299211
-0.995446205 -0.0772992074 0.500065207
-0.9947875128462954 0.07565499337507225 0.1666231154534228
-0.988444870885226 -0.1524234230315331 0.1957772771652126
-0.989265084 -0.145988747 -0.159621179
-0.988559365 0.138037577 0.500029743
-0.987219632 0.150251985 0.00321911694
-0.985010922 0.168266684 -0.500029743
-0.980383992 -0.196398914 -0.499983311
-0.9773398639999999 0.204299167 -0.183699355
-0.975914478 0.217806324 0.330137372
-0.975804448 -0.216045454 -0.34059003
-0.9696500300000001 -0.23966451 0.350204498
-0.967756867 0.242230833 -0.35160318
-0.966339231 -0.255204111 0.49995625
-0.958986044 -0.262873381 0.0157335065
-0.954766095 0.282181472 0.151370466
-0.937755585 -0.341831625 -0.168928355
-0.937658548 0.341398686 -0.0486716889
-0.9370921250000001 -0.348809272 -0.50008297
-0.928559184 0.363140404 0.499966204
-0.920361459 0.391610742 -0.499997854
-0.916077614 -0.400598973 0.185520515
-0.915948846219285 0.3982780979478442 -0.2490169955434483
-0.901306689 -0.433075309 0.499951184
-0.899744332 -0.432277262 -0.334570676
-0.893823981 0.444286376 0.097305797
-0.890814662 0.45305866 0.302168757
-0.890277624 -0.450154573 -0.00706524169
-0.8660215810445857 0.4905924124902801 -0.3779439014621501
-0.05354755646775563 -0.06388487637614954 0.5
-0.849737287 -0.526949346 -0.500003695
-0.8425636143315809 -0.5348403619888005 -0.1859166084118602
-0.842385232 0.533212602 -0.0735502318
-0.837758124 0.544660747 0.500047386
-0.833162367 -0.550379872 0.134215176
-0.8218779019636057 -0.5663368906916404 0.3181730135140612
-0.812523067 0.5806913379999999 -0.271713138
-0.80682981 0.588519573 0.143311784
-0.805958986 0.58806622 -0.499907553
-0.797565401 -0.602643251 0.500000715
-0.783991277 -0.617248833 -0.335610747
-0.779059827 -0.623130023 -0.0119396094
-0.7662181274533232 0.6445308179336807 0.3259184862150844
-0.7284993485880731 0.6803182194601956 0.005321788373644852
-0.721599042 -0.688786209 0.168864727
-0.716581762 -0.696612239 -0.500015974
-0.71552366 0.69235152 -0.147799283
-0.713684261 0.702201605 0.499895275
-0.709863663 -0.69840306 -0.169889078
-0.697260916 0.7145172359999999 -0.339136332
-0.679240704 -0.73375535 0.500003874
-0.664433658 0.744406521 0.16139403
-0.663268983 -0.747401536 0.34824267
-0.662126184 0.748796225 -0.500004411
-0.639813304 -0.765142739 0.0044055474
-0.6333470375450233 -0.7714113052611493 -0.3248856103010646
-0.5982378550231338 0.7925999781435572 0.3447331794069158
-0.596566975 0.801166177 -0.207449183
-0.5710327630000001 -0.818232596 0.182174996
-0.568637192 0.82597822 -0.020541355
-0.553125143 -0.832330108 -0.500014067
-0.548603475 -0.834482849 -0.158323467
-0.5393922920000001 0.841354668 0.500104189
-0.532408595 -0.845854759 0.500047445
-0.5198220609999999 0.852342784 -0.359960407
-0.5065285805098704 0.8616490741493453 -0.4999827322702812
-0.496565014 0.868878841 0.162159711
-0.474509597 -0.87905091 0.0190880112
-0.46093899 -0.885522842 0.34230125
-0.4442718619989328 0.8913567418560693 -0.1562843300489092
-0.446956992 -0.893224657 -0.321687371
-0.422557712 0.908226311 0.334697604
-0.4044410960504343 -0.9104984501297717 0.1801434001928896
-0.385907024 0.920142949 0.000274968217
-0.360736728 -0.932538271 -0.50001514
-0.359075785 -0.932437003 -0.133119628
-0.352706492 0.9339435699999999 -0.313476652
-0.338196397 0.9415608640000001 0.49993068
-0.330283999 -0.943090737 0.500073195
-0.326542407 0.945061088 -0.500002623
-0.305522084 0.9497080449999999 0.17063652
-0.2875781695232046 -0.9581472613610991 0.06428860044811545
-0.270601213 0.960398138 -0.159895942
-0.236611068 -0.971232057 0.300556391
-0.2306212475101074 -0.9734547451612655 -0.2922384221507163
-0.215144575 0.970221519 0.33798036
-0.190981999 0.980278075 0.00576853752
-0.173599556 0.982578099 -0.335653365
-0.16288051 -0.985120118 -0.0802744105
-0.159103766 -0.982953548 -0.499881595
-0.116390385 -0.993129849 0.50000298
-0.11526268 0.993262172 0.499974132
-0.101474203 0.9925652149999999 0.174384698
-0.0935223624 -0.992099106 0.130277157
-0.0841775686 0.996096671 -0.50001663
-0.0765912831 0.995348871 -0.166059613
-0.04013139109801878 -0.9966066290011921 -0.3622672002386019
-0.0175043102 -0.997835159 -0.20870842
-0.00226964891332615 -0.9979581127341545 0.3051676992298696
0.00167631253 0.99831295 0.339310646
0.00750148669 0.994161606 0.00667947158
0.041070655 -0.998643816 -0.0234952848
0.0461222492 0.996754348 -0.334187388
0.06875104460000001 -0.996113896 -0.49997142
0.104738519 0.993668556 0.177598074
0.106771976 0.994031549 0.499991834
0.113566004 -0.993152976 0.499993265
0.120341644 -0.991510153 0.161748588
0.1244737070801738 0.9905231783240296 -0.1475797727892311
0.148423001 0.98837018 -0.500032723
0.149034888 -0.988346279 -0.343159854
0.18180947 -0.978448093 -0.171168759
0.197494075 0.978244364 0.0144383712
0.225153908 0.973645091 0.338665843
0.226141453 -0.974510193 0.33409217
0.2374695303960076 -0.9696997755155978 0.007086287222196027
0.280592412 -0.957718074 -0.499996006
0.288567275 0.956047237 -0.135306716
0.289719999 0.956251323 -0.318588823
0.302724421 0.9517864579999999 0.171960622
0.330057591 -0.941577971 0.173599064
0.335576952 -0.941568136 0.5000095369999999
0.337201059 0.9410275219999999 0.500020206
0.347282082 -0.934872746 -0.130872369
0.352148354 -0.935867786 -0.316268772
0.362313569 0.931606531 -0.500058413
0.378529698 0.922893643 -0.00128427951
0.4319928924503823 -0.8964232872073306 0.3382550328991892
0.4381225114638794 -0.8966717086165544 0.008800486492838294
0.4422371556800955 0.8914820128244508 -0.1869564072918858
0.451201767 0.89072144 0.31713298
0.4576676885197239 0.8841167399785431 0.1456724029842294
0.490774989 -0.87100774 -0.500005841
0.503448248 0.8623598810000001 -0.345948279
0.510056615 -0.859277129 -0.165315896
0.521430612 -0.852559268 0.171934694
0.531010687 -0.84740299 0.499984145
0.531814516 0.847175121 -0.500006855
0.538424492 0.842154324 0.500041544
0.549554586 0.834160566 -0.0161624271
0.5881047238451518 -0.8093728817018814 -0.3397120695547025
0.6001835684423216 -0.7987715289039103 -0.002590922754337099
0.6061900991889617 -0.7914212686287447 0.3171647182527229
0.607987881 0.793393731 0.160220891
0.6230518819999999 0.781503558 -0.177429333
0.644610763 0.762533605 0.331505626
0.65179801 0.757496834 -0.500045061
0.6785675880000001 -0.73133707 -0.170929879
0.678983092 -0.733625352 -0.499988198
0.683879435 -0.727329612 0.164368346
0.691243589 0.72170943 -0.335333228
0.698185384 -0.716358542 0.499981821
0.707839847 0.705618799 -0.00453060307
0.708790004 0.704789817 0.500030756
0.751778603 -0.6538701649999999 -0.337124914
0.754284441 -0.6530261040000001 -0.00512391469
0.7559179660000001 -0.653290391 0.329128921
0.758018911 0.646369874 0.167420149
0.777654886 0.624488175 -0.166983962
0.785630763 0.617644846 -0.500010014
0.789568901 0.610443413 0.337046713
0.815869272 -0.577454805 0.5000050069999999
0.819086623756019 -0.5686103726013986 0.1527577534785962
0.8174809087712476 -0.5726810716085475 -0.1826900116937087
0.8301836849999999 -0.556541264 -0.500009477
0.835588336 0.548495471 0.500027657
0.839012325 0.539866447 -0.332420886
0.8507634372320657 0.5287179431583087 0.01721126783333524
0.8673563 -0.490746975 0.328211844
0.875217378 -0.482484043 -0.00539089693
0.877664506 -0.47285533 -0.335983336
0.882888973 0.459917933 0.367121398
0.8847476051125195 0.4676622928238516 0.1982041475538218
0.898276985 0.43996495 -0.161628008
0.902250588 0.429674506 -0.499959767
0.906910539 -0.421369284 0.499969661
0.917426109 -0.393212646 0.161878765
0.921366096 -0.382521302 -0.169826165
0.93068862 0.365621418 0.499937832
0.93277818 -0.361798853 -0.500015616
0.933496356 0.342517734 0.0129499072
0.938693643 0.349831402 -0.331534445
0.9488722846654126 -0.3133437020097416 0.3395233506148604
0.952181697 0.298948586 0.336153418
0.9546959554233272 -0.2734667908949953 -0.3451894938893587
0.9554938079999999 -0.28838107 -0.00271124369
0.96810472 0.242731303 -0.160872877
0.9694883126845317 0.2334012179646152 0.169086023675963
0.972947121 -0.23010473 0.499969661
0.974748135 0.226982206 -0.499965727
0.978953898 -0.195056409 0.164784372
0.981833339 -0.179559901 -0.166178152
0.982651234 0.178168535 0.499921024
0.985732555 0.138693437 -0.329262257
0.987782598 -0.158328593 -0.499919116
0.9892672300000001 0.133793876 0.00488031097
0.9905902788664745 0.09883773695444563 0.341465035699798
0.992344141 -0.107828647 0.332652003
0.995257974 -0.0805277303 0.000749600062
0.9955399957686505 -0.07416985152901084 -0.3362817748795081
0.998565316 -0.0215167031 0.499843776
0.99858886 0.0160534903 0.167291865
0.998752356 0.031811025 -0.163161546
0.999577999 0.0346255116 -0.500015616
-0.6683927548391696 0.1924778444448846 0.2212843135989689
-0.5229716636541444 -0.04401620066538039 0.3096095469989703
-0.02624662926369604 -0.2348199626624131 -0.5
0.5494707020687438 0.04050657749030805 0.2416495454108739
-0.5525659762305387 0.04686069486339362 0.1144862293142092
-0.04254501437571855 -0.0561903298804293 0.006831573796026876
-0.07557737174385222 0.2414440932556175 0.2459996313763824
0.2318906504442919 0.5444585449364805 -0.1678624853971426
-0.164049982328794 -0.3441581351660141 -0.3167794113044342
-0.463044494368277 0.1366306738178255 0.2795672021370489
-0.8536064145928453 -0.08870806180940999 0.127470678274503
-0.8591842697441308 0.02565219920647267 -0.09105837155001575
0.640459862638376 -0.2078493199004143 0.1449108638239247
-0.8620888538416727 0.1090303306498168 0.0644755133843231
-0.8410900627281345 0.1563013879437825 0.2997653269802668
-0.7243694954068225 -0.3901750597024663 -0.1346138214394267
-0.7083464813667686 -0.4711519369858927 0.05347396999604499
-0.7185028286786148 -0.4031894878104 0.2384177394474984
-0.7356454825744707 -0.3530246847515037 -0.3298549350404333
-0.7210068830254978 -0.2482093058094394 0.01896267999411891
-0.8334946584950348 -0.1274058999661996 -0.3646708935665903
-0.6975218514951399 -0.1410245658506425 0.259696995049591
-0.7082100480185606 -0.04637149195620495 0.005486068954419337
-0.8172576413377728 0.1342755711249263 -0.3166411821064496
-0.7476788356057362 0.1627223877242317 -0.1013517062956438
-0.7076968399348148 0.1102368124213263 0.08850112449541721
-0.7288244981741026 0.2733689568445641 0.01534886954932346
0.725162498326634 0.3852592954281249 -0.0382024884051888
-0.6778556013165872 0.3665146980037407 -0.2132233030790507
-0.7252340799328956 0.4416720947190833 0.04276949898481826
-0.6972469272231566 0.4458383116383294 0.2231617037261876
0.4022257735979334 0.3624981616856988 -0.3614414553097929
-0.6118881385043414 -0.5732293189872212 -0.2995472186442076
-0.5883759663569228 -0.6141456268924845 -0.1030302394322361
-0.5364106705951713 -0.5469223501910946 0.0891484858282557
-0.5603908886640182 -0.4501785595298355 -0.07763528699964077
-0.5521647840912456 -0.2090050859749303 -0.08940033902440725
-0.4961900011476569 -0.3222385915860275 0.3268756484284158
-0.6689516058172164 -0.1070355418290897 -0.2506115289751745
-0.5385118971065033 -0.1153247964871887 0.0779198955930029
-0.5773733403544485 0.001337661916513438 -0.09618048302296883
-0.5457252567067833 0.1377868374159256 -0.312200819914447
-0.5680463583376324 0.1846460483134692 -0.08219591616114545
-0.5440757654585542 0.2826510061512828 0.07821237382280469
-0.6015319124062494 0.290144349542892 0.3485377114644885
-0.6044188562758298 0.5629825810380096 -0.337293697857138
-0.6138443964189328 0.5339584358185777 -0.09970639602328651
-0.5629945595262353 0.6088873661410595 0.05732520595808595
-0.4538394209983612 -0.7336324222609028 -0.3083296785118039
-0.4573851959428756 -0.7301373653700346 -0.07468684451510407
-0.432056152467539 -0.7085665332100619 0.136232797204885
-0.4314364707866403 -0.5857176419083364 -0.2383580519253864
-0.4070260100191206 -0.5598610628743146 -0.06575418996089107
-0.4401611185575724 -0.5367286089477658 0.3150112844335792
-0.4680422919047821 -0.3696461269624562 -0.2586269033833966
-0.4684542016874515 -0.3253091937545057 0.08889845663318188
-0.3662777127897739 -0.1693144039867507 -0.2048613872494888
-0.366851090751495 0.02945095406540667 -0.05907661800852422
-0.390558467282811 0.2610150705393809 -0.2517724241483392
-0.4580807519137948 0.4200047698203466 -0.3564121481911206
-0.4797090695863521 0.4995732395351008 -0.2143669071025465
-0.3935439882952887 0.3852423374444883 -0.06802310901490793
-0.4445798632408002 0.5720803266734399 0.2249376244900021
-0.4496613659552926 0.6993317126064529 -0.3850108036653039
-0.4249614359421511 0.6946642477852153 -0.2474838445966349
-0.4149335869901089 0.7361154389229939 -0.05030842994081645
-0.4390067919864787 0.746589760433517 0.3663735971268259
-0.2846264070583908 -0.7554774089178734 -0.2419996831102267
-0.2770469927331144 -0.7361051415575661 -0.02924474353411405
-0.2584385564649024 -0.76045058747831 0.2835478727921379
-0.3032724230453027 -0.4679814049079007 -0.1652832853285047
-0.2914833453727146 -0.5241520093299473 0.04037253234848195
-0.2905608802275438 -0.4560920124352369 0.2348442807722155
-0.2746220344916278 -0.2766981290020362 0.04236954299091134
-0.2884296134200079 -0.2435098082082523 0.2979524954372826
-0.2768527800318122 -0.005162446710206174 -0.3351043444748365
-0.2855910485095527 -0.02784726187313393 0.1906909078865467
-0.3108049981860059 0.1970174828755239 0.3197219432444934
-0.2710864133617903 0.4692061141505561 -0.3608300202239897
-0.2821364865070091 0.4493852309152211 0.189037096557483
-0.29909811458268 0.5865673651472919 -0.2198291980248743
-0.2818811506848884 0.6035584755689665 -0.07037241577700791
-0.2794924927234417 0.7549822110946199 0.04422282031128993
-0.3032110333089251 0.7593855207963948 0.2056142469108502
-0.2749975418340636 0.7647902775943638 0.3478961975760588
-0.2967738001874756 0.8063689105329216 -0.3354829021031265
-0.3049923742659593 0.7994175789837727 -0.2052479105687184
-0.267964675560206 0.8158761777431571 -0.09619361855114097
-0.1437320572447211 -0.8270471895023891 -0.3125551004108121
-0.138307172030903 -0.6145702192292488 -0.2210875205390261
-0.1312633740482571 -0.6009286963820177 0.1765471784617876
-0.1434210552942958 -0.4158852336594018 -0.07729285372887704
-0.1783142608325722 -0.1565029698601511 -0.06210797961911718
-0.2159019692263736 0.174864540908021 0.03576345705221112
-0.1963918347289481 0.25190531739306 -0.2393171758579752
-0.1378852687349927 0.3865111231302484 -0.08051316885861445
-0.1120483793577994 0.437120585348561 0.1506301050273544
-0.1349476661686813 0.5214104186861017 -0.2583916444619359
-0.1523574356472076 0.5501157501107875 -0.02404735056534205
-0.1995575505176058 0.5665333463845974 0.3330325495432628
-0.1354832481564302 0.6603965473280253 -0.3733068743429894
-0.1540536917516658 0.6829014682376943 -0.2386683347704544
-0.1325540151462809 0.6894120345947677 -0.09100706402695317
-0.1253463677951375 0.647832324960806 0.07564456810389697
-0.1455582215117426 0.6847671164426947 0.2067829657527246
-0.1326572970512066 0.8375592145574677 -0.2834541222517831
-0.1191970761258091 0.8564388176878527 -0.1040042273552839
-0.1343712761052551 0.8294636629308718 0.05751477553111287
-0.1622234595296963 0.8377110421336355 0.2130359549201811
-0.005824981729909768 -0.8188746866895541 -0.0318295929250968
-0.008500091947801996 -0.8221580593153393 0.3129701693246121
0.03008317778949748 -0.7827896126578126 -0.3393256977214892
0.03988506959392134 -0.5952675967961617 -0.2383075812961958
0.008686285157516621 -0.556280705585277 0.03362752367779279
-0.02470860376836361 -0.4902727596204666 0.3087391420815174
-0.001482412626020785 -0.2960311896681302 -0.1715048297040689
-0.02515296739479282 -0.2898488678071992 0.09863056322332375
-0.02547144108592108 -0.2551508593142733 0.3354926920630622
-0.09327184290744717 -0.0513963707395406 -0.2243619045995384
-0.0255410295554382 0.04787454098763776 0.1995405372282141
-0.007224419316055894 0.0813558964370302 0.3989582131930673
-0.02276343649351279 0.1458341503361778 -0.3405521231740643
-0.03293328505579731 0.1618935479324459 -0.06786802500269137
-0.02084178596242139 0.3252154317255305 -0.2840508218146597
-0.03524271516658766 0.4296700341095401 -0.3857633645194629
0.006121992127752306 0.5634794389116945 -0.347417977745748
0.006558151566053418 0.5429857406814999 -0.1995458471935897
0.01051224568439176 0.5248572823463785 -0.02124834314338409
-0.01039417223526587 0.5630921086862208 0.2234229452078781
0.06197041247104675 0.7011288987886135 -0.3442189871858281
-0.0314214611530553 0.7212507905480232 -0.1997477681801952
0.005135149541832122 0.7129389641075768 -0.05234439003359065
0.007376073749636218 0.7080060727660168 0.3756962585446995
0.02878556046445503 0.8450976181956702 -0.2823165596372409
0.03759679184405394 0.8572000692201658 -0.1091462926414654
0.007532507331315877 0.8072706675390638 0.07309270117548314
0.1382496185216413 -0.6933749203463405 -0.06264489271626207
0.1598246895371313 -0.6740370939360298 0.2078786672430468
0.1460716325506868 -0.489139666387344 -0.09013685157081516
0.1067117472363552 -0.4179390347804044 -0.3287145597738959
0.2289568270636277 -0.3122863662677779 -0.156012429137212
0.1283756704111017 -0.2151493863769895 -0.3075054514118618
0.1210650243279118 -0.1149353303984095 0.2214769036295903
0.158810220614184 -0.1033765858298957 0.3865582668137272
0.1096349120617996 -0.001383995534099687 -0.3398079159604068
0.1223568981929132 -0.006280604237843965 0.02641681535099179
0.1265862030922277 0.3105916615125092 -0.1423481245087004
0.07930609586216605 0.2972526782184603 0.05928419357860033
0.09235874011101022 0.2977557488367358 0.2357793688941893
0.163966847019246 0.4003837150389211 -0.3553613600757757
0.1376484451381041 0.3897927933204203 0.3523069030544861
0.1472598361266011 0.5491838626925439 -0.3216636346690471
0.15426346489491 0.5901853068783296 0.08359702301242679
0.137004393725327 0.6843989153456537 -0.1879403379080907
0.1884281873688043 0.8441119712309213 -0.2660846382428765
0.1528999966369691 0.8347452065220372 0.09136293917694764
0.1798957600834374 0.8555507570032801 0.3748650738617418
0.1790295812717909 -0.8171261171905335 -0.2259915613275964
0.2612956574735515 -0.8064205909068983 -0.08219446894796914
0.2644598712035692 -0.8081863393458391 0.09862319831795498
0.2584593328580787 -0.8118227164627432 0.2904046412771477
0.2397679486722527 -0.7087081956325537 -0.3632253281962172
0.2271589476703413 -0.6312827631186282 -0.2029721487881219
0.2979674210426723 -0.5896036010743207 -0.01473297627439803
0.2894336512327947 -0.4158940713592947 -0.3386187951945299
0.1996462096339642 -0.4594989061515275 0.2652799392762624
0.2500996706064468 -0.2916285437718912 0.09193318360992683
0.2886286202573078 -0.1324924270493752 -0.3225224228832147
0.3494737692762053 -0.1216221291975717 -0.1102770843812534
0.3115365198662991 -0.07240253052983585 0.2527557409836708
0.2536935006834664 0.04076236374745258 0.08649986598693234
0.2523969260453852 0.174541759912077 -0.3205003259816902
0.3514579002575059 0.1725712035105929 -0.1278043332703809
0.258272246617725 0.1792030953242192 0.2768653731622479
0.2857135064540615 0.4037866515615107 -0.2345536617355327
0.2302079008407441 0.3180635441093025 0.4270985291879109
0.2876405213446042 0.3595810066739927 0.08881332369995674
0.2858074018040969 0.4120653805182932 0.3665608152238086
0.2823899868073487 0.5723744589423663 -0.3724128088814072
0.2482530941378993 0.566880001102352 0.2207356900891528
0.2755494253166233 0.5509550571974535 0.383836469944089
0.2465961212504978 0.766578843418781 -0.06242630062732126
0.2626923799848317 0.7161753338297512 0.2273396088009268
0.3034513644975486 0.6832407653396534 0.3856837025257902
0.3520693184540987 0.8075500085502455 0.2816448692288795
0.3854365837102532 -0.7462794494216894 -0.239367301164902
0.4563843437099832 -0.6814995080563727 -0.04633302243573036
0.3969707063956475 -0.6796985740865173 0.2068391906633677
0.4327568545641686 -0.5362683635867723 -0.2406488321569068
0.4243332020239524 -0.5005681596183706 0.07436300265186717
0.4025467875374589 -0.3874516010326788 -0.08793693750787565
0.4767571204895551 -0.4208519108399344 0.2480405118180932
0.4332741865183951 -0.2781364359120332 -0.2577740591662155
0.4435395232659101 -0.2709654779710843 0.05366742575786116
0.2984539671867223 -0.2604689757442558 0.3262792843545434
0.4783044717201713 -0.01099430730161456 -0.3322816075307765
0.4065689428415581 0.2776670719544311 0.3140178470145859
0.4315481176511721 0.5523894855067755 -0.3589167562642011
0.4387921899138902 0.4980740743718151 -0.1854544586371061
0.4108477225187076 0.500911799732027 0.04494861931854526
0.3863021092036296 0.5392026510085496 0.2355457997693267
0.3804647969566239 0.731395900318632 -0.3179307516279088
0.4245696170549715 0.7082084684681706 -0.1002272123243987
0.4125985981313766 0.7030040467502563 0.07874412299659829
0.6121605054111278 -0.5740801423575953 -0.3722005537523881
0.6059627138836962 -0.6034932092552808 0.03049917486422493
0.5651721770811545 -0.6055886128597489 0.1940685898043785
0.6420731081346395 -0.4134593939425965 -0.2342118529936016
0.5377347073242053 -0.4533073741970173 -0.05273547656513753
0.5909986288026755 -0.4226149449283174 0.07908586339550398
0.5519845970082103 -0.2556106312505299 -0.0632247037113426
0.5701262715845798 -0.2503919474525918 0.3572020876254614
0.554340614961065 -0.1894845767608742 -0.3768558694940244
0.5902741049616363 -0.1643230599113564 -0.2140500478212858
0.5571003779561665 0.04117421851913408 -0.1876935438355234
0.4871179821614962 0.01622189174194633 0.02247270150549639
0.5190363635320019 0.1716924509298842 -0.322583089980304
0.5777369127626579 0.3003793219249427 -0.1912120079426327
0.5445057082349394 0.2744157649468042 0.03929671710184804
0.562259625484769 0.3771434687862834 0.2270355132719103
0.569523724631593 0.4165775071381174 -0.3630980118802258
0.6040918946748371 0.589222628862406 -0.3565133502549865
0.5840344340037545 0.5396488648491984 -0.06632434259115919
0.5741832345710618 0.5832415062866415 0.152228339341771
0.5520237439972713 0.6688291817520006 -0.2119360078709068
0.568403203060173 0.6990181264368377 -0.05447141587243289
0.6629258475670297 -0.5340935395759271 -0.08246738760920851
0.7078534247151846 -0.5286486956729216 0.06999648700236226
0.7192440196782972 -0.4201160374476877 0.196802260108502
0.7182815305895084 -0.3529052044634738 -0.06041081893727865
0.72396024658744 -0.1094084623494771 -0.1308101333587574
0.6804991701650444 -0.02597379180507741 -0.3495778942646662
0.6694252487194002 0.02437591114171722 0.0334331088934465
0.8064156421626415 0.06259850736582007 0.1546629056177509
0.6785933697220493 -0.0254597721517785 0.3420753152111023
0.7114858548015783 0.1640996826421443 -0.1774234789977805
0.69660152041186 0.2166949354345191 0.07999643804188913
0.6740191805811707 0.2414013228590711 0.3207758065772231
0.7596408726748503 0.392107199532172 -0.3548149712894125
0.7269295251211254 0.4332707498248279 0.2104982677603393
0.7034953432756725 0.4673907068656987 -0.216860610426355
0.7920517410982441 -0.2221212889508332 -0.315490742605038
0.8320216937445094 -0.1806333962299069 0.02999463494334354
0.7970016441362938 -0.2325728925924005 0.3498157222801689
0.8426098690964127 -0.1545855955942833 0.2144283155126682
0.8387468121264834 0.005107334327725527 -0.3471889379133419
0.877044128675789 0.01724515208325155 -0.1965079262315421
0.8553416151995917 0.05068799142810766 0.3416853699399054
0.8529068669373788 0.1944761937919115 -0.3706386103464488
0.8397154482792356 0.093020828225972 -0.0457538777381238
0.8404823173259341 0.2590282554214491 -0.2138720784786567
0.8350558326303772 0.2611389378599585 -0.05881263421940997
0.8216832720565769 0.2888755772278812 0.1016348228560712
0.8383278465188191 0.2949160403305429 0.2366172660205579
-0.8629688181389588 0.143381941231493 0.5000198751767735
-0.7036473349258114 -0.4273967752860783 0.4999989429222962
-0.1279334537934371 0.008855236203334289 -0.5
-0.5213756133829852 0.6485177908169077 -0.5000006709735871
-0.4558520593926006 -0.6773972486339134 0.4999999964383638
-0.4021318268536778 0.7511788946905033 -0.4999951720441183
-0.09947947616982795 -0.8479557505867434 0.5000004818772118
0.9342608774604719 0.3377110844316007 0.2315410575555034
0.9255712031544416 0.3582411559919384 0.1498412611628059
0.7634800590450048 0.247056046539432 0.5000004346074601
-0.7469849985647169 -0.0200870813096063 0.4999990334608246
-0.680543757834342 -0.4740380932693912 -0.4999991570583651
-0.6949858404172743 -0.2127895200422957 -0.4999999094111742
-0.686288648425658 -0.2398003545520095 0.4999998396146114
-0.4986054273991898 -0.4080319117685995 0.4999999933693557
-0.7090902162756686 0.03628760777864939 -0.5000000810461267
-0.6861746049123596 0.2308305402125869 -0.5000004678055846
-0.581088584757028 0.1776657134562471 0.4999999085432558
-0.5754755239259723 0.4994829419021543 -0.4999713337588703
-0.6092244696951634 0.5316034464427152 0.4999999044759265
-0.5008222316011997 -0.1646931941458382 0.4999791005703201
-0.5234135024230419 0.02846325294806079 -0.5
-0.5152800599675299 0.3066238844640701 -0.4999999806559905
-0.3989936867727177 0.2929830949321496 0.4999999870120724
-0.3438524135237317 -0.5530941107307284 0.5000000006736012
-0.3626204761312075 0.143381941231493 -0.4999881194514961
-0.3976816334250429 0.4957677506306108 -0.5000000139632471
-0.3203064425934787 0.3401733444409062 -0.5
-0.2353426624154923 0.4149459828697899 0.4999999806432102
-0.144235582606493 -0.7179071311574657 0.5000152106736593
-0.2140554145134415 -0.4584634992227827 0.4999999953551451
-0.2133421553630064 0.143381941231493 0.5000056648421252
-0.08582870180994451 0.2833619653992838 -0.5
-0.3537650366044645 0.6237982748370603 -0.5000001290492292
-0.1630725488990811 0.5074929495964762 -0.4999999844793909
-0.237039000185648 0.6863996695194159 -0.5000000645613542
-0.1632428182889147 0.8104042923908658 0.4999958220598753
-0.07804774202612129 -0.7290180957473663 -0.5000001909372986
-0.0004889354999997875 -0.7869143838399522 0.4999978042923893
0.01145745685836626 -0.5631337576451353 0.5000000252237681
-0.03375561106328956 -0.5131119422794048 -0.500000058490003
-0.0568439332398544 -0.3446995828644845 0.5
-0.05596220996376909 0.4335252539326422 0.4999999843406575
-0.02251925804685545 0.5937523092547984 -0.4999999750431183
-0.06699010175116729 0.6257894780561832 0.5000003778066378
-0.04419183161824607 0.7746267190378465 -0.4999993838613732
0.001912391746691552 0.7837934590748773 0.5000005081424124
0.1203058399096254 -0.7164894805542305 -0.4999984332192345
0.1432577116064934 -0.5053400401794235 -0.5000000500107411
0.151969755457726 -0.3367624116540442 0.5
0.05654703409709583 0.449121278250216 -0.4999999984409323
0.08861327983202837 0.4600289522622081 0.4999999834411181
0.1720280273777505 0.3872161041496714 0.5
0.285462454101257 -0.6303052966497941 0.4999998977158923
0.2527472948351825 -0.2428571699145163 -0.5
0.2248335005176332 0.1240096757365499 0.5
0.1648779315435615 0.6294415019901725 -0.4999996679272633
0.2027465872396181 0.6005112870363083 0.4999999735698301
0.2231672294577362 0.7931976729876626 -0.5000029224792227
0.2439969425100159 0.8188956427424873 0.5000029238739534
0.4008441517194355 -0.6702619260626781 -0.5000008252993288
0.3762739418853676 -0.3970553763796234 0.5
0.2951451662831526 0.04808108691664379 -0.5
0.3162872985239094 0.2405462498868655 0.5
0.3836466243729582 0.3577375656310538 -0.5000000316933161
0.4307510058194796 0.2123974320926144 -0.4999931645178526
0.3761916655311946 0.4861913042008972 0.499999988090326
0.4577212063034934 0.4836354901734679 -0.5000007760992612
0.4595844379978617 -0.5119597466955192 -0.5000000487435486
0.5897057334999973 -0.3291306107411037 -0.5000000608391225
0.5864695920328991 -0.4882773981203766 0.4999996043090605
0.4552807886152135 -0.073267201929895 -0.5000000101477786
0.5094246157227988 -0.05026580205507652 0.49999999594134
0.4953933954009245 0.3351525157734361 0.5
0.4747637898753977 0.6795004643096193 -0.5000011724657987
0.5744976529259729 0.4995273183991653 -0.5000606408717434
0.5705245612595982 0.5663557684671611 0.4999997345197127
0.6529059289466207 -0.1919243887004131 0.5000001246113916
0.70130393446773 -0.1089411565450217 -0.5000004250026922
0.7656202393450547 -0.1094591934147995 0.500002484273696
0.6435984365567862 0.2179247425243483 -0.4999728113889644
0.7945823983419739 0.08292786479758832 -0.4999958039095012
-0.4663540745827182 -0.473058374064811 -0.4999997619634713
-0.3821192024215467 -0.1940507463215042 -0.5
-0.3341546974168262 -0.2695164819388904 0.5
-0.3902962094182438 -0.01337117041890284 0.5
-0.2233226378904105 -0.5699062725707302 -0.5000082712438767
-0.2890325475725282 0.6482941538063883 0.4999998737594583
0.07031036064944889 0.2750983873563642 0.5
0.3003816724417518 -0.175669510480255 0.5
0.1783307776674656 0.269987799482906 -0.5
0.2889730137736386 0.3594897591745866 0.5
0.2331501492247894 0.4674162025951548 0.4999999914161826
0.3825003640885555 0.328425379336339 0.5
0.2899065664814718 0.4811342226394523 -0.5000000323161946
0.3674650940553903 0.6216796804230861 -0.4999988502362257
0.6163909100181311 0.114653778879437 0.4999999775261719
0.08142741937137013 0.09628440847759759 -0.5000130365551558
0.3997797456715283 0.1397751128381464 0.4999729223972722

CELLS 2324 11620
4 0 220 8 4
4 0 4 10 220
4 0 6 7 219
4 0 219 10 6
4 0 7 19 219
4 263 279 217 265
4 211 217 348 324
4 281 280 278 259
4 0 219 220 10
4 0 19 8 219
4 105 344 113 364
4 0 220 219 8
4 439 182 450 196
4 1 3 15 229
4 1 229 15 12
4 283 34 285 548
4 157 431 163 172
4 361 385 355 216
4 209 218 210 213
4 350 517 348 211
4 173 181 437 452
4 395 397 417 435
4 511 503 348 211
4 517 353 211 350
4 324 354 214 325
4 2 219 7 6
4 2 6 14 223
4 262 246 487 281
4 303 327 284 330
4 2 223 219 6
4 358 383 360 355
4 491 505 215 305
4 259 281 243 262
4 492 501 319 502
4 2 219 16 7
4 2 223 14 9
4 210 218 209 253
4 361 412 391 388
4 305 356 337 215
4 348 347 371 373
4 215 357 505 551
4 215 357 356 337
4 420 452 221 443
4 3 232 13 4
4 426 543 444 425
4 287 497 309 306
4 549 279 276 298
4 3 11 17 232
4 3 232 1 11
4 3 232 17 13
4 3 15 229 8
4 301 327 266 302
4 258 277 261 259
4 473 209 210 230
4 473 210 209 253
4 473 483 230 210
4 483 210 473 548
4 480 253 210 473
4 4 220 13 10
4 4 220 232 13
4 270 288 271 252
4 302 252 285 286
4 526 382 405 561
4 254 273 269 268
4 352 518 378 329
4 330 380 332 355
4 6 10 20 222
4 6 222 219 10
4 6 223 20 14
4 298 217 300 321
4 348 324 217 321
4 217 324 211 327
4 6 223 222 20
4 6 219 222 223
4 443 456 446 472
4 7 219 26 19
4 7 26 219 16
4 507 359 337 341
4 505 359 337 507
4 8 227 21 15
4 283 493 323 326
4 324 350 211 327
4 216 406 383 387
4 9 14 24 223
4 524 374 403 400
4 300 217 301 324
4 549 503 217 298
4 374 524 512 516
4 10 22 220 13
4 34 329 551 518
4 266 302 303 270
4 266 303 302 327
4 219 222 234 231
4 219 230 231 234
4 10 219 220 222
4 10 22 222 220
4 10 222 22 20
4 270 289 290 304
4 11 17 232 25
4 270 304 302 303
4 550 271 275 293
4 12 15 23 229
4 23 15 227 229
4 423 424 439 444
4 424 444 441 439
4 13 17 27 232
4 354 353 380 376
4 354 377 376 380
4 261 279 280 277
4 15 21 29 227
4 15 227 229 8
4 549 279 298 217
4 279 298 217 300
4 324 217 301 327
4 549 211 217 503
4 439 440 454 450
4 439 455 450 454
4 377 404 401 376
4 324 348 211 350
4 17 232 25 27
4 265 264 279 282
4 326 325 351 374
4 326 352 403 351
4 505 359 357 337
4 337 361 359 357
4 186 457 459 447
4 444 447 459 457
4 21 29 227 36
4 21 32 36 224
4 22 237 235 233
4 22 235 237 238
4 22 237 37 238
4 501 126 369 516
4 501 516 369 346
4 23 29 35 227
4 298 217 321 503
4 350 376 354 349
4 349 377 376 354
4 24 31 38 482
4 303 331 327 330
4 24 31 253 223
4 325 349 375 347
4 26 28 40 226
4 325 375 349 354
4 26 225 39 32
4 26 32 19 225
4 26 226 40 39
4 26 39 225 226
4 347 372 349 375
4 302 252 286 288
4 27 33 41 237
4 27 237 41 37
4 27 37 22 237
4 27 33 232 25
4 27 237 22 13
4 27 232 33 237
4 284 211 465 327
4 28 40 226 464
4 28 464 44 40
4 211 546 284 465
4 354 379 356 328
4 328 356 357 379
4 196 455 451 203
4 29 227 45 35
4 29 45 227 36
4 30 239 42 31
4 30 31 20 239
4 30 37 42 238
4 30 238 22 37
4 30 239 238 42
4 354 381 379 377
4 464 246 262 226
4 30 20 22 238
4 30 20 238 239
4 31 482 47 38
4 31 42 47 239
4 226 264 246 262
4 31 482 239 47
4 31 239 223 20
4 546 284 265 217
4 217 284 265 327
4 32 224 46 36
4 32 39 46 225
4 32 224 225 46
4 32 21 19 224
4 32 225 224 19
4 33 254 43 41
4 34 328 326 285
4 34 326 328 351
4 34 328 494 329
4 385 407 408 426
4 336 335 216 355
4 336 216 362 361
4 36 46 53 224
4 285 214 325 301
4 37 41 51 237
4 285 214 328 325
4 37 255 51 48
4 37 48 238 255
4 37 255 237 51
4 37 255 238 237
4 93 276 318 297
4 302 215 328 331
4 215 551 329 357
4 331 356 215 328
4 38 47 52 482
4 39 40 49 226
4 39 49 225 226
4 40 44 57 262
4 40 262 464 44
4 40 262 57 49
4 40 49 226 262
4 210 285 283 264
4 40 226 464 262
4 41 254 54 51
4 41 51 237 254
4 248 285 213 210
4 24 482 253 31
4 41 254 237 33
4 248 210 264 285
4 31 253 239 482
4 42 48 56 238
4 42 239 238 56
4 43 254 58 54
4 360 387 383 358
4 216 410 407 406
4 3 4 8 232
4 3 232 8 229
4 4 232 220 8
4 8 247 232 220
4 8 247 229 232
4 46 49 59 225
4 298 320 318 297
4 46 242 59 53
4 46 53 224 242
4 46 242 225 59
4 46 242 224 225
4 47 482 61 52
4 47 56 61 482
4 47 482 239 56
4 212 443 442 446
4 211 517 560 353
4 48 64 255 51
4 48 56 238 256
4 48 238 255 256
4 48 64 256 255
4 169 175 532 413
4 49 57 63 262
4 49 63 59 262
4 49 243 59 225
4 49 262 243 226
4 49 59 243 262
4 211 217 503 348
4 503 348 217 321
4 50 45 60 241
4 549 211 546 217
4 51 54 62 273
4 51 273 254 54
4 51 64 273 62
4 51 237 254 255
4 51 273 255 254
4 51 255 273 64
4 52 61 67 482
4 286 328 215 494
4 286 491 215 288
4 53 59 66 242
4 53 241 66 60
4 288 305 491 215
4 53 66 241 242
4 53 45 36 241
4 53 241 60 45
4 53 36 224 241
4 53 242 241 224
4 54 58 69 272
4 54 272 254 58
4 324 348 350 349
4 54 273 69 62
4 54 69 273 272
4 26 226 228 219
4 54 272 273 254
4 55 467 68 57
4 55 57 44 467
4 219 226 228 230
4 3 232 229 1
4 478 1 229 232
4 331 304 356 355
4 56 271 71 61
4 56 61 482 271
4 56 271 256 71
4 56 256 239 238
4 304 355 336 356
4 56 239 256 271
4 57 467 73 63
4 262 63 259 467
4 57 68 73 467
4 57 467 63 262
4 58 272 70 69
4 252 256 239 271
4 262 281 278 259
4 59 258 72 66
4 59 66 242 258
4 264 281 280 282
4 59 243 242 225
4 271 288 290 291
4 61 275 76 67
4 61 67 482 275
4 61 71 76 275
4 61 275 271 71
4 279 217 265 300
4 61 482 271 275
4 62 69 74 273
4 217 265 300 301
4 64 274 273 74
4 62 64 273 74
4 63 259 77 72
4 63 72 59 259
4 63 73 77 259
4 63 73 259 467
4 63 59 262 259
4 64 274 78 71
4 419 439 438 422
4 64 71 256 274
4 64 74 78 274
4 419 439 221 438
4 217 300 321 324
4 383 385 381 407
4 65 75 79 257
4 355 385 383 216
4 65 257 60 75
4 66 72 80 258
4 66 257 80 75
4 66 75 60 257
4 66 80 257 258
4 66 60 241 257
4 66 241 242 257
4 66 258 257 242
4 67 76 82 275
4 216 385 383 407
4 68 467 83 73
4 336 356 355 361
4 239 253 252 271
4 69 294 272 84
4 69 273 81 74
4 69 294 84 81
4 69 273 272 294
4 70 69 272 84
4 211 350 353 327
4 277 299 298 280
4 277 318 298 299
4 280 300 299 298
4 298 322 300 299
4 298 299 318 322
4 546 263 217 265
4 71 76 275 292
4 71 78 85 291
4 71 291 274 78
4 71 292 291 85
4 71 256 274 271
4 71 291 271 274
4 71 271 291 292
4 72 86 259 77
4 72 80 258 277
4 549 263 217 546
4 72 259 258 59
4 259 280 277 261
4 73 77 259 278
4 73 278 467 83
4 73 259 467 278
4 74 78 274 296
4 74 295 273 81
4 432 539 448 162
4 209 213 210 230
4 74 296 295 87
4 548 286 285 218
4 74 295 274 273
4 74 274 295 296
4 252 218 285 286
4 548 218 285 210
4 75 276 257 80
4 213 285 252 218
4 75 89 79 276
4 213 252 209 218
4 213 285 266 252
4 252 302 285 266
4 75 276 79 257
4 76 82 275 293
4 76 85 90 292
4 76 293 292 90
4 71 292 275 271
4 76 275 292 293
4 77 278 88 86
4 259 86 277 278
4 77 88 278 73
4 77 278 86 259
4 78 291 91 85
4 78 87 91 296
4 483 230 210 246
4 78 291 296 91
4 230 210 246 264
4 264 246 283 210
4 78 274 296 291
4 264 283 281 282
4 80 86 93 277
4 80 276 93 89
4 80 93 276 277
4 80 257 258 276
4 80 277 276 258
4 81 84 92 294
4 81 295 92 87
4 81 295 294 92
4 328 382 357 329
4 81 294 273 69
4 81 273 294 295
4 328 382 379 357
4 83 278 95 88
4 243 280 261 264
4 84 314 99 92
4 84 92 294 314
4 84 272 498 294
4 221 442 443 453
4 85 317 97 90
4 85 90 292 317
4 85 91 97 316
4 85 316 291 91
4 85 317 316 97
4 85 316 292 291
4 85 292 316 317
4 86 88 98 278
4 221 453 451 442
4 86 318 98 93
4 86 98 318 278
4 86 277 278 318
4 87 315 100 91
4 87 91 296 315
4 87 92 100 314
4 87 314 295 92
4 87 315 314 100
4 87 314 296 295
4 87 296 314 315
4 88 95 103 319
4 89 93 102 297
4 89 297 276 93
4 89 297 101 94
4 89 94 79 297
4 89 297 102 101
4 89 79 276 297
4 90 317 293 292
4 91 316 105 97
4 91 100 105 315
4 91 316 315 105
4 91 315 291 296
4 91 291 315 316
4 92 99 107 314
4 107 342 314 99
4 92 314 107 100
4 107 100 314 342
4 264 285 283 282
4 92 314 295 294
4 282 325 285 283
4 216 410 406 387
4 93 98 106 318
4 93 318 106 102
4 383 407 240 406
4 336 362 216 335
4 335 216 360 362
4 93 276 277 318
4 94 101 108 320
4 94 320 297 101
4 95 319 111 103
4 95 88 278 319
4 385 427 408 405
4 385 427 426 408
4 426 236 444 449
4 236 444 449 459
4 97 341 109 104
4 97 90 317 341
4 97 105 109 344
4 97 344 316 105
4 97 341 344 109
4 97 344 317 316
4 97 317 344 341
4 98 103 112 319
4 98 319 88 103
4 98 318 112 106
4 98 112 318 319
4 98 319 318 278
4 99 342 114 107
4 27 237 13 232
4 220 233 232 13
4 13 237 233 232
4 100 343 113 105
4 100 105 315 343
4 100 107 113 342
4 100 343 342 113
4 100 342 315 314
4 100 315 342 343
4 101 102 115 320
4 1 478 229 475
4 101 320 115 108
4 101 102 320 297
4 102 106 116 318
4 102 366 116 115
4 546 211 284 217
4 103 111 119 319
4 103 119 112 319
4 104 109 118 365
4 104 365 118 110
4 104 341 90 97
4 109 365 104 341
4 105 364 117 109
4 105 109 344 364
4 113 364 390 117
4 105 364 113 117
4 344 390 343 113
4 105 343 316 315
4 105 316 343 344
4 105 344 343 113
4 113 344 390 364
4 416 438 450 422
4 106 112 120 318
4 106 318 120 116
4 107 363 123 113
4 107 113 342 363
4 107 114 123 363
4 107 363 342 114
4 422 438 450 439
4 108 115 121 510
4 109 117 124 364
4 109 365 124 118
4 109 365 364 124
4 109 364 341 344
4 109 341 364 365
4 8 227 229 247
4 110 118 127 365
4 8 228 220 219
4 8 247 224 227
4 111 319 126 119
4 112 119 125 369
4 112 368 125 120
4 112 120 318 368
4 112 125 368 369
4 113 390 122 117
4 113 363 123 122
4 113 390 363 122
4 113 363 343 342
4 113 343 363 390
4 319 346 501 369
4 115 116 129 366
4 115 370 129 121
4 115 121 510 370
4 98 319 278 88
4 115 129 370 366
4 115 366 320 102
4 121 510 370 523
4 115 320 366 370
4 116 120 128 367
4 116 367 318 120
4 116 128 129 366
4 116 128 366 367
4 116 102 318 366
4 548 480 210 473
4 548 286 218 480
4 116 367 366 318
4 117 122 131 390
4 548 480 218 210
4 117 124 390 131
4 117 364 390 124
4 118 393 365 124
4 118 127 365 393
4 548 286 480 486
4 486 482 271 253
4 286 494 215 491
4 119 369 132 125
4 119 369 319 126
4 119 112 319 369
4 120 367 133 128
4 120 133 367 368
4 486 286 491 494
4 120 368 367 318
4 121 129 137 370
4 511 348 370 373
4 373 523 511 531
4 523 511 370 373
4 122 410 363 123
4 122 390 134 131
4 122 390 410 134
4 122 410 390 363
4 284 327 465 330
4 284 330 465 488
4 330 465 488 495
4 494 551 215 491
4 125 132 140 369
4 125 368 140 133
4 125 140 368 369
4 126 516 141 132
4 126 132 369 516
4 540 552 535 420
4 127 135 143 393
4 8 247 220 228
4 8 228 224 247
4 220 228 247 231
4 128 133 139 395
4 128 395 367 133
4 128 129 366 394
4 128 139 394 395
4 128 366 367 394
4 128 395 394 367
4 129 394 145 137
4 129 137 370 394
4 129 139 145 394
4 129 394 128 139
4 129 370 366 394
4 130 410 142 138
4 130 138 123 410
4 131 134 144 411
4 131 411 390 134
4 131 412 144 136
4 131 136 124 412
4 131 412 411 144
4 131 390 411 412
4 132 396 147 140
4 132 140 369 396
4 132 141 147 396
4 133 395 146 139
4 133 396 368 140
4 133 146 396 140
4 133 146 395 396
4 133 367 368 395
4 133 396 395 368
4 134 138 149 433
4 134 410 123 138
4 134 433 410 138
4 134 434 149 144
4 134 144 411 434
4 134 434 433 149
4 134 411 390 410
4 134 410 433 411
4 134 411 433 434
4 135 148 393 136
4 135 143 393 150
4 264 281 283 246
4 135 393 148 150
4 136 148 412 144
4 136 393 412 148
4 136 412 393 124
4 424 444 426 427
4 266 267 270 303
4 138 142 151 410
4 354 381 377 380
4 138 433 155 149
4 138 151 155 410
4 138 433 410 155
4 377 404 380 381
4 139 145 394 152
4 270 252 302 288
4 252 270 302 266
4 139 394 395 152
4 140 154 415 147
4 396 140 146 415
4 140 368 369 396
4 322 321 324 347
4 140 154 146 415
4 141 533 156 147
4 516 141 396 533
4 321 348 347 371
4 439 455 451 196
4 203 458 455 451
4 439 196 451 182
4 439 451 455 458
4 192 462 461 442
4 446 442 461 462
4 301 214 324 327
4 144 148 434 157
4 144 434 412 411
4 144 412 434 148
4 146 414 160 152
4 381 426 407 385
4 147 415 161 154
4 147 156 161 533
4 147 161 415 533
4 149 155 163 433
4 149 434 163 157
4 149 434 433 163
4 382 212 424 405
4 402 424 212 221
4 150 539 393 148
4 150 539 148 162
4 432 539 162 148
4 151 430 164 155
4 151 155 410 430
4 34 328 329 351
4 152 416 168 159
4 152 435 414 160
4 237 269 254 255
4 152 168 416 435
4 152 416 397 435
4 153 159 169 413
4 153 413 145 159
4 517 511 348 211
4 154 437 415 161
4 154 167 436 437
4 154 146 415 414
4 154 160 414 436
4 154 414 415 436
4 154 437 436 415
4 155 163 433 449
4 155 164 171 430
4 155 449 430 171
4 155 410 430 433
4 155 449 433 430
4 156 533 166 161
4 539 448 162 165
4 432 236 431 172
4 431 236 163 172
4 157 148 434 432
4 157 172 162 432
4 434 157 432 431
4 150 539 162 165
4 159 168 175 416
4 159 413 175 169
4 159 175 413 416
4 159 145 152 413
4 159 416 413 152
4 160 167 174 436
4 160 435 174 168
4 160 174 435 436
4 152 414 395 146
4 160 154 414 146
4 152 395 414 435
4 160 436 435 414
4 161 166 173 533
4 161 437 173 167
4 161 173 437 533
4 161 415 533 437
4 346 396 372 374
4 162 432 148 157
4 163 171 178 449
4 396 398 372 374
4 163 236 449 178
4 175 532 416 450
4 373 397 349 347
4 164 447 179 171
4 164 171 430 447
4 347 372 397 349
4 348 373 349 347
4 165 448 177 176
4 165 177 448 162
4 165 448 176 539
4 486 288 286 253
4 166 533 180 173
4 167 173 181 437
4 380 381 240 383
4 167 437 181 174
4 167 174 436 437
4 528 425 240 380
4 528 240 543 527
4 168 174 182 438
4 168 438 435 174
4 168 416 182 175
4 168 182 416 438
4 168 438 416 435
4 169 175 184 532
4 287 309 498 289
4 171 449 186 178
4 287 306 309 289
4 171 179 186 447
4 171 449 447 186
4 171 430 447 449
4 461 236 448 172
4 177 461 448 172
4 172 178 236 163
4 185 460 236 178
4 533 420 180 173
4 172 185 236 178
4 173 180 187 452
4 21 224 8 19
4 173 452 420 180
4 21 224 227 8
4 452 453 187 181
4 173 452 187 181
4 19 8 228 224
4 173 420 437 533
4 173 452 437 420
4 452 181 437 453
4 174 451 437 181
4 174 182 438 451
4 174 435 436 438
4 174 437 438 436
4 174 438 437 451
4 175 184 532 450
4 175 189 450 182
4 175 413 416 532
4 175 182 450 416
4 176 177 188 462
4 176 462 448 177
4 172 461 236 185
4 177 461 172 185
4 177 162 172 448
4 177 448 461 462
4 178 459 449 186
4 178 460 459 191
4 178 459 236 449
4 178 236 459 460
4 179 457 194 186
4 179 186 447 457
4 179 457 447 543
4 180 452 193 187
4 181 187 195 453
4 181 451 195 190
4 181 195 451 453
4 181 453 451 437
4 182 190 196 451
4 184 189 199 450
4 185 191 200 460
4 185 461 200 192
4 185 461 460 200
4 185 236 460 461
4 186 459 198 191
4 186 194 198 457
4 186 459 457 198
4 186 459 449 447
4 187 193 202 452
4 202 456 452 193
4 187 453 202 195
4 187 202 453 452
4 202 456 453 452
4 188 192 201 456
4 188 192 456 462
4 188 456 201 197
4 204 455 450 196
4 189 450 204 199
4 189 204 450 196
4 189 450 182 196
4 190 195 203 451
4 190 451 203 196
4 191 198 207 455
4 191 198 455 459
4 191 458 207 200
4 191 460 458 200
4 191 458 455 207
4 191 455 458 459
4 191 460 459 458
4 192 200 442 461
4 192 456 206 201
4 192 456 442 206
4 192 462 442 456
4 193 456 205 202
4 194 457 208 198
4 195 202 206 453
4 195 451 206 203
4 195 206 451 453
4 196 203 207 455
4 196 455 207 204
4 203 207 455 458
4 197 201 205 456
4 198 204 207 455
4 198 454 208 204
4 198 455 454 204
4 198 208 454 457
4 198 454 455 457
4 198 459 457 455
4 199 204 208 454
4 199 454 450 204
4 200 203 206 442
4 200 458 207 203
4 200 442 458 203
4 200 192 442 206
4 200 461 458 442
4 200 458 461 460
4 201 202 205 456
4 201 456 206 202
4 202 206 453 456
4 203 442 451 206
4 203 442 458 451
4 204 450 455 454
4 206 451 453 442
4 206 456 442 453
4 21 227 224 36
4 19 228 219 26
4 19 26 225 228
4 19 228 8 219
4 19 225 224 228
4 26 226 16 28
4 26 226 219 16
4 26 228 226 225
4 28 230 226 16
4 28 464 226 230
4 16 226 219 230
4 16 219 2 230
4 220 219 228 231
4 219 220 222 231
4 219 230 223 2
4 219 222 223 234
4 219 230 234 223
4 219 231 230 228
4 2 473 230 223
4 220 233 22 222
4 220 222 231 233
4 220 233 13 22
4 220 247 232 233
4 222 234 20 223
4 222 22 20 233
4 222 234 233 20
4 222 231 233 234
4 223 209 234 20
4 223 230 234 209
4 223 209 473 230
4 25 232 479 33
4 232 33 237 479
4 22 237 233 13
4 20 234 233 235
4 20 22 235 233
4 20 235 22 238
4 20 223 209 239
4 20 235 209 234
4 20 238 209 235
4 20 209 238 239
4 223 473 209 253
4 223 239 253 209
4 223 253 239 31
4 225 49 243 226
4 36 241 227 224
4 36 227 241 45
4 224 225 242 244
4 224 242 241 244
4 225 264 228 226
4 225 226 243 264
4 225 224 228 244
4 225 264 244 228
4 225 244 243 242
4 225 243 244 264
4 226 264 262 243
4 464 246 226 230
4 227 263 247 224
4 227 224 241 263
4 224 245 247 228
4 224 228 244 245
4 224 245 263 247
4 224 263 244 241
4 224 244 263 245
4 228 230 264 248
4 228 245 264 244
4 228 264 245 248
4 226 228 230 264
4 230 264 246 226
4 247 245 231 228
4 228 248 231 230
4 228 248 245 231
4 231 220 233 247
4 231 249 247 233
4 231 245 247 249
4 231 213 234 230
4 231 230 248 213
4 231 233 234 249
4 231 213 249 234
4 231 249 248 245
4 231 248 249 213
4 230 234 209 213
4 483 283 210 548
4 232 250 237 233
4 232 233 247 250
4 232 479 237 250
4 233 234 249 251
4 233 250 249 247
4 233 249 250 251
4 234 252 235 209
4 234 209 213 252
4 234 233 235 251
4 234 252 251 235
4 234 251 213 249
4 234 213 251 252
4 210 218 285 213
4 209 218 252 253
4 233 235 251 237
4 233 251 250 237
4 235 252 238 209
4 235 252 237 238
4 235 237 252 251
4 209 252 239 253
4 209 238 239 252
4 238 239 252 256
4 238 255 252 237
4 238 252 255 256
4 59 242 243 258
4 59 243 262 259
4 59 259 258 243
4 227 241 545 263
4 241 242 257 260
4 241 260 257 545
4 242 261 244 243
4 242 243 258 261
4 242 241 244 260
4 242 261 260 244
4 242 260 258 257
4 242 258 260 261
4 243 259 261 280
4 243 244 264 261
4 243 264 281 280
4 243 261 259 258
4 241 244 260 263
4 241 263 260 545
4 244 264 263 245
4 244 263 261 260
4 244 261 263 264
4 227 546 247 263
4 263 265 247 245
4 263 265 546 247
4 245 248 264 266
4 245 265 264 263
4 245 264 265 266
4 245 266 249 248
4 245 247 249 265
4 245 266 265 249
4 248 210 213 230
4 248 249 213 266
4 248 285 266 213
4 247 249 265 250
4 247 250 265 484
4 249 266 251 213
4 249 266 250 251
4 249 250 266 265
4 248 230 264 210
4 213 251 252 266
4 248 264 266 285
4 251 270 237 252
4 251 252 266 270
4 251 250 237 267
4 251 270 267 237
4 251 267 266 250
4 251 266 267 270
4 237 269 268 254
4 237 268 267 250
4 237 267 268 269
4 237 270 255 252
4 237 270 269 255
4 237 269 270 267
4 252 255 256 270
4 252 271 270 256
4 254 269 273 255
4 268 287 272 273
4 268 287 273 269
4 255 274 64 256
4 255 256 270 274
4 255 273 64 274
4 255 274 269 273
4 255 270 269 274
4 256 274 271 270
4 482 271 239 56
4 482 253 239 271
4 257 276 260 258
4 257 545 260 549
4 257 276 549 260
4 257 549 276 79
4 72 277 258 259
4 258 260 261 276
4 258 277 276 261
4 259 278 262 467
4 545 549 263 260
4 260 279 263 261
4 260 261 276 279
4 260 279 549 263
4 261 263 264 279
4 261 279 277 276
4 259 278 277 280
4 262 264 246 281
4 262 264 281 243
4 259 280 243 281
4 487 246 477 493
4 262 246 477 487
4 263 279 265 264
4 264 279 280 261
4 266 264 265 282
4 264 282 280 279
4 246 493 281 283
4 264 282 266 285
4 250 284 267 266
4 250 266 265 284
4 250 267 284 488
4 480 286 218 253
4 252 288 271 253
4 252 253 286 288
4 253 252 286 218
4 268 269 267 287
4 269 287 270 267
4 269 270 287 289
4 270 290 274 271
4 270 269 274 289
4 270 290 289 274
4 271 290 288 270
4 269 289 273 274
4 254 272 273 268
4 269 289 287 273
4 271 288 292 308
4 272 273 287 498
4 272 273 498 294
4 273 274 289 295
4 273 498 289 287
4 273 294 289 498
4 273 289 294 295
4 274 295 290 289
4 274 290 295 296
4 274 271 290 291
4 274 296 291 290
4 271 291 292 288
4 79 297 549 276
4 549 298 276 297
4 276 298 279 277
4 260 279 276 549
4 277 318 276 298
4 277 299 280 278
4 277 278 318 299
4 277 86 93 318
4 278 280 281 299
4 277 298 279 280
4 278 281 493 299
4 278 492 299 493
4 279 300 282 280
4 279 280 298 300
4 279 265 282 300
4 280 325 282 281
4 280 281 299 325
4 280 325 300 282
4 280 299 300 325
4 281 493 299 323
4 281 299 325 323
4 493 281 283 323
4 493 323 492 299
4 265 282 300 301
4 282 265 266 301
4 282 325 283 281
4 282 266 285 301
4 282 325 301 285
4 281 283 323 325
4 283 326 325 285
4 283 323 325 326
4 284 327 266 265
4 266 285 301 302
4 285 302 214 301
4 285 328 326 325
4 488 303 267 284
4 284 267 266 303
4 284 303 266 327
4 285 286 328 302
4 285 302 328 214
4 286 328 302 215
4 267 303 287 270
4 270 287 289 303
4 270 304 290 288
4 270 288 302 304
4 270 289 304 303
4 286 215 302 288
4 289 304 303 306
4 289 303 287 306
4 290 289 306 304
4 288 302 304 305
4 288 292 308 313
4 288 305 215 302
4 498 497 506 309
4 290 288 304 307
4 290 304 306 307
4 288 312 291 292
4 288 292 313 312
4 288 290 291 307
4 288 312 307 291
4 288 307 305 304
4 288 305 307 312
4 288 308 305 313
4 288 305 312 313
4 308 292 293 313
4 498 309 294 289
4 497 306 506 309
4 289 310 295 290
4 289 290 306 310
4 289 294 295 310
4 289 310 309 294
4 289 306 309 310
4 290 311 296 291
4 290 291 307 311
4 290 295 296 310
4 290 311 310 296
4 290 311 307 306
4 290 306 310 311
4 291 311 312 307
4 293 308 313 341
4 294 295 310 314
4 295 296 310 314
4 294 314 310 309
4 296 291 311 315
4 296 314 311 310
4 296 311 314 315
4 291 292 312 316
4 291 316 312 311
4 291 311 315 316
4 292 293 313 317
4 292 316 313 312
4 292 313 316 317
4 293 317 341 313
4 293 341 317 90
4 93 318 102 297
4 278 319 318 299
4 276 318 297 298
4 297 320 318 102
4 278 299 492 319
4 298 320 503 321
4 298 322 321 300
4 298 321 318 320
4 298 318 321 322
4 299 300 325 322
4 299 492 319 323
4 299 325 323 322
4 299 322 319 318
4 299 319 322 323
4 492 502 323 493
4 217 265 301 327
4 300 325 301 282
4 300 325 322 324
4 300 324 322 321
4 300 301 325 324
4 301 327 265 266
4 217 211 284 327
4 301 327 302 214
4 301 325 324 214
4 303 302 327 331
4 302 331 214 327
4 302 331 328 214
4 303 287 306 332
4 303 332 331 330
4 303 302 331 304
4 303 306 304 332
4 303 331 332 304
4 302 331 304 305
4 302 305 215 331
4 305 337 505 215
4 328 215 329 357
4 287 333 497 306
4 287 306 332 333
4 306 304 332 335
4 306 332 333 335
4 304 336 307 305
4 304 306 307 335
4 304 336 335 307
4 305 307 312 336
4 305 337 336 312
4 305 312 313 337
4 305 313 308 337
4 305 505 337 308
4 506 334 309 306
4 506 306 333 334
4 306 335 311 307
4 306 309 310 334
4 306 335 334 310
4 306 334 335 333
4 307 336 311 312
4 306 310 311 335
4 307 336 335 311
4 308 313 341 337
4 309 338 314 310
4 309 310 334 338
4 310 339 314 311
4 310 311 335 339
4 310 339 338 314
4 310 338 335 334
4 310 335 338 339
4 311 340 316 312
4 311 312 336 340
4 311 314 315 339
4 311 340 339 315
4 311 340 336 335
4 311 335 339 340
4 312 344 316 313
4 312 313 337 344
4 311 315 316 340
4 312 344 340 316
4 312 340 337 336
4 312 337 340 344
4 313 316 317 344
4 313 341 344 317
4 313 337 344 341
4 314 315 339 342
4 314 342 339 338
4 315 316 340 343
4 315 342 340 339
4 315 340 342 343
4 316 343 344 340
4 102 366 320 318
4 320 318 366 321
4 318 345 321 322
4 318 346 322 319
4 318 346 345 322
4 319 322 323 346
4 319 346 112 318
4 319 346 323 502
4 319 502 323 492
4 319 501 346 502
4 503 511 348 321
4 503 321 320 511
4 321 347 348 324
4 322 345 321 347
4 322 374 325 323
4 322 323 346 374
4 322 324 325 347
4 322 374 347 325
4 322 347 346 345
4 322 346 347 374
4 324 325 347 349
4 324 349 347 348
4 325 375 374 347
4 323 325 326 374
4 350 324 349 354
4 326 325 328 351
4 34 352 351 329
4 512 403 374 326
4 327 214 324 354
4 325 214 328 354
4 325 351 354 328
4 325 375 354 351
4 465 353 330 327
4 465 327 211 353
4 327 330 331 353
4 327 354 353 331
4 327 350 353 354
4 327 354 331 214
4 324 349 354 325
4 327 354 324 350
4 214 354 331 328
4 331 355 353 330
4 331 355 330 332
4 331 354 353 355
4 331 332 304 355
4 331 356 305 215
4 331 328 354 356
4 331 304 305 356
4 331 354 355 356
4 494 551 329 215
4 332 355 335 304
4 304 356 336 305
4 304 335 336 355
4 305 336 337 356
4 494 329 328 215
4 328 357 356 215
4 215 337 505 357
4 333 358 334 335
4 333 335 332 358
4 335 358 355 332
4 505 551 357 359
4 334 360 338 335
4 334 335 358 360
4 335 362 340 336
4 335 216 355 360
4 335 362 360 338
4 335 360 355 358
4 336 361 340 337
4 336 337 356 361
4 335 339 340 362
4 336 361 362 340
4 336 355 216 361
4 337 340 344 361
4 337 344 341 361
4 337 361 357 356
4 359 520 507 514
4 339 362 342 340
4 339 362 338 342
4 339 338 362 335
4 340 390 343 344
4 340 344 361 390
4 340 342 343 362
4 340 390 362 343
4 340 361 362 390
4 342 343 362 363
4 342 363 362 338
4 343 363 390 362
4 344 341 361 364
4 344 361 390 364
4 366 320 321 370
4 318 321 345 366
4 318 367 366 345
4 318 368 346 112
4 318 345 346 368
4 318 368 367 345
4 112 369 346 319
4 112 369 368 346
4 320 370 511 321
4 321 345 366 371
4 321 511 348 370
4 321 371 370 348
4 321 366 370 371
4 345 372 347 346
4 345 346 368 372
4 345 321 347 371
4 345 372 371 347
4 345 371 367 366
4 345 367 371 372
4 346 347 374 372
4 345 372 368 367
4 346 368 372 396
4 346 396 369 368
4 373 371 370 397
4 373 348 370 371
4 373 347 371 397
4 347 372 375 374
4 347 397 372 371
4 348 373 350 349
4 512 352 403 326
4 374 403 351 326
4 374 325 351 375
4 350 353 354 376
4 350 376 349 373
4 354 377 375 349
4 351 352 403 378
4 351 378 403 375
4 352 403 378 552
4 354 353 355 380
4 354 381 380 355
4 354 379 328 351
4 354 351 375 379
4 354 355 356 381
4 354 379 381 356
4 354 379 375 377
4 351 379 378 375
4 352 351 329 378
4 352 552 378 518
4 553 353 380 330
4 355 381 380 383
4 351 382 328 329
4 351 329 378 382
4 351 382 379 328
4 351 378 379 382
4 329 357 551 382
4 329 518 382 551
4 332 380 358 355
4 355 356 381 385
4 355 381 383 385
4 356 385 379 381
4 551 357 359 382
4 551 384 382 359
4 551 518 382 384
4 355 216 383 360
4 355 358 383 380
4 355 385 361 356
4 356 385 361 357
4 356 357 379 385
4 357 385 361 359
4 357 359 382 385
4 357 385 382 379
4 359 386 384 382
4 359 382 385 386
4 360 387 338 362
4 360 216 383 387
4 362 387 216 360
4 361 362 390 216
4 361 407 216 390
4 361 385 216 407
4 361 388 341 359
4 361 359 385 388
4 359 389 388 341
4 359 388 386 385
4 359 386 388 389
4 338 410 363 362
4 338 362 387 410
4 362 410 363 390
4 362 390 216 410
4 362 410 216 387
4 390 410 407 216
4 361 391 364 341
4 361 391 390 364
4 341 364 365 391
4 341 391 388 361
4 341 392 391 365
4 341 391 389 388
4 341 389 391 392
4 364 365 391 124
4 364 391 390 124
4 365 391 124 393
4 365 393 392 391
4 366 394 371 367
4 366 370 371 394
4 367 395 372 368
4 367 371 372 394
4 367 395 394 372
4 368 372 396 395
4 370 394 397 371
4 371 394 397 372
4 372 397 395 394
4 396 398 395 372
4 374 372 375 398
4 374 396 398 400
4 372 399 397 349
4 372 395 397 399
4 372 349 375 399
4 372 398 399 375
4 372 399 398 395
4 375 374 398 400
4 524 400 396 374
4 373 401 376 349
4 373 349 397 401
4 349 399 377 375
4 349 376 377 401
4 349 399 401 377
4 349 401 399 397
4 375 398 399 402
4 375 402 378 403
4 375 403 400 402
4 375 402 400 398
4 375 402 379 378
4 375 402 377 379
4 375 377 402 399
4 376 404 380 377
4 379 378 402 424
4 379 402 377 424
4 378 379 382 424
4 402 212 424 378
4 381 424 385 379
4 381 379 377 424
4 518 378 382 561
4 382 212 405 561
4 518 382 384 526
4 380 240 358 383
4 380 240 381 425
4 380 425 381 404
4 240 381 425 407
4 379 424 385 382
4 382 405 386 384
4 382 405 424 385
4 382 385 386 405
4 358 240 387 383
4 383 240 407 381
4 385 408 407 361
4 385 409 388 386
4 385 386 405 409
4 385 361 388 408
4 385 409 408 388
4 385 405 408 409
4 386 388 389 409
4 386 529 409 389
4 386 405 409 529
4 387 383 240 406
4 216 407 383 406
4 361 390 412 408
4 361 390 391 412
4 361 408 407 390
4 388 409 391 389
4 388 412 409 408
4 389 391 392 409
4 389 529 409 392
4 410 390 407 411
4 391 412 409 388
4 410 407 433 411
4 391 390 124 412
4 390 412 131 124
4 390 411 408 407
4 390 408 411 412
4 391 392 409 393
4 391 124 393 412
4 361 408 412 388
4 391 409 412 393
4 394 152 397 395
4 394 152 145 397
4 396 146 395 415
4 396 415 395 398
4 396 398 400 415
4 147 533 415 396
4 152 397 395 435
4 397 413 152 145
4 397 152 413 416
4 417 397 399 416
4 415 146 395 414
4 398 414 415 395
4 396 533 415 400
4 397 416 401 399
4 399 398 395 417
4 395 397 399 417
4 398 418 402 400
4 398 415 414 418
4 398 399 402 417
4 398 418 417 402
4 398 417 414 395
4 398 414 417 418
4 400 418 415 398
4 401 532 416 397
4 399 419 377 402
4 399 402 417 419
4 399 401 377 419
4 399 419 416 401
4 399 417 416 419
4 402 419 418 417
4 402 418 419 221
4 402 403 400 420
4 402 221 400 418
4 402 400 221 420
4 403 402 378 420
4 376 421 404 401
4 401 422 404 377
4 401 377 419 422
4 401 422 421 404
4 401 421 416 532
4 401 416 421 422
4 377 402 419 424
4 401 422 419 416
4 377 419 422 424
4 402 424 221 419
4 402 420 212 378
4 402 212 420 221
4 404 423 381 377
4 404 377 422 423
4 377 381 424 423
4 377 423 424 422
4 378 212 424 382
4 378 382 561 212
4 378 212 535 420
4 378 535 212 561
4 381 426 385 424
4 381 424 423 426
4 381 426 425 407
4 381 425 423 404
4 381 423 425 426
4 405 427 212 424
4 561 446 212 405
4 424 427 385 405
4 424 427 426 385
4 405 408 409 428
4 405 428 427 408
4 405 212 427 428
4 405 409 529 428
4 405 536 428 529
4 405 428 446 212
4 405 446 428 536
4 240 429 406 407
4 240 407 425 429
4 407 429 426 425
4 529 409 392 539
4 529 539 428 409
4 529 536 428 539
4 406 430 410 407
4 406 407 429 430
4 407 410 433 430
4 407 449 430 433
4 407 449 426 429
4 407 429 430 449
4 407 431 411 408
4 407 408 426 431
4 407 431 449 433
4 407 426 449 431
4 408 432 412 409
4 408 409 428 432
4 408 411 412 431
4 408 432 431 412
4 408 431 427 426
4 408 427 431 432
4 409 432 393 392
4 409 392 539 432
4 409 412 393 432
4 408 432 428 427
4 409 432 539 428
4 392 539 432 393
4 411 412 431 434
4 411 433 431 407
4 411 431 433 434
4 412 393 432 148
4 412 434 432 431
4 412 432 434 148
4 395 435 417 414
4 397 416 417 435
4 414 436 418 415
4 414 417 418 435
4 414 436 435 418
4 415 437 400 533
4 415 437 436 418
4 533 400 420 437
4 417 438 419 418
4 417 418 435 438
4 417 438 416 419
4 417 435 416 438
4 418 437 221 400
4 418 400 415 437
4 418 419 221 438
4 418 437 438 221
4 418 438 436 435
4 418 436 438 437
4 400 221 420 437
4 532 450 421 416
4 416 421 422 450
4 419 422 438 416
4 421 440 404 422
4 421 422 450 440
4 422 439 423 424
4 422 404 423 440
4 422 439 440 423
4 424 439 419 422
4 424 439 221 419
4 221 442 212 443
4 420 443 221 212
4 535 443 212 561
4 535 420 212 443
4 404 440 425 423
4 423 425 426 444
4 423 444 440 425
4 423 439 440 444
4 424 441 427 212
4 424 212 221 441
4 424 221 439 441
4 212 441 442 221
4 561 443 212 446
4 423 444 426 424
4 427 212 441 445
4 427 444 441 424
4 427 441 444 445
4 212 427 428 445
4 212 446 445 428
4 212 445 442 441
4 212 442 445 446
4 536 428 539 446
4 429 426 543 447
4 426 449 447 429
4 426 447 444 543
4 426 444 447 449
4 426 236 431 427
4 426 427 444 236
4 426 236 449 431
4 427 236 432 428
4 427 428 445 236
4 427 431 432 236
4 427 236 445 444
4 428 448 432 539
4 428 539 446 448
4 428 448 236 432
4 428 236 448 445
4 428 446 445 448
4 539 446 448 176
4 430 429 447 449
4 434 163 157 431
4 431 433 434 163
4 431 163 449 433
4 431 236 449 163
4 157 432 431 172
4 432 393 539 148
4 432 172 448 236
4 432 448 172 162
4 416 182 450 438
4 437 438 221 451
4 437 453 221 452
4 437 453 451 221
4 422 440 439 450
4 438 182 450 439
4 438 451 439 221
4 438 451 182 439
4 437 452 221 420
4 221 452 453 443
4 439 440 444 454
4 439 455 454 444
4 439 196 450 455
4 221 451 441 442
4 221 439 441 451
4 443 452 453 456
4 439 458 444 441
4 439 441 451 458
4 439 458 455 444
4 441 444 445 458
4 441 442 458 445
4 441 451 458 442
4 442 443 453 456
4 443 456 472 542
4 444 457 455 454
4 445 446 442 461
4 445 442 458 461
4 543 457 447 444
4 444 447 449 459
4 444 455 457 459
4 444 460 236 445
4 444 445 458 460
4 444 460 459 236
4 444 459 458 455
4 444 458 459 460
4 445 461 236 448
4 445 461 460 236
4 445 460 461 458
4 446 445 448 461
4 446 462 461 448
4 446 456 442 462
4 446 448 176 462
4 446 188 462 176
4 446 456 462 188
4 5 463 2 9
4 5 2 463 473
4 9 223 24 463
4 12 475 229 23
4 14 31 223 20
4 14 24 223 31
4 15 23 227 29
4 23 474 227 35
4 25 43 33 481
4 37 42 238 48
4 39 46 225 49
4 43 41 254 54
4 43 58 254 466
4 44 57 262 467
4 44 464 467 262
4 47 56 239 42
4 48 56 256 64
4 58 70 272 466
4 71 76 292 85
4 72 86 277 259
4 72 80 277 86
4 74 87 295 81
4 74 78 296 87
4 75 89 276 80
4 82 90 293 76
4 95 111 319 469
4 99 114 342 521
4 108 510 320 115
4 118 127 393 135
4 119 132 369 126
4 120 133 368 125
4 121 523 370 137
4 123 122 410 134
4 127 393 143 522
4 135 136 393 124
4 139 152 395 146
4 396 140 415 147
4 144 157 434 149
4 151 164 430 538
4 152 168 435 160
4 154 167 437 161
4 154 160 436 167
4 155 163 449 171
4 164 179 447 543
4 170 472 176 183
4 174 182 451 190
4 174 190 451 181
4 175 184 450 189
4 177 188 462 470
4 178 185 460 191
4 180 193 452 540
4 183 472 188 197
4 186 178 459 191
4 188 192 462 470
4 232 479 478 11
4 253 480 482 24
4 237 479 481 485
4 271 482 491 550
4 278 467 83 492
4 278 492 493 487
4 250 485 488 484
4 268 490 485 489
4 294 84 508 498
4 90 96 82 499
4 374 512 502 516
4 413 153 523 531
4 413 531 532 169
4 420 540 533 180
4 12 1 229 475
4 465 211 560 353
4 184 450 199 541
4 463 223 2 9
4 475 23 227 229
4 464 476 230 28
4 474 50 45 35
4 474 35 45 227
4 481 43 33 254
4 481 43 254 466
4 466 58 254 272
4 468 272 84 70
4 468 466 272 70
4 65 549 257 79
4 550 293 275 82
4 550 82 275 67
4 499 82 293 550
4 278 73 88 83
4 508 314 99 84
4 498 468 272 84
4 508 84 294 314
4 469 95 278 319
4 469 83 278 95
4 104 509 110 96
4 508 99 314 342
4 508 99 342 521
4 500 510 320 108
4 521 114 342 363
4 521 114 363 123
4 521 114 123 130
4 135 124 393 118
4 516 396 141 132
4 522 393 365 127
4 522 365 110 127
4 521 123 410 130
4 521 130 410 142
4 145 153 137 523
4 523 413 145 153
4 471 177 461 462
4 471 177 185 461
4 471 177 462 470
4 540 180 420 452
4 472 188 446 176
4 472 188 176 183
4 471 462 461 192
4 471 192 461 185
4 470 192 462 471
4 456 193 205 542
4 543 179 457 194
4 197 542 456 205
4 544 457 454 208
4 544 457 208 194
4 475 23 474 227
4 28 476 230 16
4 28 16 18 476
4 2 473 223 463
4 11 25 232 479
4 253 223 473 463
4 253 24 223 463
4 50 241 474 45
4 474 241 227 45
4 474 545 241 50
4 230 246 476 464
4 477 464 476 246
4 547 476 246 477
4 247 475 227 229
4 476 483 246 230
4 283 285 210 548
4 250 478 247 232
4 250 479 478 232
4 463 480 473 253
4 480 253 218 210
4 480 463 24 253
4 25 33 479 481
4 481 237 33 479
4 481 254 33 237
4 257 60 241 65
4 257 65 241 545
4 487 281 493 278
4 263 227 546 545
4 483 547 476 246
4 546 247 484 475
4 479 237 250 485
4 491 482 271 486
4 272 489 268 254
4 272 466 489 254
4 254 489 481 466
4 550 275 271 482
4 550 67 275 482
4 466 272 496 468
4 545 65 549 257
4 483 547 246 283
4 326 547 34 283
4 326 283 34 285
4 485 250 488 490
4 548 486 494 286
4 548 285 286 494
4 548 285 494 34
4 489 287 272 268
4 490 268 267 287
4 490 489 268 287
4 490 489 287 497
4 486 288 271 491
4 496 272 466 489
4 489 496 272 287
4 498 496 287 272
4 498 496 272 468
4 271 308 292 293
4 469 83 492 278
4 549 297 79 500
4 298 500 297 549
4 548 483 283 547
4 494 285 286 328
4 494 285 328 34
4 490 303 267 488
4 490 303 488 495
4 303 330 284 488
4 489 287 497 496
4 288 305 308 491
4 287 497 498 309
4 275 271 292 293
4 499 550 293 341
4 550 341 308 293
4 507 308 550 341
4 499 550 341 507
4 309 294 508 498
4 309 508 294 314
4 499 90 341 293
4 499 82 90 293
4 469 492 319 278
4 500 320 298 297
4 297 320 94 500
4 297 500 94 79
4 501 492 319 469
4 549 279 217 263
4 500 298 320 503
4 500 549 298 503
4 330 488 303 495
4 330 495 560 465
4 495 332 287 303
4 495 303 330 332
4 497 333 506 306
4 495 287 332 333
4 495 497 333 513
4 495 497 287 333
4 338 334 309 506
4 497 506 333 513
4 513 506 333 334
4 508 338 314 309
4 338 508 506 309
4 338 519 506 508
4 341 509 499 507
4 342 508 338 314
4 319 111 501 469
4 500 503 320 510
4 504 502 323 374
4 504 323 326 374
4 502 374 346 323
4 353 330 553 560
4 513 358 334 333
4 341 520 507 359
4 514 359 551 505
4 341 337 361 359
4 519 360 338 506
4 519 513 360 506
4 338 360 334 506
4 513 334 358 360
4 513 506 334 360
4 505 514 359 507
4 508 521 338 519
4 508 521 342 338
4 521 342 338 363
4 509 365 341 104
4 509 365 104 110
4 319 369 501 126
4 510 370 511 320
4 510 511 370 523
4 517 373 350 348
4 511 517 348 373
4 351 374 375 403
4 512 374 403 524
4 376 525 517 353
4 329 378 382 518
4 525 353 376 380
4 525 353 380 553
4 525 380 528 553
4 380 332 358 553
4 358 553 513 557
4 341 520 392 509
4 341 392 365 509
4 522 509 110 365
4 522 509 392 520
4 522 509 365 392
4 123 521 410 363
4 522 393 392 365
4 397 523 373 531
4 516 396 374 524
4 511 373 531 517
4 532 397 373 531
4 552 524 512 403
4 374 400 375 403
4 401 532 397 373
4 401 532 373 517
4 404 525 376 380
4 525 528 404 534
4 404 525 380 528
4 556 384 405 526
4 556 529 386 554
4 556 384 386 405
4 557 513 387 519
4 557 513 358 387
4 556 529 405 386
4 558 557 387 519
4 558 521 387 410
4 558 521 519 387
4 406 558 387 410
4 557 387 240 530
4 557 558 387 530
4 557 240 527 530
4 530 387 240 406
4 530 558 406 537
4 530 558 387 406
4 558 410 406 537
4 558 521 410 537
4 410 537 521 142
4 539 522 393 392
4 523 145 397 394
4 523 145 394 137
4 141 147 396 533
4 523 397 145 413
4 523 531 397 413
4 396 516 533 524
4 396 533 400 524
4 403 420 378 552
4 524 420 403 552
4 535 552 378 420
4 540 524 552 420
4 534 421 404 376
4 534 421 376 517
4 517 376 401 421
4 517 421 532 534
4 534 543 528 404
4 528 425 404 543
4 536 561 405 446
4 559 446 561 536
4 530 429 406 240
4 530 538 429 543
4 530 429 240 543
4 421 541 450 532
4 541 440 404 421
4 440 541 450 421
4 543 440 425 404
4 561 443 446 559
4 561 443 559 535
4 535 443 559 542
4 542 540 535 443
4 444 543 440 425
4 425 543 429 426
4 472 536 539 446
4 158 539 150 165
4 540 420 443 452
4 543 444 440 544
4 541 440 450 199
4 541 544 440 199
4 199 440 450 454
4 199 544 440 454
4 443 472 446 559
4 544 444 454 457
4 446 472 456 188
4 5 16 2 473
4 478 11 1 232
4 241 50 65 60
4 241 50 545 65
4 56 64 71 256
4 94 500 320 108
4 510 370 320 115
4 523 394 370 137
4 540 193 452 542
4 456 197 188 472
4 199 544 454 208
4 473 16 2 230
4 473 16 230 476
4 473 16 476 18
4 473 5 16 18
4 227 475 545 474
4 473 230 483 476
4 247 478 484 475
4 247 475 229 478
4 247 229 232 478
4 474 227 241 545
4 467 477 262 464
4 262 477 246 464
4 475 247 227 546
4 475 227 545 546
4 477 246 547 493
4 478 484 250 247
4 478 484 479 250
4 546 247 265 484
4 250 484 479 485
4 480 482 486 253
4 268 481 237 254
4 268 485 481 489
4 485 237 250 268
4 485 237 268 481
4 489 481 268 254
4 467 487 278 262
4 477 487 467 262
4 487 262 281 278
4 278 467 492 487
4 487 246 493 281
4 263 549 545 546
4 547 283 493 246
4 483 246 210 283
4 284 484 265 250
4 284 265 484 546
4 284 546 484 488
4 284 546 488 465
4 484 250 284 488
4 480 286 253 486
4 485 490 268 250
4 267 250 268 490
4 490 250 488 267
4 486 253 271 288
4 550 271 308 491
4 550 271 293 308
4 491 308 288 271
4 547 34 283 548
4 283 326 547 493
4 287 303 267 490
4 287 303 490 495
4 486 286 288 491
4 287 497 495 490
4 498 496 497 287
4 308 507 550 491
4 504 493 547 326
4 504 493 323 502
4 504 493 326 323
4 326 34 547 504
4 505 491 308 305
4 491 551 215 505
4 505 491 507 308
4 308 337 341 507
4 308 337 507 505
4 498 508 309 506
4 104 499 96 90
4 104 509 499 341
4 104 499 90 341
4 104 96 499 509
4 111 319 501 126
4 510 503 320 511
4 504 502 374 512
4 504 512 374 326
4 34 326 512 504
4 34 326 352 512
4 34 326 351 352
4 34 512 352 552
4 553 495 560 330
4 553 495 330 332
4 553 380 332 330
4 329 551 494 34
4 495 333 553 513
4 495 333 332 553
4 553 333 332 358
4 553 513 333 358
4 514 551 359 515
4 341 520 509 507
4 555 514 520 359
4 555 515 514 359
4 369 132 396 516
4 369 516 396 346
4 523 373 370 397
4 346 516 374 502
4 346 516 396 374
4 346 516 502 501
4 552 512 352 403
4 353 376 350 517
4 517 350 373 376
4 352 518 34 552
4 384 551 526 515
4 384 515 359 551
4 384 518 526 551
4 359 384 386 555
4 359 555 515 384
4 526 515 554 384
4 384 555 515 554
4 555 554 384 386
4 387 519 360 338
4 387 519 513 360
4 387 513 358 360
4 359 386 389 555
4 359 389 520 555
4 520 359 341 389
4 338 387 519 521
4 338 521 363 410
4 521 338 387 410
4 520 392 389 341
4 523 394 397 370
4 517 532 373 531
4 401 373 376 517
4 552 561 378 518
4 535 552 561 378
4 526 382 384 405
4 380 553 358 527
4 358 553 557 527
4 380 527 528 553
4 528 380 240 527
4 240 380 358 527
4 528 380 404 425
4 526 561 405 556
4 526 518 382 561
4 384 554 526 556
4 536 556 405 561
4 557 240 387 358
4 557 358 527 240
4 556 384 554 386
4 386 529 555 554
4 386 389 555 529
4 529 555 520 389
4 392 520 389 529
4 539 520 522 392
4 539 520 392 529
4 539 522 143 393
4 532 413 416 397
4 413 531 397 532
4 400 420 403 524
4 533 524 420 400
4 540 524 420 533
4 421 532 401 517
4 525 404 376 534
4 525 376 517 534
4 404 541 534 543
4 556 405 529 536
4 527 240 543 530
4 429 543 425 240
4 537 430 410 406
4 530 406 429 538
4 530 406 538 537
4 430 538 429 406
4 430 537 538 406
4 539 158 150 143
4 151 142 537 410
4 151 538 430 537
4 151 430 410 537
4 150 143 393 539
4 413 169 153 531
4 421 532 534 541
4 450 184 532 541
4 541 534 421 404
4 540 443 420 535
4 541 543 404 440
4 559 536 472 446
4 538 430 429 164
4 538 429 543 164
4 447 164 429 430
4 447 164 543 429
4 539 446 176 472
4 170 158 165 539
4 170 165 176 539
4 170 176 472 539
4 542 540 443 452
4 542 456 452 443
4 542 452 456 193
4 544 541 440 543
4 544 454 444 440
4 442 456 446 443
4 559 472 542 443
4 543 544 194 457
4 543 444 544 457
4 456 472 542 197
4 560 353 330 465
4 329 518 34 352
4 353 380 330 355
4 240 425 528 543
4 353 560 553 525
4 353 560 525 517

CELL_TYPES 2324
10
10
10
10
10
10
10
10
10
10
10
10
10
10
10
10
10
10
10
10
10
10
10
10
10
10
10
10
10
10
10
10
10
10
10
10
10
10
10
10
10
10
10
10
10
10
10
10
10
10
10
10
10
10
10
10
10
10
10
10
10
10
10
10
10
10
10
10
10
10
10
10
10
10
10
10
10
10
10
10
10
10
10
10
10
10
10
10
10
10
10
10
10
10
10
10
10
10
10
10
10
10
10
10
10
10
10
10
10
10
10
10
10
10
10
10
10
10
10
10
10
10
10
10
10
10
10
10
10
10
10
10
10
10
10
10
10
10
10
10
10
10
10
10
10
10
10
10
10
10
10
10
10
10
10
10
10
10
10
10
10
10
10
10
10
10
10
10
10
10
10
10
10
10
10
10
10
10
10
10
10
10
10
10
10
10
10
10
10
10
10
10
10
10
10
10
10
10
10
10
10
10
10
10
10
10
10
10
10
10
10
10
10
10
10
10
10
10
10
10
10
10
10
10
10
10
10
10
10
10
10
10
10
10
10
10
10
10
10
10
10
10
10
10
10
10
10
10
10
10
10
10
10
10
10
10
10
10
10
10
10
10
10
10
10
10
10
10
10
10
10
10
10
10
10
10
10
10
10
10
10
10
10
10
10
10
10
10
10
10
10
10
10
10
10
10
10
10
10
10
10
10
10
10
10
10
10
10
10
10
10
10
10
10
10
10
10
10
10
10
10
10
10
10
10
10
10
10
10
10
10
10
10
10
10
10
10
10
10
10
10
10
10
10
10
10
10
10
10
10
10
10
10
10
10
10
10
10
10
10
10
10
10
10
10
10
10
10
10
10
10
10
10
10
10
10
10
10
10
10
10
10
10
10
10
10
10
10
10
10
10
10
10
10
10
10
10
10
10
10
10
10
10
10
10
10
10
10
10
10
10
10
10
10
10
10
10
10
10
10
10
10
10
10
10
10
10
10
10
10
10
10
10
10
10
10
10
10
10
10
10
10
10
10
10
10
10
10
10
10
10
10
10
10
10
10
10
10
10
10
10
10
10
10
10
10
10
10
10
10
10
10
10
10
10
10
10
10
10
10
10
10
10
10
10
10
10
10
10
10
10
10
10
10
10
10
10
10
10
10
10
10
10
10
10
10
10
10
10
10
10
10
10
10
10
10
10
10
10
10
10
10
10
10
10
10
10
10
10
10
10
10
10
10
10
10
10
10
10
10
10
10
10
10
10
10
10
10
10
10
10
10
10
10
10
10
10
10
10
10
10
10
10
10
10
10
10
10
10
10
10
10
10
10
10
10
10
10
10
10
10
10
10
10
10
10
10
10
10
10
10
10
10
10
10
10
10
10
10
10
10
10
10
10
10
10
10
10
10
10
10
10
10
10
10
10
10
10
10
10
10
10
10
10
10
10
10
10
10
10
10
10
10
10
10
10
10
10
10
10
10
10
10
10
10
10
10
10
10
10
10
10
10
10
10
10
10
10
10
10
10
10
10
10
10
10
10
10
10
10
10
10
10
10
10
10
10
10
10
10
10
10
10
10
10
10
10
10
10
10
10
10
10
10
10
10
10
10
10
10
10
10
10
10
10
10
10
10
10
10
10
10
10
10
10
10
10
10
10
10
10
10
10
10
10
10
10
10
10
10
10
10
10
10
10
10
10
10
10
10
10
10
10
10
10
10
10
10
10
10
10
10
10
10
10
10
10
10
10
10
10
10
10
10
10
10
10
10
10
10
10
10
10
10
10
10
10
10
10
10
10
10
10
10
10
10
10
10
10
10
10
10
10
10
10
10
10
10
10
10
10
10
10
10
10
10
10
10
10
10
10
10
10
10
10
10
10
10
10
10
10
10
10
10
10
10
10
10
10
10
10
10
10
10
10
10
10
10
10
10
10
10
10
10
10
10
10
10
10
10
10
10
10
10
10
10
10
10
10
10
10
10
10
10
10
10
10
10
10
10
10
10
10
10
10
10
10
10
10
10
10
10
10
10
10
10
10
10
10
10
10
10
10
10
10
10
10
10
10
10
10
10
10
10
10
10
10
10
10
10
10
10
10
10
10
10
10
10
10
10
10
10
10
10
10
10
10
10
10
10
10
10
10
10
10
10
10
10
10
10
10
10
10
10
10
10
10
10
10
10
10
10
10
10
10
10
10
10
10
10
10
10
10
10
10
10
10
10
10
10
10
10
10
10
10
10
10
10
10
10
10
10
10
10
10
10
10
10
10
10
10
10
10
10
10
10
10
10
10
10
10
10
10
10
10
10
10
10
10
10
10
10
10
10
10
10
10
10
10
10
10
10
10
10
10
10
10
10
10
10
10
10
10
10
10
10
10
10
10
10
10
10
10
10
10
10
10
10
10
10
10
10
10
10
10
10
10
10
10
10
10
10
10
10
10
10
10
10
10
10
10
10
10
10
10
10
10
10
10
10
10
10
10
10
10
10
10
10
10
10
10
10
10
10
10
10
10
10
10
10
10
10
10
10
10
10
10
10
10
10
10
10
10
10
10
10
10
10
10
10
10
10
10
10
10
10
10
10
10
10
10
10
10
10
10
10
10
10
10
10
10
10
10
10
10
10
10
10
10
10
10
10
10
10
10
10
10
10
10
10
10
10
10
10
10
10
10
10
10
10
10
10
10
10
10
10
10
10
10
10
10
10
10
10
10
10
10
10
10
10
10
10
10
10
10
10
10
10
10
10
10
10
10
10
10
10
10
10
10
10
10
10
10
10
10
10
10
10
10
10
10
10
10
10
10
10
10
10
10
10
10
10
10
10
10
10
10
10
10
10
10
10
10
10
10
10
10
10
10
10
10
10
10
10
10
10
10
10
10
10
10
10
10
10
10
10
10
10
10
10
10
10
10
10
10
10
10
10
10
10
10
10
10
10
10
10
10
10
10
10
10
10
10
10
10
10
10
10
10
10
10
10
10
10
10
10
10
10
10
10
10
10
10
10
10
10
10
10
10
10
10
10
10
10
10
10
10
10
10
10
10
10
10
10
10
10
10
10
10
10
10
10
10
10
10
10
10
10
10
10
10
10
10
10
10
10
10
10
10
10
10
10
10
10
10
10
10
10
10
10
10
10
10
10
10
10
10
10
10
10
10
10
10
10
10
10
10
10
10
10
10
10
10
10
10
10
10
10
10
10
10
10
10
10
10
10
10
10
10
10
10
10
10
10
10
10
10
10
10
10
10
10
10
10
10
10
10
10
10
10
10
10
10
10
10
10
10
10
10
10
10
10
10
10
10
10
10
10
10
10
10
10
10
10
10
10
10
10
10
10
10
10
10
10
10
10
10
10
10
10
10
10
10
10
10
10
10
10
10
10
10
10
10
10
10
10
10
10
10
10
10
10
10
10
10
10
10
10
10
10
10
10
10
10
10
10
10
10
10
10
10
10
10
10
10
10
10
10
10
10
10
10
10
10
10
10
10
10
10
10
10
10
10
10
10
10
10
10
10
10
10
10
10
10
10
10
10
10
10
10
10
10
10
10
10
10
10
10
10
10
10
10
10
10
10
10
10
10
10
10
10
10
10
10
10
10
10
10
10
10
10
10
10
10
10
10
10
10
10
10
10
10
10
10
10
10
10
10
10
10
10
10
10
10
10
10
10
10
10
10
10
10
10
10
10
10
10
10
10
10
10
10
10
10
10
10
10
10
10
10
10
10
10
10
10
10
10
10
10
10
10
10
10
10
10
10
10
10
10
10
10
10
10
10
10
10
10
10
10
10
10
10
10
10
10
10
10
10
10
10
10
10
10
10
10
10
10
10
10
10
10
10
10
10
10
10
10
10
10
10
10
10
10
10
10
10
10
10
10
10
10
10
10
10
10
10
10
10
10
10
10
10
10
10
10
10
10
10
10
10
10
10
10
10
10
10
10
10
10
10
10
10
10
10
10
10
10
10
10
10
10
10
10
10
10
10
10
10
10
10
10
10
10
10
10
10
10
10
10
10
10
10
10
10
10
10
10
10
10
10
10
10
10
10
10
10
10
10
10
10
10
10
10
10
10
10
10
10
10
10
10
10
10
10
10
10
10
10
10
10
10
10
10
10
10
10
10
10
10
10
10
10
10
10
10
10
10
10
10
10
10
10
10
10
10
10
10
10
10
10
10
10
10
10
10
10
10
10
10
10
10
10
10
10
10
10
10
10
10
10
10
10
10
10
10
10
10
10
10
10
10
10
10
10
10
10
10
10
10
10
10
10
10
10
10
10
10
10
10
10
10
10
10
10
10
10
10
10
10
10
10
10
10
10
10
10
10
10
10
10
10
10
10
10
10
10
10
10
10
10
10
10
10
10
10
10
10
10
10
10
10
10
10
10
10
10
10
10
10
10
10
10
10
10
10
10
10
10
10
10
10
10
10
10
10
10
10
10
10
10
10
10
10
10
10
10
10
10
10
10
10
10
10
10
10
10
10
10
10
10
10
10
10
10
10
10
10
10
10
10
10
10
10
10
10
10
10
10
10
10
10
10
10
10
10
10
10
10
10
10
10
10
10
10
10
10
10
10
10
10
10
10
10
10
10
10
10
10
10
10
10
10
10
10
10
10
10
10
10
10
10
10
10
10
10
10
10
10
10
10
10
10
10
10
10
10
10
10
10
10
10
10
10
10
10
10
10
10
10
10
10
10
10
10
10
10
10
10
10
10
10
10
10
10
10
10
10
10
10
10
10
10
10
10
10
10
10
10
10
10
10
10
10
10
10
10
10
10
10
10
10
10
10
10
10
10
10
10
10
10
10
10
10
10
10
10
10
10
10
10
10
10
10
10
10
10
10
10
10
10
10
10
10
10
10
10
10
10
10
10
10
10
10
10
10
10
10
10
10
10
10
10
10
10
10
10
10
10
10
10
10
10
10
10
10
10
10
10
10
10
10
10
10
10
10
10
10
10
10
10
10
10
10
10
10
10
10
10
10
10
10
10
10
10
10
10
10
10
10
10
10
10
10
10
10
10
10
10
10
10
10
10
10
10
10
10
10
10
10
10
10
10
10
10
10
10
10
10
10
10
10
10
10
10
10
10
10
10
10
10
10
10
10
10
10
10
10
10
10
10
10
10
10
10
10
10
10
10
10
10
10
10
10
10
10
10
10
10
10
10
10
10
10
10
10
10
10
10
10
10
10
10
10
10
10
10
10
10
10
10
10
10
10
10
10
10
10
10
10
10
10
10
10
10
10
10
10
10
10
10
10
10
10
10
10
10
10
10
10
10
10
10
10
10
