# vtk DataFile Version 2.0
fine_cylinder_, Created by Gmsh
ASCII
DATASET UNSTRUCTURED_GRID
POINTS 688 double
-0.999972224 0.00418140041 0.09999841449999999
-0.999708652 0.0116871363 -0.09998832639999999
-0.9988556122030761 -0.04023936845121812 0.000283386161078129
-0.996894717 0.0539170802 0.000800311565
-0.995296478 -0.0958595574 0.0999897495
-0.995291591 -0.0982836634 -0.0999909192
-0.994638681 0.103335097 0.100000039
-0.994517267 0.104321949 -0.0999809131
-0.9896035351679139 -0.1371500233857415 -0.0008832561544262053
-0.9885217601180818 0.1474350329057184 0.01225556812753789
-0.9821527844582107 -0.187864956492662 0.09998896043846491
-0.980597079 0.19607465 -0.09999892859999999
-0.9800740577509149 0.1987245098211351 0.09999882554094297
-0.978335798 -0.206909791 -0.0999930352
-0.9696375776737367 0.2436407853391613 -0.01209022634993642
-0.9698765135626831 -0.2365038709699305 -0.004604733177876671
-0.9600672024528111 -0.2784508898353187 0.0999996852042745
-0.95407337 0.299554646 0.0999961123
-0.953908801 0.300082833 -0.100000061
-0.9556162764460439 -0.2923902853822241 -0.09999960253995134
-0.9413599352946997 -0.3348696359277554 0.01191116941299709
-0.9346245240712658 0.3540660998324264 -0.01063114177959349
0.115921334384493 0.0503510576961555 0.100000001
-0.01600547251939707 -0.03122079481669005 -0.100000001
-0.922867417 -0.385660022 0.0999913216
-0.919236183 -0.393619061 -0.10000287
-0.918264508 0.395904303 -0.0999973789
-0.9198036213379649 0.3909836575962545 0.09999875799914563
-0.901837778375822 -0.430267920627276 -0.009189666519133083
-0.8979657318592082 0.43877118313834 0.01365290572448107
-0.876700938 -0.481105447 -0.100004658
-0.876228988 -0.481574118 0.0999972969
-0.875357211 0.483860403 -0.0999981239
-0.869642377 0.493685037 0.09999981519999999
-0.8429322595964528 -0.5367333213732879 0.009867885413800664
-0.8470547446834094 0.5298198878781377 0.007614382441237941
-0.820637107 -0.57141614 0.100000732
-0.817959011 -0.575197339 -0.100000136
-0.8122730419174071 0.5825609497393104 -0.09999894327235907
-0.810967028 0.5850495100000001 0.100000136
-0.78483662527251 -0.6186264262194104 0.00855788231553152
-0.7833423733833809 0.620486713471305 0.004608190090282305
-0.752903044 -0.658053637 -0.100003585
-0.75172466 -0.659379244 0.10000363
-0.747820318 0.663968742 -0.0999988467
-0.745252311 0.66680783 0.09999902550000001
-0.7122028331377325 -0.7021255348886448 0.003593512475739936
-0.708343983 0.7039024230000001 -0.00103864644
-0.68056798 -0.732706904 -0.0999915451
-0.6814408067751097 -0.7313586213791656 0.09999736773420133
-0.6676096282721548 0.7440107212088196 0.1000018598811741
-0.669150233 0.7431153660000001 -0.0999999419
-0.636688411 -0.770311773 0.000238254506
-0.6340252111101138 0.7730288831550921 -0.001684615367546921
-0.599894047 -0.800160944 -0.0999945179
-0.5890386372290952 0.8080932945358398 0.09999914842118861
-0.587104797 0.809503496 -0.100000083
-0.560904012891384 -0.8259451843071922 -0.01617010421169096
-0.5434726234194664 0.8377895862932521 -0.006643328717355311
-0.5080239185756306 -0.8611071779074849 -0.1000041840060483
-0.503633678 -0.863862813 0.100000933
-0.501734495 0.865015566 0.100000687
-0.5047762175525882 0.8628607603400098 -0.09999983271429605
-0.457749307 -0.889152884 -0.000431558583
-0.4537665274773199 0.8910357183094579 -0.01240167190407406
-0.410319656 -0.911957443 -0.0999972373
-0.408576816 0.912717223 0.100000069
-0.406066656 0.9138183 -0.100000516
-0.4125065984385383 -0.9104452332621672 0.09999717900979878
-0.36243140324193 -0.9304758972871193 0.008108569882900788
-0.3500413607570002 0.9360837690255274 -0.006418291706872879
-0.311177671 -0.9503555889999999 -0.100001104
-0.309113294 0.950999677 0.100000232
-0.307338357 0.951471984 -0.099997215
-0.30704996 -0.951653063 0.0999981761
-0.257944733 -0.966216445 3.39095714e-05
-0.2477500578794098 0.9677251617364819 -0.0001048812096013195
-0.213145688 0.977013111 -0.099999167
-0.209145322 -0.977893651 -0.099999167
-0.2153775234077634 0.9759740779103053 0.1000002796924779
-0.201476067 -0.979482174 0.09999805690000001
-0.1491109447182412 0.9881574618242248 -0.004559304671107792
-0.1533016425778357 -0.9867761324124167 -0.01166459474481395
-0.104248449 0.994526267 -0.0999993384
-0.104137599 0.994559228 0.100000218
-0.101583689 -0.994840026 -0.0999994278
-0.101023249 -0.994819403 0.0999954939
-0.04407788139253258 0.9980925073749153 0.006722541277411668
-0.04128468554917038 -0.9987039069462196 6.014046264351364e-05
0.00043575326 0.999995768 -0.0999999642
0.00224844646 0.9999904040000001 0.100000069
0.004330229664469207 -0.9999113698906356 0.1000007799989346
0.00404599821 -0.999972105 -0.100001231
0.0521479125336493 0.9971718419353227 0.01194166572055025
0.05774520874788076 -0.9968633137443267 0.0006986668055509369
0.106638812 0.994305432 0.0999988765
0.108323567 -0.994131148 0.09999841449999999
0.10909339 -0.994059443 -0.0999976397
0.110200115 0.993930578 -0.099996686
0.157657921 -0.987564683 0.000900116924
0.1508352579301172 0.9881215821854856 0.003995944953346119
0.203919977 -0.979008496 -0.0999966264
0.210432261 0.977593303 0.100001127
0.211868182 -0.977285206 0.100001313
0.2094727482808978 0.9775709808668418 -0.1000016810034947
0.2498723774568524 -0.9666118328015224 0.0003880385481353202
0.2575208198813844 0.9646506423049884 -0.001108574537585657
0.297683418 -0.954675078 -0.100002117
0.309712887 0.950837672 0.0999998748
0.310514927 -0.95057714 0.0999996588
0.314181924 0.949388385 -0.0999980122
0.3589317048086333 -0.932689923590393 -0.01199719950080096
0.3542072894771551 0.9350481014171402 0.01345465721310318
0.403308243 -0.915024042 -0.100000098
0.408226818 -0.912854731 0.100000516
0.409334332 0.912351191 0.100001283
0.4057219043205636 0.9136867586492907 -0.1000002902662683
0.4536129614014149 -0.8904061409059607 -0.01210730864664845
0.4585302321248004 0.8869328354362367 -0.001165347478446932
0.497783482 -0.867256999 -0.10000059
0.499603748 0.866236329 0.0999998748
0.501303196 -0.865240455 0.100000665
0.502014995 0.864819884 -0.09999446569999999
0.5423960419450722 -0.8396212987143011 -0.006434330220179847
0.543892452808512 0.8385162962102893 0.001120403896749445
0.5804838225745393 -0.8137339796661135 -0.1000005761560112
0.587706566 0.8090273140000001 0.100000516
0.5828817201623331 -0.8121306985466614 0.1000009094844315
0.58870703 0.808279276 -0.099992767
0.6260113671131553 0.779069349664954 0.004545376417434088
0.6280349571593467 -0.7773154849892085 0.007132038872713839
0.668001100533446 0.7439920712351613 0.0991675438633122
0.670313001 0.741945386 -0.0999986678
0.6718086 -0.740691483 -0.09999998659999999
0.6751483460766275 -0.7373405337238562 0.1000007557092089
0.706528664 0.706821084 7.30099491e-05
0.710717197818032 -0.7028767123872784 -0.00611919460037455
0.744289815 0.667813301 0.100000173
0.7387589796700695 0.673254405752342 -0.09999832395595037
0.745570242 -0.666272938 0.09999952469999999
0.7494804859999999 -0.662047327 -0.100000262
0.777324962496205 0.6282348553125652 0.008630387462932099
0.7760731805975607 -0.6293195833219597 0.00257848855415646
0.810037851 0.586631358 -0.0999960676
0.812181771 0.583420813 0.0999983773
0.813510776 -0.581486523 0.09999628369999999
0.81885916 -0.574064493 -0.0999976024
0.840153217 0.541323781 0.000354185788
0.8424294400326182 -0.537612782180892 -0.0006536841023291608
0.867929578 0.496737033 -0.0999966264
0.871125877 0.490947187 0.09999956190000001
0.8737216283566289 -0.4857945373808937 0.09999708572466701
0.874734104 -0.484703004 -0.09999305009999999
0.8954412002172 0.4431994089311042 0.0003625029400273645
0.895353556 -0.446081161 0.00192466739
0.914935708 0.403525203 -0.09999060630000001
0.916114807 -0.400554687 -0.0999960676
0.918104112 -0.395961195 0.09999683500000001
0.9204002019999999 0.391242623 0.0999860913
0.9363807935908455 -0.3487791371487811 -0.001702719071368949
0.9364835374123681 0.3504653117467375 -0.01036521218763941
0.948818207 -0.316134721 -0.0999983475
0.952410698 0.304582298 -0.0999992639
0.954117656 -0.299497396 0.100000888
0.95465517 0.296833485 0.0999963135
0.965096070272184 -0.2591856648819491 0.01080004439192495
0.967844248 0.250072837 -5.99210325e-05
0.976209819 -0.21637027 -0.0999982581
0.977093875 -0.211932525 0.0999748558
0.979168355 0.202309534 -0.0999972224
0.980467856 0.196358964 0.100001827
0.9867450266454334 -0.1562661688770229 0.0004898578495210323
0.9888117910000001 0.145413443 0.00026294397
0.992638171 -0.121447295 0.0999866277
0.993575275 -0.113742068 -0.0999950767
0.994577641060074 0.1017230540219985 -0.09998198671879721
0.996405125 0.08478451519999999 0.100007169
0.996553063 -0.0642677695 -0.000568869698
0.9984505109896165 0.03569449057004528 -0.0006254287678613692
0.999773443 -0.0228636116 0.100003459
0.9999324080000001 -0.00991955772 -0.0999947637
0.2043916989618531 -0.1664027563661858 0.100000001
0.601497976338776 0.02446955857521102 0.09999883501550219
0.6052957400254797 0.1024428549946901 0.006029257688394222
0.5255588601375339 0.5385831870388154 0.100000001
0.3708407667164469 -0.6773996517473568 -0.100000001
-0.1588744288519517 0.1878331494828013 0.100000001
0.4930642160551348 -0.5984382512143238 -0.100000001
0.6489957846553761 0.5769677489123729 0.1000000131753834
0.6263800694467616 -0.1281234815124523 0.100000001
0.8535859749215244 0.1729747184892431 -0.09999993811951016
-0.05810270212070451 0.7297849730141822 -0.0999999974280056
0.1212347450409822 0.5312750180394454 0.01126672892830844
0.1545022720078398 -0.2691041105875603 -0.100000001
0.4611463762005593 0.3917706874696623 -0.100000001
0.4859003727589937 0.6378103807854741 0.03501276465733347
0.1001410945602205 -0.2895147215692945 0.100000001
0.104602221695376 -0.2086855746734446 0.100000001
0.7588055040618102 0.338068194909952 -0.004653434043186923
-0.8784748478628176 -0.1921172764946832 0.0003928423477302647
0.7862895170440847 -0.1003849893938087 -0.02775746962283856
-0.8938790824389525 0.05941585445517102 0.004973887377543079
-0.7325328548372593 -0.1885560901022178 -0.003662812915156808
0.2469965095035931 0.6753992297472085 -0.1000000054301192
-0.7256343163427801 0.0482388941336311 -0.001825699094489081
-0.1454264069403801 0.8117913990047784 -0.0999999873299165
-0.2562703180719951 0.4532018865587746 0.100000001
0.01577607835610482 0.4396823732483882 -0.005068572773982377
0.8674344956841374 0.02945086282542142 0.09999958909252309
0.710963916218912 -0.2292516425473325 0.09999893603839102
0.3006113693628933 0.2547780887815299 -0.100000001
-0.602101941419218 -0.4408050676362908 0.004796811800140257
-0.6265852713521782 -0.3295350222704127 -0.0174113832793252
-0.6054539644408675 -0.206203527333469 -0.007198575713947336
-0.6010151425388472 0.09803063919785997 0.0143076864758042
0.4588664473564852 0.3349663319006235 0.01520088748111538
-0.6038056081729574 0.4622545531525258 0.0007472864578811185
-0.07340846206337691 0.09726860669750342 0.006236682872542389
-0.718775476705426 -0.05471445026023485 0.008479657491730647
-0.4900862952424634 -0.7521777880093165 -0.003935257801592169
-0.4718961229240564 -0.3275679329414912 0.0004527994167561978
-0.4754910097979348 0.06103897282204972 0.005559930256280663
0.009342323237991071 0.8386194593293035 -0.1000001652257613
-0.4652981434813007 0.6340791238021036 0.001470320066194282
-0.7954879065148192 -0.4745918416137012 0.008342893671675873
-0.560890394173817 -0.5408588877688832 0.100000001
-0.02750536363956643 0.2206697255265516 0.100000001
-0.2973734895406922 0.3527215211356152 0.100000001
0.3383777266374814 0.4831605629067801 -0.002386760138683052
-0.7885275900462426 -0.3461689347674741 0.03325305427064271
-0.4572039301337178 -0.7056527311273729 -0.100000001
0.3876439727883995 -0.7449649955154463 0.100000007051494
-0.8404315820627384 -0.3216947963715451 -0.03859483392569379
0.0287955687078423 -0.2680254966214668 0.01900710286415343
-0.3365638259572651 -0.2044308566396199 -0.006417401187157609
0.06513444562332554 -0.3492707959067165 0.01764761817016078
-0.3396816194104426 -0.04649165867888017 0.000726521505314389
-0.3026248696754391 0.08321169706537486 -0.001643715367331075
-0.3713706265070917 0.3310406757576813 0.00948843604094118
-0.3136668360703903 0.4768818128987344 0.009131322038184236
-0.3193524227830603 0.765658428330548 -0.0139269632397817
-0.06047914804882152 -0.5325706985903893 0.009080034280581548
-0.2115066493070313 -0.7585841024811837 -0.02253259307711248
-0.2113783965568293 -0.4778784347472234 -0.0002349635590826432
-0.1998307293469022 -0.3330005516908905 0.005102936328848546
0.7444363585309867 0.3994814339702092 -0.09999983076968515
-0.2225903074056722 -0.05898106665095501 0.00973927090573775
0.1145958897231815 -0.273041879490729 -0.01546472555503198
0.5934112145442201 0.6845189074830089 0.007836950824277393
0.8186847959880377 -0.2682593536563975 -0.1000000456364773
0.5548431413779035 -0.1987750298624559 -0.03731752283797093
0.7784160117956141 0.2808192584786767 -0.1000000589347707
0.2667570428450565 -0.2966485224543476 -0.100000001
0.3945180098915589 -0.3132941023762139 -0.100000001
0.2151193546315674 0.4443425626516086 0.007110765724331382
0.5094844065966567 0.40298266366499 0.09999950709435555
0.4316910941019859 -0.02030126125037725 -0.100000001
-0.7759271918116526 0.4450805003053292 -0.01751746712617499
-0.09524114159875846 -0.8852111536770355 0.0001207904065936398
-0.3956645694289577 0.02894264438391213 0.100000001
-0.07999105599178559 -0.7120316479994484 -0.003399597198373122
0.345532018534669 -0.06132848037656802 0.008855891740978755
0.3817989538595167 -0.3636081798469971 -0.005802323958080086
0.1885885243228464 -0.5079964982518007 -0.006315761605952746
0.7511192357815999 0.1380088840347437 -0.01561631116538596
-0.6045599292713023 -0.03677955327276188 0.004529687229632694
-0.0684463561654495 -0.3251781793574268 0.007319201345963227
-0.07181026819207442 -0.2139468614416456 -0.001578992299039518
-0.655997021312878 -0.0530410683128597 -0.100000001
-0.1033745046106213 -0.04411022524251561 -0.009905058459186886
-0.634359060965523 0.5712234920399863 0.09999998476587581
-0.0779212126736232 0.34914745760764 -0.002229974802317054
-0.01966596453659842 0.2567853882246322 -0.100000001
-0.8719824899854924 -0.003273920789649471 0.1000001194178956
0.08413235292032742 0.7105689331148717 0.02329410877472391
0.7666483967251814 -0.3883498556839566 -0.1000000010486831
-0.09101476035489982 0.06821805712231076 0.100000001
-0.6295473445143291 -0.6586224133692206 0.006978292937694557
0.8267761622714611 -0.1355513166755194 -0.09999694514319676
-0.7224511923647174 -0.4945538745973383 0.1000000005204799
0.08346281389649338 -0.7520160643108559 -0.002284599942162355
0.06972894200571729 -0.59351827838263 -0.00310017473091835
0.05943815578369174 -0.5642033643229997 -0.100000001
0.04482632356886265 -0.4488496528571512 -0.001178980032304588
0.208300688364454 0.639841920714425 -0.01079108023898754
0.4771248698404005 0.2339136996065683 0.100000001
-0.1704466657800578 0.5151782962455488 0.0325090145916337
-0.3887986787768972 0.8195372979332298 -0.100000173640657
0.05630157525743621 -0.07770145851472586 0.007895925072604431
0.2285566579928748 -0.4853007584344942 0.100000001
0.04021781925536021 0.180599120189455 -0.006202482524409986
0.6286591621400933 -0.5795095245381556 -0.09999999257766641
-0.01162443326959858 -0.296415594424157 -0.0999986117067852
-0.5482933474786885 -0.2024050826845278 0.100000001
0.4955677526316886 0.2079005449873372 -0.00294800822940514
-0.09276780702991891 0.8402488884903251 -0.005250040414587793
-0.7412240347732301 -0.4000192853597235 -0.02290782864343892
0.1909857226160398 -0.1746636272350583 0.001613724218167358
-0.1906226488978685 0.3527470016182639 -0.100000001
0.1900617655148429 0.04547430660882389 0.008322764400038041
-0.5286228322299222 0.6583415949221771 -0.1000000214537111
0.2068998439126731 0.7452122977529256 0.0008793514595415085
-0.4489675423695978 0.441299674934251 -0.01783629226558364
0.4653580582481078 0.04364247345815056 0.005137837121681256
-0.6999312890345643 0.5117536884524997 -0.0999999254686192
0.4026243883883334 -0.01769837118959206 0.100000001
-0.6089805927299222 0.5855742179221771 -0.09999940330371114
-0.4291056183392103 -0.3795052761700237 -0.100000001
-0.3703499176642301 -0.7593951671779671 0.09999871524938192
0.1471440078201728 -0.05082504522973135 0.009007272929971276
-0.01937100370896928 0.742182926690631 -0.01253666795311538
0.2184264568425409 -0.3498672861644432 -0.002668136900822313
-0.2056856706215653 0.16025466744127 0.03069929517062162
0.3502755031306922 -0.7915188400540176 -0.100000000642033
0.2185739665987436 -0.8204379723541083 0.0005687355982151381
0.04661436061697727 0.3667584115433236 -0.100000001
0.08097117289107265 0.1840675619860287 -0.100000001
-0.3636962271672652 -0.848268767994542 0.004129827843691097
0.65437351927424 0.09905728959392342 -0.100000001
0.343928992486232 -0.8419013868563897 0.00413310054600349
-0.6318923561178144 0.6399636027360767 -0.002144838656289462
0.1258927075265217 0.5122444645925431 -0.100000001
0.4785318262883008 -0.7523546151360974 -0.007186342764736448
0.27856006423218 -0.7789147085197212 0.09999999990903805
0.02057176096715396 -0.8664506422730709 0.09999762802890792
0.5152793640080836 0.1269756868414692 0.100000001
-0.3018662325020052 0.8185804372803239 0.100000015190383
-0.44075613669245 -0.6135654715923524 0.005282331384443744
-0.8064897323912487 0.3324111119956915 0.09999996206649846
0.4773812853186767 0.4820425747205727 0.008271611817063981
0.4860392111250931 0.7550071763877471 -0.007056617397179337
0.6214345619391464 -0.4931814900720216 -0.003987156096440023
0.5882284473585033 -0.07616777076129105 -0.006307273890025307
0.6499714185891334 0.4791373784168391 -0.004075442009028164
0.730385066329552 -0.1802093851546863 -4.997004425763576e-05
0.1485029117337138 -0.8944994397636102 -0.09999998843572648
0.2854563773576506 -0.5591248084552591 0.01698074554458556
0.3292454982477242 0.8451812043634351 0.004761598507207846
-0.5209560549975715 -0.2950848860133634 0.100000001
0.3965926306408508 -0.2998712503839873 0.100000001
0.8331213789818944 0.234704245652469 0.01257275462866971
-0.2267873040130799 0.8323594846460207 0.02595194644462282
-0.1167375274775533 0.09290904686090273 -0.100000001
0.8054954806104826 0.3174129359558575 0.1000007625727297
0.02163183831301656 0.01963774537215611 0.100000001
0.3627164457247214 0.2676569868752283 0.100000001
0.8848395780488688 0.0490003012166109 0.005191525244500851
-0.7665586386552159 0.02597080492004955 0.09999529948503566
-0.3491075858029377 0.5590035153390195 -0.09999999948811392
0.3509777705971082 -0.5177605020222481 0.100000001
-0.4334678614769969 -0.5675246005805312 0.09999999984930727
0.5723638817911897 -0.6460098714409228 0.004073687158910331
0.5170072851610522 0.3246836651160774 -0.1000000694894965
0.5488812437107639 0.5817125940491907 -0.034735063944618
-0.4210601175185179 0.4031798018071684 -0.100000001
-0.8463451083613063 0.2785690755331403 -0.09999964670715725
-0.6953345584524041 0.3219814796921795 0.009515145244274095
0.02229912057270053 0.6786362824816714 0.100000001
0.8871109346656024 -0.07620799027113166 0.01185160767853812
-0.3300274432255993 -0.3663095273945884 -0.002432790532240986
-0.3477302212315049 -0.6784666669860357 -0.01552068968948635
-0.2356970727921685 0.3581412796479754 -0.003714579135613732
-0.7416261053004854 0.2280949673472551 -0.1000000200438943
0.05902249700963747 -0.1885973031328902 0.0186894752795699
-0.07455130521387321 -0.03409242045302457 0.100000001
0.4956254832394296 -0.4195870387631985 0.009368841600239795
-0.01914970381659092 -0.8107322315163104 -0.003510874867928258
0.1964401853666575 -0.05668503271242997 0.100000001
0.7602023921778305 0.06926391109280816 0.1000000553755465
0.2582760353007333 -0.8073408231296249 -0.1000000013689793
0.2096157411974189 0.3884826614022903 -0.09999829954619537
0.4197877329963452 -0.537764481874295 -0.1000002068138337
0.6021457255820706 0.4760364099109021 0.100000001
-0.479534657067741 -0.4962147818052629 0.004922735546648245
0.3157788002891375 -0.7004954104701521 -0.002405751409704916
0.6123672710161676 -0.6128897463897962 0.09999997028404059
0.389593418732456 0.1168671975546375 -0.100000001
-0.4631808776548966 0.7827833290580791 0.0001776558782350256
-0.8137801094155108 -0.3765589140140209 -0.0999997864989613
-0.6760147338719823 -0.44961542992455 -0.1000000623566489
0.5769097770141897 -0.7375531901964384 -0.0480951990873577
0.7963412855864046 -0.3547001737547785 0.1000000503901001
-0.5489090358302264 -0.6044461423559343 -0.09999230085838973
0.5092432281343517 -0.06875465215529657 0.100000001
0.426283307693019 -0.6526456783318825 0.0091855892740022
-0.5990352407256869 -0.8003213409958652 0.09999825904670019
-0.501155217682222 -0.6828025300428482 0.09999999341890495
0.7593289446691519 -0.4608300430153337 0.0009055500772893412
0.8019232902756347 -0.02168076277672019 0.004675385205709743
-0.4530854903945133 0.7026825834067619 0.1000000116320169
0.8349171036862983 -0.3723854736664567 -0.01273546363035203
-0.02445573804236049 0.9227523520731403 -0.00325514700657531
-0.4438650065171078 0.6802134579859256 -0.1000000281191188
0.7907582228419204 0.4617509365883569 0.008094672354977265
-0.3152573166342755 -0.7857358635447069 -0.1000000041806301
0.3979257302434355 0.5951775279227904 -0.01018883924616014
0.6642139268272137 -0.5320051724496194 0.09999999606941805
-0.2230171254684451 0.2901772220691582 0.09999863859921657
0.6677446532233617 0.5818310963824055 -0.09999996174978584
-0.1867045223067489 0.07125148844911536 -0.02569202405344083
0.05338672934009341 -0.9057376444719539 0.003224665879945631
0.1605256822631125 0.1399153314099097 0.01079219025776432
-0.5296953287299222 0.678434083433969 0.1000002336498017
-0.2015003191970761 -0.7387701365461419 0.09999854683863332
0.2317906524399927 0.8310050695224046 -0.1000002907004106
0.7072295882956141 0.4890055866815434 -0.0999981027894965
0.06714022906569195 0.8731177937363496 0.09999943676020387
0.7518856016165109 0.5263195807775872 -0.03761077986674593
0.5546181807880716 0.667393317128454 0.1000000064082137
0.1820294911652562 0.8657579994172377 -0.01836258065563725
-0.218330793415217 0.8751262902008159 0.1000000115665227
0.4428027430711646 0.7677206660300336 0.100000027901966
0.1459068106819023 -0.8730941307363496 0.09999766800921439
-0.6252306499213989 -0.6457153616825079 0.1000000307086809
-0.571158719427475 0.0465449456649733 -0.100000001
0.1106244015032584 0.4018337238182275 -0.02189384598338126
0.1037509806488247 0.4664177846741495 0.100000001
-0.1882717298911322 -0.5445771055896693 -0.100000001
0.1264406348274842 -0.4044490741352101 0.100000001
-0.9209079578104772 -0.05629181423200595 0.003845651834888987
-0.5336786840902432 -0.3949756521612228 0.09999739141087344
0.07935084089462793 0.2104014914171316 0.100000001
0.3357807773284602 0.7943516648761217 -0.09999989848252827
0.7008187049710477 0.0437296779918025 0.007197357083185843
-0.1295070461490498 -0.7915328980034937 -0.1000000042740487
0.4597167154073639 -0.607974364843422 0.100000001
0.4566034327080449 0.6762007844853222 -0.09999995683033995
0.3922330475704769 0.7226604470993354 0.04121417975188753
-0.8954002729969721 -0.008927570611763455 -0.1000004033837589
-0.2092455712236561 0.8951263660078111 -0.03837010182769497
0.8730618738539966 0.1459395255029166 0.1000031869735229
-0.8224005881461578 -0.2522940870734433 0.1000001221620282
-0.8131848337981026 -0.1021896780211711 -0.09999989977551961
-0.7387814157226125 -0.1227020115506495 0.09999157493397076
-0.6142012945803088 -0.1128494927694748 0.100000001
0.407362896959238 -0.5350298971529531 -0.0001917226116200366
-0.1512579428701901 -0.8633952018082628 0.1000001277622826
0.1575631739314117 0.251227703985458 0.02478679007082208
-0.2587883529753643 0.8005165798142843 -0.09999998493108009
-0.6633228224574753 -0.3499700995906305 0.1000000098198746
-0.7034958809058958 -0.2864307126064742 -0.1000000072609956
0.3257656531893074 -0.6124488319820379 0.100000001
-0.2276942613760348 0.570348492245409 0.100000001
0.4794576764581638 -0.4535512175846081 -0.100000001
0.06714022906569195 -0.09492807017867949 0.1000095797791602
-0.8369813406453971 -0.2605627067343229 -0.0999998661761025
-0.4326465517402653 0.1617065254932217 0.09999860711369639
0.1895916638805306 0.5901639014296181 -0.100000001
-0.5844092018695901 0.02402248306875983 0.100000001
-0.3832585363586474 -0.2979614291806369 -0.100000001
-0.4134056748122255 -0.4379612549604781 -0.02557279827377038
-0.000791216409652439 -0.5297691948480843 -0.04846743881414948
-0.6730859515649181 0.110062778636411 0.100000001
-0.8857275524269297 0.1836283307975519 -0.09999913313750744
0.8791794591920741 -0.1787893683957662 0.1000003589741005
-0.1050704442594141 -0.6035311888629183 0.100000001
0.4295932447308761 0.257987514869068 -0.100000001
-0.01027539990978213 -0.7622681237324865 -0.100000001
0.2976535805489555 0.7990657285977784 0.1000000477834276
-0.2873733336433147 -0.8462317370032765 0.1000000023687724
0.3828672677439163 0.5258073036878539 0.100000001
-0.6497123605222259 0.243501390589336 0.100000001
-0.6068625921882697 0.3840396164018591 0.100000001
0.3291489654896458 -0.1462663200070607 -0.100000001
0.3281956615355526 0.6997265258363631 -0.01783777886706516
-0.5652564667102211 -0.258993605823267 -0.100000001
-0.4615364452402203 -0.1831003969351162 0.002005827751917288
-0.5283231632989868 0.1223351193607741 0.100000001
0.2734088760311025 0.5152026468807108 0.100000001
0.1829406054945795 0.501338543497994 0.1000002596617908
0.2616913391788332 0.5649144440436221 -0.0005644014614850909
-0.7396626444439504 0.4780945225260252 0.09999999843179441
-0.7914408747221516 -0.3607290879877595 0.09999404330977493
-0.556782963593506 0.4132312472028113 -0.100000001
0.2052711158863749 0.867354687049727 0.0999995019990655
-0.4903353291203948 0.2632442317010898 -0.100000001
0.7174506142452176 -0.5016835295207627 -0.09999999089098754
-0.2976307323771691 0.103040576399594 -0.100000001
-0.4697284918921531 0.2766973250825081 0.100000001
0.02155470175258108 0.613652980088118 0.004882379316710746
0.461877302717897 -0.2613528658624164 -0.0005491640927370609
-0.4631068104634666 -0.4788068529289878 -0.100000001
-0.1599762628901853 0.4286981050959197 -0.01233955232415559
-0.3723122992941184 0.2140083620545983 -0.100000001
-0.4554988697215579 0.530344929762921 0.100000001
0.6489536057050164 0.1149942776660078 0.09999941992348893
0.7128600586809942 -0.5707748107289639 -0.04549108224826052
-0.7121348910548143 -0.5475391954419216 -0.02434305811431711
-0.3683168302953334 -0.552527708119998 -0.100000001
0.8579593250592409 -0.2642332579709454 -5.794750709617083e-05
0.4429532008488795 -0.5050241384702843 0.100000001
-0.6993989325475948 1.43317271924237e-05 0.09999607520774784
0.6735733631806641 0.6158720418098116 -0.0103678873909102
0.7346420872504487 -0.5579359511793294 0.03025043222434489
0.7368295743427082 0.5537182999776917 0.03889802632818161
0.6707628972146962 -0.607022915149407 0.01376175369698194
-0.1072962884070615 0.8981655236548793 0.09999997219911223
0.2844618810496098 0.3112074643809123 0.0005088254535739728
0.198927669749411 0.7306342825595104 0.100000001
0.128975879521935 0.8762050747089435 -0.1000000006194773
0.2987909831961959 -0.1078116251869081 0.100000001
-0.08649668377934255 0.4902070109043241 -0.02308083894895773
-0.6803062337150039 0.1809316827694003 -0.009014342559708489
0.7021986836421157 -0.335251557948774 -6.977912035063026e-05
-0.8206339468642713 -0.04563682778525571 0.008791252530314483
-1.990800000006843e-05 0.442367504996089 0.09999951406197222
-0.3130077313298073 0.1972443465486937 0.100000001
-0.3223461453344311 0.3379703832580012 -0.100000001
-0.4170678471540707 0.402070781034915 0.100000001
-0.5095876681217156 0.3399048893791947 -0.004264080953861889
-0.3430377559375433 0.5927661055392509 0.100000001
0.5671990192336168 0.4236685464838041 0.04602852710616095
0.3124144397986536 -0.4488696560986711 0.02220444399281138
-0.3477160890384791 -0.6360887655694688 0.1000000001484446
-0.4261345003423532 0.2202579477325833 -0.008351324838405547
-0.6167334429246139 0.2756789877465414 -0.100000001
-0.1872497854548333 -0.668304577869303 -0.100000001
0.1010544752751806 -0.07541480308117648 -0.100000001
-0.3488870652098009 -0.6696006064010314 -0.100000001
-0.3358205933284603 -0.4145661624493153 -0.09999651527972198
0.3017711143089583 -0.2182009761740506 0.100000001
-0.2884514920417068 -0.1594136207592214 -0.100000001
0.3207802253480046 -0.4465911606295196 0.100000001
-0.1588055185621017 0.7196339043749429 -0.01263849078656366
-0.1937869420444081 -0.205900765424221 0.005258719520083192
-0.3408124289878391 0.691641134371915 -0.1000000209289985
-0.2689544747325675 0.05630875821246514 0.100000001
0.2843587339957778 -0.5814392448421501 -0.100000001
-0.4171148396129167 -0.3355448210563189 0.100000001
-0.2084326282029187 0.5126521705151484 -0.100000001
-0.228221731868249 0.681129126147845 0.100000001
-0.2186491474419383 -0.6284830049328829 0.100000001
-0.06718004506569208 -0.7387701365461419 0.09999684155781585
0.9093640026846539 -0.05620086007167897 0.100000512242324
0.6112857449697267 0.1739445148490707 0.100000001
-0.1130804587736004 -0.4293639151725496 0.100000001
0.5763594856776624 0.6742117254355755 -0.1000001761624667
-0.05755862211667979 -0.4652474499042827 -0.100000001
-0.1726922206949205 -0.4025116540002701 -0.100000001
0.05368043126180833 0.03937436686302128 -0.00949890537141162
-0.1212457616744175 0.2882475994645736 -0.100000001
0.9015736168358893 0.0911622354255352 -0.10000055377498
-0.1415134100591046 -0.2675181441588086 0.100000001
0.7294473677338864 0.1670502344007196 -0.1000000039296105
-0.1299305426299837 -0.1382541878411365 0.100000001
-0.1008478849457229 0.2311972228585316 0.03966460589912488
-0.1397947982027467 -0.1391706517267576 -0.100000001
0.5122118016845499 -0.7219294020366076 0.09999997912482346
0.899214692802441 -0.05039744936483772 -0.09999975351518213
-0.08137943339901942 0.4443001518729715 0.04315334286008382
0.59582634894509 0.3487238209773353 -0.006789357418021589
0.3156792353019938 -0.2168825982097684 0.02908865539598663
0.7139159325112222 -0.05914626505405359 0.02843553140142876
-0.2962755440382372 0.2386520662689733 -0.00282960944089981
-0.5476026779151588 0.7247520460981198 -0.005445204618542196
-0.07348107360219826 0.3766894682303931 -0.100000001
-0.2436954965044414 -0.8403180023428228 0.01049071495593544
-0.10642917814285 0.6183782731246932 -0.100000001
0.5778046933280279 0.5594968405673371 0.03844066187271814
-0.08479963519279549 0.5446484813280528 0.100000001
-0.1092723641426427 0.7372290169034988 0.100000001
-0.02779746149323153 0.8059557966412457 0.09999982540589027
0.05582814854957351 -0.7677977840757862 0.1000000015885033
-0.3419369519583693 -0.524640569041243 0.01595663570190803
0.7481859808277563 0.4567574382005792 0.09999998619591643
0.01158779439561096 -0.683216163327051 0.09999540389334621
-0.05372116425811333 -0.6114275739528757 -0.100000001
0.3455937065613762 0.6331376485820871 -0.100000001
0.6884098524483502 -0.05789887409480352 -0.04112230302567215
0.003527846689496003 -0.4078191429587989 0.100000001
0.06714022906569195 -0.5256797340175932 0.1000019064370337
-0.6708630273283175 -0.2125934187676686 0.100000001
0.2190063526795362 -0.4027860417797404 -0.100000001
-0.8696248284333037 -0.1379348521954 0.1000002358976423
0.4386734080313225 0.6054242559985967 0.100000001
-0.09755082516834802 0.1987454144503342 -0.100000001
-0.002031405507362067 0.5190338573972834 -0.100000001
0.1621908538394642 -0.5222541545025251 -0.100000001
0.1141605856666653 -0.3837494968152523 -0.100000001
0.201460503197076 -0.1459171029918323 -0.0999984431605386
0.07815768316585542 0.3458446208437494 0.100000001
0.2426415803054398 -0.04190799751522063 -0.009569345417518291
0.5872128827097286 -0.3528263090900789 -0.009910732924125773
0.6424552037108449 0.2114323191275041 -0.006954780499359554
-0.1204800862556449 0.2242048896256882 -0.02900427019591486
0.5067205450482168 -0.7335227198244252 -0.09999998914712142
0.1706914759440417 -0.766732581613543 0.09999998147723758
0.05161479171266904 0.5536321483822552 0.100000001
0.1616013867150892 0.6089610264676677 0.100000001
0.1156883546580278 0.7608130504360401 -0.09999997094957395
-0.4460419691086017 -0.06884111756539163 -0.01492767530528479
0.1969878023332007 -0.6505110293706311 0.100000001
-0.1160447083229188 0.6063374085311157 0.007070696629308129
0.3200562673445695 -0.4578928605208737 -0.100000001
0.433663996082115 -0.7799150470414316 -0.1000003895546112
0.7115039052965028 -0.07290476425525354 -0.100000001
0.2802256135528125 -0.335798153975519 0.1000003162718699
0.5719625688735067 -0.6674402569492937 -0.09999998028576236
0.4677905812481744 -0.1261031611618657 0.01121088125278166
-0.5420700674569323 -0.1248494890871893 -0.01027433065006947
-0.2410070300247916 -0.6357875651598873 0.01441920444960802
-0.1587786949085732 0.04280858631897816 0.04270982817501551
0.2779493501130832 0.03508215919206549 0.100000001
0.2221029625592683 0.2002499173475608 0.100000001
0.1687440461260412 0.254461662104567 -0.100000001
-0.2563446688652752 -0.2121741581005655 0.100000001
0.3304932490269834 0.6649670910737507 0.100000001
0.4189101565821945 -0.4156265921958216 0.100000001
0.3929501434776806 -0.1650181159575572 0.100000001
0.5152867759432065 -0.1678931612377595 0.09999908748589634
0.475163822692743 -0.1531097809890773 -0.100000001
0.3357807773284602 0.4145884079164185 0.1000015777623007
0.8385370846858523 0.3838051943864906 0.04606666788666424
-0.4937424182286734 0.7555336920823639 -0.1000000010504179
0.5442581069997534 -0.4935861409278313 0.100000001
0.03213923494725361 0.5184247590609574 0.0383360571248317
0.5126863777963649 -0.3289574666359722 -0.100000001
0.06120996270923179 0.8800834242908664 -0.005764769291273679
0.6285737735538603 -0.4276122588875419 -0.100000001
0.5568258372670302 -0.325577518153058 0.100000001
0.3076239019409681 0.1346765538642326 -0.004601572620509617
-0.03067263476072086 0.5366577814315595 0.0008498309833923142
0.6003500077878382 -0.01243086548375203 -0.100000001
0.9175761168405248 0.1606382169369354 -0.01404668295198386
0.0472840505813353 -0.4635429259039925 -0.100000001
0.4926995076702426 0.5255538600702566 -0.100000001
0.6044213255912283 0.3913798153630869 -0.100000137978993
-0.4718231552968554 0.5313944570244715 0.002633671609840942
0.6965773321177573 -0.4273173429210935 0.09999999343539077
0.6289401398406972 -0.2693972120718802 -0.100000001
-0.01630558612568075 -0.2077459565003128 0.100000001
0.5866000802957284 0.2764141804903847 0.1000000038200268
0.20359495697619 -0.2494941109178947 0.100000001
-0.004181816809922974 -0.3151870641393809 0.100000001
0.6964092350712567 0.2055189967568045 0.1000000048314757
0.7783445736649707 -0.06666653382557 0.1000000240192145
0.7828434546603802 0.02297013754977062 -0.1000000143231179
0.01893461458644904 -0.2014741597853115 -0.0999991466219903
-0.1818707790764218 -0.887623245487838 -0.09999993524548648
0.001250311524022584 -0.8819831573254692 -0.09999998905216625
0.886226055881059 0.3254396236272237 0.05586275568227883
-0.02988981092847321 0.4864867494289769 0.04179094216836717
-0.8121847666082345 0.07006253349160713 -0.09999990465941148
0.9385747097768243 0.1273574804722056 0.05327986954311734
-0.8088683711666248 0.156190363530973 0.09999998825822913
-0.7351430756090627 0.382494815226409 -0.1000000014903079
-0.6137799069834217 -0.1538347650012964 -0.100000001
-0.6685994808118934 0.1035493888074478 -0.100000001
-0.5489023223110361 -0.3913585119815457 -0.1000043851646516
-0.5043042757972248 -0.07641151036362966 -0.100000001
-0.5327293108681637 0.1545020092569639 -0.100000001
0.6878416975559045 0.01058831196554781 -0.100000001
-0.4665668849232422 0.5149646726330157 -0.100000001
-0.4666050688355715 -0.1991085593747462 -0.100000001
-0.389558028347635 -0.2275102923238886 0.100000001
-0.4743735980935715 -0.07115668912519366 0.100000001
-0.3890878252730273 -0.09113596660106844 -0.100000001
-0.2440017853888924 -0.5452083758137209 0.100000001
-0.2433455711326029 -0.2791627763840867 -0.100000001
-0.3111411434832307 -0.1209129048652807 0.100000001
-0.1974357671657239 -0.03602336216755762 0.100000001
0.036584115847203 0.2949326014824946 -0.01549911686017234
-0.1321950678634705 -0.2618362183685417 -0.100000001
0.2702505136714002 0.1258600117252271 -0.100000001
-0.7189190232241076 -0.1827710098833814 -0.09999999900591554
-0.2181397401369695 0.6833459753046752 -0.1000000055820082
-0.127360143548208 0.3605476163663652 0.100000001
-0.009337792700070555 0.1222925995311372 -0.100000001
0.2039007350357803 -0.6922003576577727 -0.100000001
0.1305749362186436 0.0844497308547722 -0.100000001
0.08911930666734466 0.6447941500836063 -0.100000001
0.1008293447727499 0.7838717020994539 0.099999129198131
0.253012984328303 -0.002680163909635346 -0.100000001
0.2133651259587692 0.4026840440457282 0.1000005183235816
0.2922538219580921 0.5170658663264885 -0.100000001
0.356169553767502 0.4000416128136521 -0.100000001
0.6599770495429222 -0.1573605653510388 -0.09999881358639354
0.6217424917988846 0.2594720207074311 -0.100000001
0.6831880358648532 0.3913769194135615 0.0999974364264104
-0.3923270570074671 -0.4627726593637434 0.100000001
-0.2603627736589238 -0.3376381413291621 0.100000001
-0.2144418456630265 0.001348025739114205 -0.09999709257748485
-0.2145235790477645 0.1990555550404323 -0.100000001
0.5177396060517421 0.1538579488227789 -0.09999959474542744
-0.5510713778657249 0.2223214998524876 0.009661161054530312
-0.2430710074385164 0.6146783118106955 -0.01027245675352275
-0.410695620919863 0.04576200217417029 -0.100000001
0.3869311662625498 0.1225499307353569 0.100000001

CELLS 2400 12000
4 0 2 3 419
4 0 419 4 2
4 237 686 221 514
4 0 201 419 3
4 0 3 6 201
4 352 294 215 456
4 1 419 3 2
4 1 2 5 419
4 1 3 419 201
4 1 201 7 3
4 426 353 195 395
4 391 561 295 617
4 2 4 8 419
4 2 419 8 5
4 3 201 9 6
4 3 7 9 201
4 4 199 10 8
4 453 644 14 9
4 415 192 254 321
4 244 266 524 542
4 5 8 13 199
4 492 248 536 353
4 23 288 269 546
4 233 266 267 292
4 24 431 20 16
4 510 223 240 525
4 453 7 201 9
4 6 12 644 9
4 400 562 280 366
4 453 7 9 11
4 372 333 558 188
4 563 373 327 350
4 8 10 15 199
4 663 620 401 299
4 8 199 15 13
4 482 501 286 549
4 10 199 16 15
4 269 546 524 246
4 436 75 556 258
4 13 15 19 199
4 297 551 181 632
4 15 16 20 199
4 15 199 20 19
4 313 319 374 369
4 524 659 605 544
4 17 21 27 328
4 17 355 14 21
4 18 355 26 21
4 18 21 14 355
4 182 183 332 303
4 19 20 25 232
4 19 232 199 20
4 622 303 332 183
4 622 683 303 183
4 20 24 28 229
4 20 232 28 25
4 21 26 29 355
4 21 328 29 27
4 439 420 225 211
4 185 322 384 374
4 23 539 217 269
4 191 310 589 222
4 24 229 31 28
4 25 28 30 378
4 271 584 545 397
4 26 257 32 29
4 186 312 217 601
4 28 224 34 30
4 329 626 194 625
4 28 296 224 30
4 28 31 34 224
4 28 31 224 229
4 29 32 35 257
4 29 471 35 33
4 31 279 36 34
4 322 384 351 187
4 32 257 38 35
4 506 259 446 237
4 33 35 39 471
4 329 184 511 558
4 511 333 329 558
4 34 36 40 279
4 34 487 40 37
4 35 38 41 257
4 35 471 41 39
4 36 279 43 40
4 37 40 42 487
4 430 368 346 208
4 208 368 346 635
4 38 304 44 41
4 39 270 41 45
4 40 277 46 42
4 40 42 487 277
4 40 43 46 277
4 40 277 279 43
4 41 44 47 320
4 41 320 304 44
4 41 320 47 45
4 210 376 620 663
4 42 46 48 277
4 43 277 49 46
4 550 631 215 294
4 44 320 51 47
4 215 550 511 631
4 215 631 511 255
4 45 47 50 320
4 47 320 53 50
4 47 51 53 320
4 550 215 329 194
4 517 288 309 539
4 210 663 620 604
4 355 257 328 356
4 52 219 57 54
4 52 385 57 219
4 53 554 58 55
4 58 55 554 377
4 53 56 58 554
4 58 377 554 56
4 644 362 453 355
4 54 57 59 219
4 356 355 644 328
4 385 219 60 57
4 365 443 187 435
4 365 443 331 187
4 334 332 250 189
4 332 189 552 182
4 190 636 346 264
4 55 58 61 377
4 185 384 322 187
4 464 301 422 203
4 464 284 606 301
4 56 377 62 58
4 279 487 34 224
4 279 296 379 224
4 57 219 63 59
4 279 487 224 379
4 57 60 63 219
4 58 377 64 61
4 58 62 64 377
4 207 576 192 321
4 576 192 321 479
4 60 317 68 63
4 61 64 66 377
4 62 287 67 64
4 599 293 655 434
4 434 265 655 599
4 384 374 322 231
4 293 466 599 655
4 63 317 69 65
4 542 544 630 267
4 63 68 69 317
4 266 292 233 235
4 64 67 70 287
4 620 261 303 602
4 303 261 305 602
4 537 417 566 241
4 451 281 241 566
4 283 241 451 281
4 67 287 73 70
4 241 537 417 243
4 569 266 633 235
4 266 235 233 633
4 676 332 334 568
4 568 332 334 552
4 70 76 429 73
4 285 255 215 345
4 255 611 215 345
4 611 215 345 497
4 29 257 35 471
4 78 82 638 75
4 221 236 259 655
4 655 236 259 659
4 80 86 82 258
4 81 83 87 391
4 81 76 429 496
4 81 496 87 84
4 81 79 76 496
4 32 304 257 645
4 82 258 88 85
4 82 638 75 258
4 82 86 88 258
4 82 258 75 80
4 83 391 89 87
4 570 535 241 455
4 570 455 241 281
4 171 358 177 548
4 171 548 278 358
4 548 200 278 358
4 85 88 92 258
4 86 258 91 88
4 87 89 93 391
4 87 391 93 90
4 88 91 94 400
4 88 400 258 91
4 88 400 94 92
4 88 92 258 400
4 89 391 98 93
4 470 606 464 284
4 21 355 29 328
4 90 93 95 406
4 328 355 29 257
4 91 400 96 94
4 611 215 497 675
4 215 497 675 456
4 93 406 100 95
4 239 227 206 508
4 93 98 100 617
4 102 106 474 100
4 340 166 162 160
4 96 412 103 99
4 661 580 207 271
4 315 207 555 271
4 661 207 580 415
4 315 576 207 321
4 315 576 555 207
4 98 499 104 100
4 98 100 617 499
4 216 257 304 645
4 216 356 257 645
4 631 255 215 285
4 294 631 215 285
4 294 631 285 325
4 35 257 41 471
4 552 332 334 189
4 311 247 578 235
4 311 247 196 632
4 108 112 115 337
4 108 337 106 112
4 109 319 114 111
4 109 111 105 319
4 109 105 314 319
4 110 337 116 112
4 110 112 106 337
4 302 509 508 216
4 112 337 118 115
4 112 116 118 337
4 114 319 121 117
4 342 667 217 23
4 584 661 271 545
4 584 290 217 667
4 632 311 297 551
4 429 496 76 341
4 341 560 530 523
4 117 322 123 119
4 117 121 123 322
4 118 330 124 120
4 118 122 124 330
4 119 123 125 322
4 120 124 126 330
4 121 322 127 123
4 122 330 128 124
4 123 322 130 125
4 123 127 130 322
4 124 330 129 126
4 124 128 129 330
4 127 547 134 130
4 127 130 322 547
4 216 652 627 302
4 128 248 132 129
4 128 129 330 248
4 128 248 330 536
4 634 340 583 198
4 583 634 264 340
4 129 248 135 131
4 129 132 135 248
4 130 351 136 133
4 130 134 136 351
4 131 135 137 492
4 132 492 138 135
4 400 412 562 324
4 366 532 258 324
4 133 136 140 291
4 532 366 260 280
4 532 258 260 366
4 352 215 194 456
4 134 375 139 136
4 194 215 675 456
4 135 138 141 492
4 142 495 493 486
4 136 486 142 140
4 137 141 144 494
4 297 579 309 581
4 297 288 309 517
4 138 492 143 141
4 139 493 145 142
4 664 202 432 445
4 140 142 146 486
4 213 440 202 664
4 141 143 147 407
4 297 517 309 579
4 141 494 147 144
4 142 145 148 493
4 672 517 309 669
4 581 579 309 672
4 142 493 148 146
4 517 539 309 669
4 143 407 149 147
4 144 147 150 393
4 255 611 460 329
4 583 534 631 325
4 145 387 151 148
4 546 662 524 658
4 516 455 260 566
4 417 516 566 455
4 516 600 260 455
4 264 340 346 190
4 146 148 152 387
4 417 516 455 600
4 26 645 32 257
4 147 149 153 393
4 147 393 153 150
4 148 151 154 387
4 148 387 154 152
4 149 393 155 153
4 667 272 290 316
4 149 393 245 155
4 669 667 290 316
4 150 153 158 612
4 150 153 612 393
4 226 271 666 580
4 151 390 157 154
4 151 154 387 390
4 397 238 506 227
4 152 154 156 390
4 329 184 558 195
4 152 390 387 154
4 395 195 329 353
4 329 574 184 195
4 329 675 611 228
4 153 155 160 198
4 153 155 198 393
4 153 612 160 158
4 154 390 159 156
4 154 157 159 390
4 625 426 353 536
4 625 353 329 333
4 156 159 161 390
4 229 212 202 439
4 157 489 163 159
4 159 489 165 161
4 161 165 167 489
4 268 204 265 647
4 163 454 168 165
4 165 489 171 167
4 165 168 171 454
4 167 171 174 278
4 232 229 199 20
4 170 172 176 643
4 170 172 623 166
4 171 548 177 174
4 171 174 278 548
4 172 175 178 346
4 172 169 623 166
4 172 346 178 176
4 630 266 267 233
4 266 630 267 542
4 174 177 180 548
4 569 235 633 418
4 175 346 180 178
4 176 178 179 346
4 178 346 177 179
4 178 180 177 346
4 546 267 524 662
4 267 662 637 292
4 355 645 356 362
4 362 355 644 356
4 356 502 644 362
4 262 339 480 551
4 262 596 339 551
4 608 339 480 619
4 202 571 434 433
4 202 265 218 433
4 433 265 434 202
4 198 245 550 333
4 198 155 160 162
4 198 155 245 393
4 539 344 217 364
4 217 276 364 344
4 586 412 280 314
4 344 539 288 364
4 444 288 364 344
4 198 155 251 245
4 335 280 314 668
4 369 335 314 668
4 360 394 219 230
4 245 550 333 626
4 503 629 334 249
4 50 270 45 320
4 484 627 216 270
4 247 292 578 235
4 425 349 490 435
4 373 225 350 679
4 373 225 327 350
4 330 248 195 536
4 131 188 248 492
4 550 294 215 352
4 550 215 194 352
4 194 626 550 352
4 676 249 334 629
4 550 626 677 352
4 677 550 352 294
4 248 353 195 536
4 536 492 132 248
4 81 391 496 295
4 382 277 219 386
4 225 277 382 386
4 225 386 382 327
4 382 386 219 327
4 83 81 295 391
4 311 252 297 551
4 193 297 311 252
4 551 252 297 463
4 354 302 239 348
4 604 415 437 370
4 511 255 184 329
4 177 358 533 346
4 388 346 635 358
4 358 388 200 635
4 539 226 217 344
4 217 276 344 226
4 217 290 226 539
4 41 216 257 304
4 479 357 560 559
4 479 592 559 560
4 551 297 261 463
4 256 376 672 620
4 256 261 620 672
4 620 261 256 303
4 262 607 480 339
4 256 303 376 620
4 418 283 263 570
4 637 297 363 247
4 289 591 263 336
4 543 583 264 251
4 265 491 448 214
4 265 214 204 491
4 265 491 204 218
4 433 491 434 265
4 198 245 251 677
4 599 268 646 213
4 355 645 257 356
4 383 303 332 598
4 305 303 383 598
4 98 222 499 617
4 614 365 187 435
4 614 365 331 187
4 639 280 366 400
4 272 555 540 271
4 272 661 271 584
4 639 400 366 258
4 347 504 273 201
4 251 340 190 162
4 502 461 356 644
4 433 504 218 202
4 573 504 199 419
4 199 504 433 202
4 667 584 290 272
4 402 270 50 320
4 209 503 250 334
4 334 629 503 250
4 480 608 619 609
4 310 560 357 561
4 515 684 502 650
4 291 618 443 331
4 276 186 217 601
4 276 601 217 364
4 187 291 443 331
4 435 593 443 371
4 678 333 511 372
4 678 255 372 511
4 676 200 334 278
4 595 636 200 278
4 439 211 225 279
4 650 483 514 686
4 571 202 213 439
4 282 457 281 566
4 213 439 293 571
4 281 577 668 282
4 439 338 212 213
4 202 212 213 439
4 439 293 338 213
4 20 229 28 232
4 378 28 30 296
4 232 378 296 28
4 203 670 284 301
4 447 284 203 670
4 670 284 301 588
4 192 588 284 670
4 232 202 199 229
4 216 306 652 473
4 442 239 510 685
4 286 239 685 529
4 286 529 592 501
4 392 287 240 525
4 533 358 635 346
4 454 635 533 358
4 311 283 263 418
4 512 336 263 593
4 425 441 349 435
4 489 390 157 381
4 628 331 503 387
4 486 140 291 476
4 149 407 245 393
4 423 368 264 634
4 423 368 346 264
4 351 380 322 597
4 130 380 322 351
4 130 380 125 322
4 322 585 597 380
4 322 125 585 380
4 335 400 97 99
4 335 105 412 99
4 335 412 105 314
4 280 335 400 639
4 580 226 271 661
4 185 384 435 374
4 384 435 351 187
4 185 435 384 187
4 545 661 271 226
4 425 351 384 435
4 650 515 647 502
4 390 275 249 156
4 618 503 331 387
4 278 489 249 167
4 636 346 388 358
4 358 636 200 388
4 349 336 512 435
4 636 388 346 423
4 200 636 552 388
4 388 636 552 423
4 213 571 434 202
4 529 507 239 354
4 682 584 342 575
4 241 281 455 566
4 680 243 244 535
4 542 680 244 535
4 204 647 642 502
4 322 319 231 374
4 319 109 114 323
4 28 229 224 296
4 232 28 296 229
4 229 440 212 296
4 379 296 211 212
4 298 584 271 361
4 271 298 555 540
4 345 687 620 294
4 71 394 317 556
4 638 394 71 556
4 439 212 211 296
4 392 652 223 300
4 261 672 581 620
4 303 683 294 183
4 676 334 249 278
4 666 206 559 286
4 216 304 306 473
4 332 383 182 303
4 602 687 303 620
4 305 687 303 602
4 300 320 51 306
4 652 306 216 627
4 220 648 307 450
4 450 307 220 359
4 435 336 512 593
4 262 596 607 339
4 242 308 403 600
4 386 219 327 308
4 1 7 201 428
4 12 644 14 17
4 617 274 561 310
4 670 589 310 274
4 19 445 232 25
4 593 252 311 253
4 572 311 593 252
4 193 572 311 578
4 25 378 232 28
4 32 38 257 304
4 311 593 253 262
4 311 593 262 512
4 312 526 506 237
4 217 601 312 399
4 42 382 277 48
4 55 389 377 61
4 56 62 377 613
4 553 238 506 397
4 107 319 314 105
4 61 389 377 66
4 73 77 76 429
4 74 80 75 436
4 369 319 314 107
4 107 335 314 369
4 85 639 258 92
4 91 96 400 324
4 103 109 105 412
4 606 427 195 395
4 458 427 464 337
4 108 337 115 458
4 606 427 411 195
4 395 464 606 427
4 110 116 337 422
4 110 404 422 337
4 337 427 411 458
4 113 594 117 119
4 119 585 322 125
4 131 188 492 137
4 132 138 492 398
4 428 419 5 432
4 428 419 504 201
4 139 145 493 396
4 642 428 504 201
4 150 343 612 158
4 152 275 390 156
4 604 315 415 370
4 604 315 661 415
4 551 480 598 608
4 608 551 261 598
4 175 180 346 541
4 425 384 322 231
4 425 441 384 231
4 425 441 435 384
4 215 345 497 456
4 345 620 497 456
4 622 683 183 318
4 456 294 215 345
4 268 265 414 647
4 345 620 456 294
4 268 265 213 599
4 414 214 647 265
4 111 319 117 113
4 113 117 313 319
4 591 374 441 323
4 320 45 41 270
4 277 46 48 52
4 225 487 211 382
4 277 382 54 48
4 586 412 314 323
4 341 205 429 295
4 318 583 264 543
4 514 684 221 446
4 478 446 467 684
4 467 446 221 684
4 478 684 514 446
4 400 412 280 562
4 418 311 196 596
4 238 354 507 475
4 294 325 285 687
4 277 52 49 46
4 257 471 216 41
4 326 240 341 530
4 41 270 471 216
4 326 240 530 389
4 674 567 395 625
4 625 674 675 228
4 674 228 625 395
4 430 208 346 176
4 592 529 685 557
4 20 431 199 16
4 20 431 229 199
4 230 382 219 327
4 652 223 300 306
4 488 382 230 327
4 327 513 350 386
4 225 386 327 350
4 248 492 135 131
4 248 132 135 492
4 625 333 398 353
4 625 398 536 353
4 9 11 14 453
4 10 16 199 431
4 71 75 78 638
4 89 83 222 391
4 371 435 593 527
4 433 504 199 573
4 273 573 504 433
4 263 577 578 572
4 639 335 400 97
4 351 291 136 133
4 351 134 136 375
4 351 133 380 597
4 336 527 263 593
4 527 336 435 593
4 446 259 221 237
4 528 654 220 338
4 430 340 343 164
4 343 640 612 158
4 343 164 640 158
4 523 341 240 530
4 326 410 341 72
4 399 269 246 681
4 535 243 538 537
4 266 535 538 537
4 535 243 244 538
4 266 535 244 538
4 634 340 198 343
4 24 472 229 431
4 687 620 603 345
4 303 305 325 687
4 201 347 204 644
4 452 347 644 204
4 348 665 685 529
4 41 270 216 320
4 306 320 216 627
4 437 401 604 620
4 437 604 497 620
4 537 451 241 566
4 283 241 537 451
4 537 282 451 566
4 451 537 283 624
4 451 624 282 537
4 268 202 213 265
4 607 349 512 435
4 522 289 512 349
4 351 133 597 291
4 429 240 341 70
4 220 465 653 449
4 307 220 449 465
4 294 285 345 687
4 360 230 219 327
4 353 558 329 333
4 283 535 537 241
4 243 241 537 535
4 266 537 283 535
4 461 684 502 356
4 362 356 502 515
4 357 588 274 498
4 479 587 357 559
4 538 519 243 359
4 538 359 243 244
4 488 600 563 360
4 360 600 242 516
4 360 600 516 488
4 360 600 563 513
4 302 508 238 239
4 254 469 468 470
4 416 469 673 254
4 267 662 546 637
4 17 328 355 21
4 355 644 328 17
4 30 34 37 487
4 224 487 34 30
4 224 487 30 379
4 270 627 216 320
4 176 208 346 179
4 670 589 301 203
4 484 270 402 223
4 402 270 320 223
4 313 319 369 107
4 189 250 619 609
4 297 309 367 581
4 297 288 367 309
4 367 288 22 309
4 492 135 137 141
4 492 188 248 558
4 492 188 494 137
4 423 318 264 636
4 423 264 346 636
4 388 635 346 423
4 320 53 50 554
4 402 320 50 554
4 305 608 500 261
4 608 305 598 261
4 538 359 244 658
4 658 538 359 519
4 488 373 327 563
4 488 481 382 373
4 384 441 374 231
4 323 374 441 231
4 384 441 435 374
4 375 547 351 134
4 363 637 288 297
4 276 526 601 660
4 246 660 601 526
4 375 331 351 614
4 205 438 429 77
4 73 77 429 438
4 456 376 620 210
4 342 584 217 667
4 667 575 584 272
4 634 183 423 485
4 534 325 183 485
4 634 485 423 368
4 136 495 142 486
4 618 616 365 582
4 351 375 136 495
4 616 618 365 443
4 291 136 140 486
4 351 495 136 291
4 351 187 331 291
4 232 440 296 378
4 25 445 232 378
4 335 280 412 314
4 273 573 4 419
4 379 296 212 440
4 379 378 296 440
4 379 212 465 440
4 313 374 185 668
4 374 668 369 314
4 642 204 644 201
4 204 502 642 644
4 644 502 642 362
4 334 209 503 489
4 309 579 517 672
4 332 383 189 182
4 490 349 607 435
4 607 435 614 490
4 221 650 214 684
4 214 650 502 684
4 488 417 243 600
4 488 516 417 600
4 417 519 488 243
4 463 480 598 551
4 686 590 221 649
4 224 296 379 30
4 551 463 261 598
4 394 516 518 360
4 394 516 360 242
4 379 30 296 378
4 81 429 295 496
4 295 496 429 341
4 263 527 577 593
4 390 157 159 489
4 279 296 211 379
4 81 391 87 496
4 98 391 222 617
4 439 296 211 279
4 198 393 245 333
4 147 149 393 407
4 565 280 591 562
4 473 509 302 216
4 670 310 479 274
4 479 557 592 310
4 479 357 310 560
4 567 426 395 625
4 430 340 634 343
4 167 171 278 489
4 278 200 334 454
4 139 396 493 375
4 614 628 396 331
4 363 637 267 288
4 233 637 267 363
4 52 49 385 277
4 361 238 397 227
4 247 637 233 363
4 625 398 333 405
4 320 554 51 53
4 320 51 554 300
4 331 476 291 618
4 400 412 96 99
4 400 96 412 324
4 562 532 366 324
4 354 302 238 239
4 354 509 238 302
4 459 317 556 75
4 459 436 75 556
4 298 682 361 507
4 529 298 361 507
4 212 338 220 213
4 465 220 213 212
4 220 653 213 466
4 220 213 653 465
4 338 466 220 213
4 145 493 387 148
4 191 310 670 589
4 396 145 493 387
4 144 147 393 494
4 494 144 564 393
4 580 421 290 437
4 389 402 223 484
4 224 31 34 279
4 224 31 279 229
4 224 229 279 296
4 390 159 161 489
4 409 106 337 404
4 106 404 409 104
4 337 118 115 411
4 458 464 301 337
4 405 245 333 626
4 319 117 114 111
4 564 188 144 494
4 407 333 245 393
4 147 407 393 494
4 407 245 333 405
4 65 59 317 394
4 394 317 308 219
4 489 165 163 159
4 334 249 489 503
4 558 184 188 408
4 589 409 301 404
4 409 100 499 617
4 409 104 499 100
4 326 530 341 410
4 496 76 410 79
4 341 496 76 410
4 295 560 496 341
4 341 560 496 410
4 69 71 65 317
4 195 574 411 606
4 225 413 277 386
4 239 348 510 685
4 268 265 649 414
4 221 214 414 265
4 389 240 223 377
4 337 116 118 422
4 69 68 74 317
4 69 74 75 317
4 422 464 337 301
4 415 416 580 254
4 415 207 580 416
4 415 315 321 370
4 415 207 192 321
4 415 315 207 321
4 69 71 317 75
4 505 559 587 615
4 418 235 196 311
4 419 199 4 8
4 573 199 4 419
4 377 62 287 613
4 392 377 223 240
4 146 476 387 152
4 679 528 220 420
4 76 429 341 70
4 580 421 226 290
4 182 423 332 183
4 368 182 423 635
4 552 423 332 182
4 516 260 457 566
4 375 396 331 614
4 335 412 400 99
4 96 94 400 99
4 562 532 280 366
4 598 261 305 303
4 180 548 177 346
4 330 408 195 248
4 411 330 408 195
4 326 240 70 341
4 326 341 70 72
4 73 429 240 438
4 70 429 240 73
4 70 240 287 73
4 438 73 287 240
4 489 454 163 165
4 400 97 94 92
4 400 94 97 99
4 319 114 231 323
4 523 665 557 685
4 523 665 685 240
4 205 438 240 429
4 240 205 429 341
4 101 335 97 99
4 205 665 240 438
4 665 205 240 523
4 523 205 240 341
4 101 105 335 99
4 607 522 512 349
4 607 522 596 512
4 606 427 464 458
4 458 427 411 606
4 606 464 301 458
4 111 107 319 113
4 512 593 262 435
4 365 262 443 435
4 262 593 443 435
4 512 435 262 607
4 607 365 435 262
4 389 240 530 510
4 510 525 240 685
4 530 510 240 685
4 338 293 466 213
4 130 133 380 351
4 130 133 125 380
4 475 483 514 650
4 491 452 448 214
4 213 293 599 434
4 434 265 599 213
4 294 285 215 345
4 131 126 129 248
4 530 560 341 410
4 129 126 330 248
4 403 436 258 532
4 26 355 645 257
4 330 126 408 248
4 524 605 234 680
4 359 680 244 234
4 359 680 234 654
4 680 524 244 234
4 437 401 290 604
4 64 240 70 326
4 377 389 240 326
4 525 438 240 665
4 64 377 240 326
4 441 591 336 374
4 441 591 289 336
4 286 442 559 592
4 530 442 592 559
4 206 442 559 286
4 506 259 237 526
4 510 348 525 685
4 237 236 526 259
4 563 513 679 350
4 657 513 679 563
4 657 243 563 359
4 566 281 455 260
4 565 260 281 280
4 565 260 455 281
4 440 445 232 202
4 445 440 232 378
4 289 418 263 570
4 311 418 263 289
4 531 455 600 657
4 657 531 513 600
4 210 675 497 456
4 674 470 203 447
4 470 588 284 192
4 265 448 221 214
4 434 448 655 265
4 329 626 550 194
4 683 456 294 352
4 220 449 653 234
4 359 220 234 449
4 618 629 503 275
4 618 582 331 503
4 450 481 307 488
4 488 307 450 519
4 450 373 488 563
4 488 519 450 563
4 427 330 195 395
4 195 395 574 606
4 395 470 460 606
4 395 426 464 330
4 574 460 606 395
4 533 208 346 635
4 504 432 218 202
4 418 596 289 311
4 436 258 324 86
4 400 366 258 324
4 171 358 278 454
4 358 200 278 454
4 496 90 87 84
4 334 635 209 454
4 583 634 631 534
4 634 534 183 485
4 210 620 497 604
4 583 534 183 634
4 504 432 199 419
4 386 219 308 60
4 386 385 219 60
4 199 202 433 431
4 492 188 558 333
4 353 333 492 558
4 424 260 366 457
4 335 639 280 457
4 457 280 260 366
4 458 337 115 411
4 606 458 301 498
4 557 523 310 191
4 665 191 523 557
4 459 436 74 75
4 395 228 329 460
4 606 468 588 470
4 77 205 83 429
4 205 83 429 295
4 428 419 432 504
4 642 428 432 504
4 625 395 353 426
4 426 330 195 536
4 426 330 395 195
4 432 642 504 204
4 424 366 639 457
4 457 280 366 639
4 639 424 258 366
4 439 212 296 229
4 439 229 296 279
4 367 288 444 22
4 232 440 229 296
4 440 232 229 202
4 427 330 464 337
4 330 337 422 464
4 169 172 623 175
4 394 360 308 242
4 600 360 242 308
4 271 361 397 666
4 584 361 397 271
4 358 173 171 177
4 654 234 220 466
4 460 611 468 228
4 673 611 254 468
4 674 470 228 395
4 470 588 606 284
4 321 470 674 447
4 472 439 229 431
4 229 472 31 279
4 476 618 331 387
4 476 618 387 275
4 398 333 492 353
4 237 686 477 681
4 670 588 274 479
4 262 607 365 480
4 262 616 253 480
4 480 607 365 619
4 294 376 620 456
4 256 463 261 672
4 450 648 307 481
4 450 648 481 373
4 328 471 257 29
4 335 280 400 412
4 361 271 482 666
4 239 361 482 206
4 206 239 286 482
4 666 549 286 559
4 482 271 549 666
4 682 237 483 477
4 50 53 55 554
4 402 50 55 554
4 361 227 206 239
4 206 361 482 666
4 666 206 286 482
4 638 424 258 639
4 366 424 258 260
4 51 554 56 53
4 300 223 320 306
4 51 56 554 300
4 286 529 685 592
4 286 442 592 685
4 530 442 685 592
4 665 557 685 529
4 137 492 141 494
4 492 188 333 494
4 617 671 406 561
4 492 407 143 141
4 398 407 143 492
4 495 139 142 493
4 493 396 331 375
4 370 321 254 674
4 671 474 301 617
4 306 304 216 320
4 229 472 279 439
4 297 247 311 632
4 479 559 615 587
4 479 588 192 670
4 136 139 142 495
4 486 142 146 493
4 331 486 291 476
4 291 136 486 495
4 476 486 146 387
4 40 277 487 279
4 445 202 432 199
4 382 487 211 379
4 414 221 650 214
4 337 404 422 301
4 243 680 359 657
4 34 279 40 487
4 198 155 162 251
4 340 162 251 198
4 484 270 216 462
4 270 471 216 462
4 75 71 317 556
4 638 71 75 556
4 313 668 369 374
4 363 297 444 197
4 444 297 367 181
4 297 181 444 197
4 476 486 387 331
4 444 363 288 297
4 444 367 297 288
4 642 7 201 453
4 642 644 453 201
4 644 362 642 453
4 532 258 324 436
4 458 337 301 474
4 596 311 632 551
4 165 454 171 489
4 278 334 249 489
4 489 171 278 454
4 573 199 433 431
4 673 437 580 254
4 673 437 254 497
4 214 452 204 491
4 452 491 347 204
4 445 199 232 202
4 375 139 495 493
4 136 139 495 375
4 605 654 234 680
4 605 654 659 234
4 441 336 435 374
4 146 493 148 387
4 396 493 331 387
4 396 628 387 331
4 684 461 502 214
4 452 214 502 461
4 334 209 489 454
4 333 494 564 393
4 564 188 494 333
4 351 375 495 331
4 351 331 495 291
4 375 331 493 495
4 566 457 281 260
4 291 495 486 331
4 141 407 147 494
4 398 333 407 492
4 398 407 333 405
4 320 554 223 300
4 392 554 223 377
4 392 300 223 554
4 402 320 554 223
4 389 377 223 554
4 389 554 223 402
4 497 673 611 254
4 637 288 546 267
4 498 474 301 671
4 409 104 404 499
4 199 229 202 431
4 305 500 602 261
4 367 261 602 500
4 409 404 589 499
4 459 403 436 556
4 459 403 556 308
4 557 592 501 576
4 207 549 501 271
4 641 621 501 559
4 454 381 489 163
4 489 209 381 454
4 204 214 502 452
4 452 502 204 644
4 263 570 283 281
4 509 478 508 462
4 509 478 238 508
4 478 514 684 509
4 198 333 550 678
4 268 218 202 265
4 243 537 417 538
4 642 647 362 502
4 518 394 360 230
4 289 570 263 591
4 263 591 570 281
4 229 202 431 439
4 209 619 250 503
4 503 582 619 250
4 209 619 503 628
4 598 608 383 305
4 598 608 609 383
4 480 608 609 598
4 347 433 273 504
4 504 218 204 347
4 557 310 670 191
4 264 368 340 634
4 430 634 340 368
4 670 557 479 310
4 670 576 479 557
4 420 220 211 212
4 220 373 420 211
4 220 373 450 679
4 241 417 566 455
4 207 580 505 271
4 207 505 580 416
4 666 271 505 580
4 497 673 345 611
4 400 324 562 366
4 565 532 280 562
4 551 520 632 596
4 551 297 500 261
4 225 373 211 420
4 220 373 679 420
4 666 361 397 227
4 666 227 206 361
4 279 211 487 379
4 454 200 334 635
4 489 454 278 334
4 658 244 234 359
4 658 234 244 524
4 666 397 271 545
4 666 545 271 226
4 356 515 509 684
4 575 540 682 584
4 234 449 653 521
4 359 234 658 449
4 658 359 449 519
4 311 252 551 253
4 253 252 551 463
4 551 311 253 262
4 132 398 492 536
4 354 652 302 348
4 348 652 302 627
4 277 52 48 54
4 497 254 611 675
4 152 476 387 275
4 254 611 675 228
4 328 461 356 462
4 461 462 684 356
4 432 218 202 268
4 238 475 509 354
4 268 432 664 202
4 268 664 213 202
4 550 678 333 511
4 473 302 354 652
4 354 475 509 473
4 473 509 354 302
4 146 493 387 486
4 596 289 311 512
4 522 289 596 512
4 596 512 262 607
4 596 512 311 262
4 542 535 244 266
4 542 266 633 535
4 570 535 283 241
4 570 241 283 281
4 222 617 310 589
4 589 274 617 310
4 589 617 301 409
4 499 222 589 617
4 409 499 589 617
4 589 301 617 274
4 553 514 506 238
4 553 514 237 506
4 514 446 237 506
4 683 352 294 677
4 654 466 293 655
4 338 654 466 293
4 216 356 471 257
4 494 407 393 333
4 141 407 494 492
4 254 469 673 468
4 391 617 98 93
4 427 330 411 195
4 319 323 231 374
4 374 314 319 323
4 518 516 488 360
4 488 518 360 230
4 523 560 310 295
4 310 592 560 523
4 404 203 422 301
4 404 589 203 301
4 311 289 263 512
4 186 506 312 526
4 397 312 186 506
4 303 622 256 683
4 256 683 376 303
4 598 303 332 256
4 303 622 332 256
4 610 256 332 622
4 610 332 256 598
4 604 315 316 661
4 604 290 661 316
4 249 390 489 503
4 198 631 583 634
4 198 678 631 634
4 454 173 171 358
4 508 627 484 239
4 173 533 358 454
4 618 503 387 275
4 156 390 161 249
4 249 390 161 489
4 520 181 500 551
4 672 309 299 669
4 553 312 506 237
4 134 547 351 130
4 357 498 274 671
4 274 498 301 671
4 295 310 523 205
4 625 405 333 626
4 303 294 687 325
4 687 303 620 294
4 525 685 348 665
4 525 685 665 240
4 488 563 327 360
4 360 563 327 513
4 551 339 480 608
4 551 596 339 520
4 205 310 222 295
4 469 192 588 470
4 416 192 588 469
4 428 7 201 642
4 286 501 592 559
4 666 482 286 549
4 199 432 504 202
4 629 610 250 676
4 395 464 427 330
4 470 464 606 395
4 676 610 250 332
4 185 374 527 668
4 336 591 263 527
4 591 336 374 527
4 263 668 577 527
4 622 332 610 676
4 262 365 616 480
4 480 365 616 582
4 673 580 437 603
4 603 580 437 421
4 515 473 509 475
4 503 209 628 381
4 329 625 194 675
4 329 625 675 228
4 629 610 616 250
4 616 610 480 250
4 254 370 674 675
4 254 611 228 468
4 254 228 674 470
4 353 558 492 248
4 507 483 682 553
4 507 514 553 238
4 507 514 483 553
4 361 507 553 238
4 337 330 411 427
4 311 196 247 235
4 247 196 233 235
4 682 584 399 342
4 575 584 342 667
4 539 669 23 667
4 217 667 539 23
4 517 539 669 23
4 517 288 539 23
4 478 509 684 462
4 272 540 584 271
4 271 298 540 584
4 190 636 264 543
4 318 543 264 636
4 93 617 100 406
4 391 406 617 93
4 106 100 409 474
4 236 221 686 590
4 421 401 290 437
4 421 401 437 603
4 545 217 226 186
4 666 397 545 186
4 666 186 545 226
4 95 474 406 100
4 617 100 406 474
4 409 617 301 474
4 375 425 351 547
4 425 547 322 351
4 425 231 322 547
4 503 390 381 387
4 278 636 200 548
4 616 250 582 629
4 334 629 250 676
4 641 559 501 549
4 549 501 286 559
4 641 505 559 549
4 666 549 559 505
4 515 362 356 645
4 245 677 550 626
4 198 245 677 550
4 520 551 500 608
4 608 551 500 261
4 200 552 334 635
4 635 423 552 182
4 312 237 553 682
4 397 682 312 553
4 361 238 553 397
4 483 682 553 237
4 205 310 191 222
4 182 183 303 325
4 492 407 494 333
4 403 308 242 556
4 436 80 75 258
4 556 394 308 242
4 638 394 556 242
4 638 258 242 556
4 403 556 242 258
4 495 493 486 331
4 486 493 387 331
4 487 225 211 279
4 622 183 332 423
4 622 318 183 423
4 303 294 325 183
4 277 382 219 54
4 277 52 54 219
4 678 333 372 188
4 511 184 372 558
4 558 184 408 195
4 409 337 301 404
4 409 474 301 337
4 497 370 675 210
4 497 604 370 210
4 529 298 482 361
4 310 274 561 357
4 295 496 560 561
4 295 561 560 310
4 443 365 616 262
4 443 616 253 262
4 327 513 563 350
4 563 373 679 450
4 563 519 450 359
4 243 519 563 359
4 177 346 533 179
4 177 548 358 346
4 610 256 463 598
4 633 266 569 535
4 488 373 382 327
4 488 230 360 327
4 630 288 267 544
4 288 444 544 630
4 544 288 364 444
4 288 544 269 267
4 333 564 678 198
4 678 188 564 333
4 234 449 521 658
4 377 62 64 287
4 377 287 240 392
4 355 26 29 257
4 328 33 29 27
4 311 235 578 283
4 235 292 283 266
4 674 567 470 395
4 674 470 567 203
4 551 520 339 608
4 657 359 563 679
4 359 680 679 657
4 379 30 37 487
4 52 277 385 219
4 277 386 385 219
4 484 510 239 627
4 484 510 627 223
4 383 325 182 303
4 545 312 186 397
4 545 312 217 186
4 616 480 582 250
4 618 629 582 503
4 503 629 582 250
4 618 629 616 582
4 292 193 247 578
4 193 311 247 578
4 595 636 568 200
4 200 636 568 552
4 622 423 568 651
4 622 568 595 651
4 552 636 568 423
4 225 279 277 413
4 561 357 274 671
4 596 311 196 632
4 263 577 572 593
4 512 263 311 593
4 573 10 199 431
4 463 253 610 480
4 551 253 463 480
4 551 262 253 480
4 195 574 184 408
4 395 574 329 195
4 329 460 574 395
4 558 184 372 188
4 372 255 184 511
4 661 207 315 271
4 661 315 272 271
4 523 685 592 530
4 434 491 448 265
4 316 315 272 661
4 316 290 661 272
4 185 435 371 527
4 683 376 294 456
4 303 376 294 683
4 254 228 675 674
4 529 354 239 348
4 498 458 301 474
4 282 668 281 457
4 668 335 280 457
4 457 668 281 280
4 512 289 263 336
4 349 289 512 336
4 441 289 349 336
4 63 59 317 65
4 415 192 416 254
4 415 207 416 192
4 261 463 581 672
4 266 283 569 535
4 365 619 331 582
4 677 294 683 583
4 198 550 677 583
4 550 583 631 294
4 583 251 677 198
4 677 583 550 294
4 677 583 543 251
4 583 677 543 318
4 677 683 318 583
4 235 578 283 292
4 283 537 292 624
4 473 216 304 645
4 509 515 356 216
4 473 515 216 645
4 515 216 509 473
4 607 365 614 435
4 607 619 614 365
4 452 214 467 448
4 563 373 350 679
4 679 373 225 420
4 399 237 312 682
4 584 682 312 397
4 584 682 399 312
4 298 682 584 361
4 682 361 397 584
4 272 540 575 584
4 584 298 540 682
4 359 220 449 307
4 185 187 322 585
4 119 594 322 585
4 39 270 471 41
4 226 217 276 186
4 380 585 597 133
4 275 503 387 390
4 562 280 591 586
4 179 208 346 533
4 479 588 357 587
4 416 587 588 192
4 479 587 192 588
4 630 363 267 288
4 363 297 197 247
4 233 363 267 630
4 413 386 385 277
4 467 221 259 655
4 446 467 221 259
4 290 669 539 667
4 217 290 539 667
4 392 348 525 223
4 454 358 200 635
4 679 359 528 680
4 528 680 359 654
4 466 590 234 656
4 466 649 590 656
4 656 590 234 236
4 656 649 590 686
4 604 415 661 437
4 290 661 437 604
4 340 160 162 198
4 640 160 612 158
4 38 257 304 41
4 41 320 216 304
4 209 334 250 189
4 557 501 529 576
4 185 435 527 374
4 374 336 435 527
4 683 294 183 583
4 683 183 318 583
4 269 539 217 364
4 539 269 288 364
4 479 592 560 310
4 592 559 501 621
4 592 530 559 560
4 523 530 592 560
4 479 621 559 592
4 265 448 655 221
4 649 590 221 265
4 680 535 657 243
4 247 637 292 233
4 502 452 461 644
4 356 461 328 644
4 636 346 358 548
4 548 636 200 358
4 200 388 552 635
4 635 388 552 423
4 563 359 450 679
4 450 359 220 679
4 351 187 291 597
4 322 187 351 597
4 676 595 200 278
4 676 595 568 200
4 622 568 676 595
4 435 371 443 187
4 322 585 187 597
4 328 471 29 33
4 463 480 610 598
4 598 463 261 256
4 649 268 646 599
4 599 590 466 649
4 599 466 653 649
4 649 646 653 599
4 649 590 265 599
4 451 282 281 566
4 281 451 283 624
4 281 624 282 451
4 375 351 425 614
4 614 435 351 425
4 600 308 403 513
4 513 360 600 308
4 671 474 617 406
4 274 617 561 671
4 581 672 463 579
4 431 202 571 439
4 431 571 202 433
4 536 353 195 426
4 569 570 535 283
4 186 312 601 526
4 276 186 601 526
4 276 660 601 364
4 246 364 601 660
4 420 338 212 439
4 265 491 218 433
4 504 433 218 347
4 491 433 347 218
4 185 371 435 187
4 594 185 322 585
4 98 89 222 391
4 373 225 382 327
4 511 333 558 372
4 188 248 558 408
4 131 188 408 248
4 266 630 542 633
4 546 681 246 269
4 321 192 447 670
4 321 192 470 447
4 479 192 321 670
4 583 294 183 325
4 583 325 631 294
4 64 287 70 240
4 64 326 70 66
4 377 389 326 66
4 117 594 322 119
4 8 419 199 5
4 481 648 382 373
4 648 211 379 382
4 373 648 382 211
4 195 574 408 411
4 5 432 199 13
4 445 199 432 13
4 469 468 470 588
4 564 393 198 333
4 564 678 198 343
4 255 460 184 329
4 184 329 460 574
4 552 189 635 182
4 635 334 209 189
4 189 250 209 619
4 189 598 250 609
4 598 609 189 383
4 383 305 325 303
4 60 219 317 63
4 308 219 317 60
4 635 368 346 423
4 470 464 203 284
4 470 284 203 447
4 216 509 508 462
4 654 234 466 655
4 466 655 234 590
4 590 655 234 236
4 234 655 659 236
4 234 655 654 659
4 381 628 387 151
4 541 636 346 190
4 264 340 190 251
4 162 340 190 166
4 583 183 318 264
4 318 183 423 264
4 528 338 220 420
4 648 465 379 212
4 464 567 422 426
4 464 203 284 301
4 254 192 469 470
4 416 192 469 254
4 464 203 422 567
4 319 322 121 117
4 322 319 121 231
4 496 391 87 90
4 268 649 265 599
4 277 487 225 382
4 487 277 225 279
4 337 330 118 411
4 411 118 120 330
4 399 526 312 237
4 649 221 414 265
4 649 686 414 221
4 59 219 317 394
4 63 219 317 59
4 337 118 330 422
4 422 330 122 118
4 377 613 287 392
4 415 321 254 370
4 254 321 470 674
4 321 192 254 470
4 416 615 587 192
4 479 615 192 587
4 207 615 505 416
4 207 576 615 192
4 576 615 192 479
4 207 615 416 192
4 479 310 357 274
4 479 357 588 274
4 391 617 295 222
4 295 617 310 222
4 261 463 297 581
4 297 517 637 288
4 297 579 637 517
4 444 363 630 288
4 682 507 553 361
4 682 361 553 397
4 637 193 247 292
4 637 193 297 247
4 193 311 572 252
4 102 106 108 474
4 604 669 663 401
4 460 468 470 228
4 254 468 228 470
4 672 299 309 581
4 601 526 312 399
4 601 246 526 399
4 207 576 501 621
4 592 621 501 576
4 479 576 621 592
4 207 576 621 615
4 576 621 615 479
4 1 419 5 428
4 1 419 428 201
4 419 432 199 5
4 659 524 234 246
4 524 605 659 234
4 544 605 524 542
4 122 128 330 426
4 330 426 422 122
4 231 322 547 121
4 546 524 246 521
4 503 629 249 275
4 503 275 249 390
4 636 346 548 541
4 273 419 201 504
4 273 419 504 573
4 198 550 583 631
4 343 678 198 634
4 198 678 550 631
4 295 561 310 617
4 391 496 561 406
4 295 496 561 391
4 391 406 561 617
4 584 290 545 217
4 217 290 545 226
4 170 172 643 623
4 172 175 346 623
4 169 623 541 175
4 169 190 541 623
4 643 170 623 430
4 340 430 346 623
4 190 340 346 623
4 283 624 292 578
4 577 624 283 578
4 173 533 177 358
4 533 179 173 177
4 603 401 437 620
4 236 659 246 526
4 411 330 126 408
4 480 365 582 619
4 447 192 284 670
4 470 192 284 447
4 508 302 627 239
4 216 302 627 508
4 369 319 374 314
4 113 319 313 107
4 480 619 582 250
4 546 288 269 267
4 266 233 630 633
4 297 181 197 632
4 181 297 500 551
4 196 197 632 247
4 247 297 197 632
4 444 197 630 363
4 488 373 450 481
4 612 153 198 393
4 612 393 198 564
4 612 564 198 343
4 418 235 633 196
4 628 387 503 381
4 313 322 185 374
4 313 322 374 319
4 594 322 185 313
4 117 322 313 319
4 117 322 594 313
4 271 549 501 482
4 196 197 247 233
4 247 363 233 197
4 382 219 54 230
4 676 568 334 200
4 200 568 334 552
4 399 342 269 681
4 217 342 269 399
4 418 235 311 283
4 553 514 483 237
4 523 685 530 240
4 685 557 523 592
4 254 370 675 497
4 673 437 497 603
4 497 673 603 345
4 489 209 503 381
4 614 187 351 435
4 331 582 619 503
4 342 23 269 681
4 233 235 196 633
4 233 196 630 633
4 448 221 467 655
4 470 464 567 203
4 254 437 370 497
4 591 668 263 527
4 591 668 374 314
4 668 591 374 527
4 591 280 668 314
4 280 591 668 281
4 263 591 281 668
4 590 655 221 265
4 599 655 466 590
4 590 655 265 599
4 236 655 221 590
4 237 477 682 681
4 682 342 399 681
4 399 681 237 682
4 391 406 93 90
4 496 406 391 90
4 286 239 442 685
4 206 239 442 286
4 205 295 222 83
4 191 523 310 205
4 665 205 523 191
4 239 206 510 484
4 239 206 484 508
4 541 623 346 175
4 541 190 346 623
4 153 198 160 612
4 343 340 198 612
4 340 160 198 612
4 287 438 240 525
4 311 263 572 593
4 459 317 308 556
4 556 394 317 308
4 480 609 619 250
4 480 609 250 598
4 644 347 273 201
4 480 610 598 250
4 414 686 650 221
4 490 435 614 425
4 253 616 610 480
4 281 624 283 577
4 281 577 282 624
4 460 468 606 470
4 343 340 612 640
4 343 164 340 640
4 340 160 612 640
4 340 164 160 640
4 657 600 243 455
4 403 455 600 531
4 535 657 243 455
4 210 497 620 456
4 207 621 501 641
4 207 641 501 549
4 207 505 641 549
4 207 641 505 615
4 207 621 641 615
4 661 315 207 415
4 205 295 341 523
4 64 287 240 377
4 64 377 326 66
4 196 630 197 233
4 483 237 686 477
4 643 172 176 346
4 643 172 346 623
4 346 643 623 430
4 346 176 643 430
4 485 183 423 182
4 485 325 183 182
4 485 182 423 368
4 424 260 457 516
4 309 539 299 669
4 401 290 669 539
4 435 441 349 336
4 329 550 511 215
4 329 215 511 255
4 255 611 329 215
4 247 292 235 233
4 470 464 395 567
4 583 325 183 534
4 583 183 264 634
4 264 183 423 634
4 635 189 552 334
4 603 437 497 620
4 662 267 524 266
4 662 266 524 244
4 437 415 254 370
4 437 415 661 580
4 197 363 233 630
4 107 335 101 105
4 511 550 678 631
4 511 631 678 255
4 216 515 356 645
4 489 390 381 503
4 213 293 434 571
4 408 558 195 248
4 353 195 329 558
4 353 248 195 558
4 521 234 524 246
4 524 658 234 521
4 604 663 620 401
4 672 669 299 663
4 625 395 329 353
4 398 492 536 353
4 584 312 545 397
4 584 312 217 545
4 637 297 193 579
4 193 297 252 579
4 397 553 312 506
4 399 584 217 342
4 584 399 217 312
4 220 653 466 234
4 651 423 568 636
4 651 568 595 636
4 651 318 423 636
4 295 560 341 523
4 77 429 83 81
4 416 505 587 615
4 356 462 509 216
4 417 538 519 243
4 482 529 555 298
4 501 555 482 529
4 514 446 221 237
4 237 686 236 221
4 432 504 218 204
4 510 348 239 627
4 348 302 239 627
4 23 288 539 269
4 299 401 669 539
4 672 299 620 663
4 299 401 539 22
4 484 223 627 270
4 652 306 627 223
4 306 320 627 223
4 270 223 627 320
4 217 269 601 399
4 269 364 217 601
4 542 524 244 680
4 417 455 243 600
4 243 455 241 535
4 221 214 467 684
4 478 238 514 509
4 238 475 514 509
4 478 514 238 506
4 516 260 600 242
4 403 455 260 600
4 403 242 600 260
4 440 229 212 202
4 440 202 212 213
4 465 440 212 213
4 584 290 661 545
4 272 290 661 584
4 580 226 661 290
4 545 290 661 226
4 669 663 401 299
4 376 672 620 663
4 424 638 242 394
4 394 516 242 424
4 392 613 554 377
4 392 300 554 613
4 664 440 202 445
4 190 543 264 251
4 340 251 583 198
4 583 340 264 251
4 591 314 374 323
4 591 586 280 314
4 591 586 314 323
4 356 471 257 328
4 273 419 4 0
4 273 0 6 201
4 6 644 201 9
4 4 10 199 573
4 453 14 18 11
4 14 644 355 17
4 453 18 14 355
4 199 19 13 445
4 546 681 269 23
4 229 24 31 472
4 379 37 42 487
4 413 277 49 43
4 306 320 51 44
4 306 44 304 320
4 59 54 219 230
4 389 377 554 55
4 389 55 554 402
4 613 56 554 377
4 230 394 219 59
4 65 317 71 394
4 72 76 341 70
4 74 317 459 75
4 436 258 86 80
4 78 638 82 85
4 258 85 82 638
4 258 85 638 639
4 324 258 91 86
4 400 324 258 91
4 639 92 97 400
4 111 319 107 105
4 113 117 594 313
4 474 108 337 106
4 458 108 337 474
4 412 109 105 314
4 404 106 337 110
4 422 118 122 116
4 547 322 127 121
4 120 330 126 411
4 131 408 126 248
4 547 130 322 351
4 426 330 536 128
4 188 137 144 494
4 398 143 407 405
4 407 149 405 143
4 393 144 564 150
4 390 151 157 381
4 275 390 387 152
4 249 489 161 167
4 489 381 157 163
4 430 166 340 164
4 340 166 160 164
4 541 346 548 180
4 12 14 644 9
4 642 204 268 647
4 644 355 453 14
4 648 211 212 379
4 328 356 471 462
4 356 462 684 509
4 356 502 515 684
4 414 650 647 214
4 475 684 509 515
4 475 684 515 650
4 473 216 302 652
4 308 513 327 386
4 521 234 656 653
4 653 466 234 656
4 653 649 466 656
4 221 236 237 259
4 227 508 239 238
4 389 510 484 223
4 389 223 240 510
4 510 348 627 223
4 392 223 525 240
4 392 348 223 652
4 348 652 627 223
4 317 308 68 459
4 394 360 219 308
4 327 360 308 219
4 531 403 513 600
4 359 244 680 243
4 679 359 220 528
4 605 524 542 680
4 656 521 236 234
4 521 236 681 656
4 526 236 237 246
4 236 234 246 659
4 399 246 526 237
4 246 681 237 399
4 361 227 239 238
4 239 361 529 482
4 361 529 507 239
4 206 239 510 442
4 482 239 286 529
4 530 510 685 442
4 638 258 556 75
4 638 242 258 424
4 516 260 242 424
4 424 242 258 260
4 532 403 260 258
4 455 241 417 243
4 482 529 286 501
4 77 76 429 81
4 565 532 260 280
4 260 457 281 280
4 292 538 537 266
4 283 537 266 292
4 267 266 662 292
4 233 292 267 637
4 418 569 235 283
4 421 22 226 290
4 529 501 555 576
4 310 557 592 523
4 479 576 592 557
4 107 335 105 314
4 562 280 586 412
4 565 591 280 281
4 281 570 565 591
4 311 283 578 263
4 309 22 367 299
4 309 22 299 539
4 290 580 437 661
4 604 669 401 290
4 437 415 580 254
4 437 604 370 497
4 274 301 617 671
4 274 588 301 498
4 323 314 319 109
4 323 412 314 109
4 193 311 297 247
4 297 581 463 579
4 261 581 297 367
4 672 299 581 620
4 425 351 322 384
4 611 329 215 675
4 395 228 460 470
4 329 228 611 460
4 329 625 228 395
4 618 365 331 582
4 303 376 620 294
4 628 614 619 331
4 396 628 145 387
4 0 419 201 273
4 644 273 6 201
4 453 644 9 201
4 445 19 232 199
4 539 22 226 344
4 421 22 290 401
4 421 22 401 603
4 299 620 401 602
4 603 22 401 602
4 217 23 269 342
4 382 42 277 487
4 382 42 487 379
4 413 279 277 43
4 49 413 385 277
4 613 300 554 56
4 66 326 70 72
4 68 459 74 317
4 429 83 81 295
4 496 79 84 81
4 410 76 72 79
4 403 556 258 436
4 639 400 258 92
4 95 100 102 474
4 412 105 103 99
4 474 100 409 617
4 106 104 409 100
4 106 110 404 104
4 411 115 120 118
4 319 114 121 231
4 380 125 585 133
4 536 248 132 128
4 476 140 146 486
4 398 492 143 138
4 640 164 160 158
4 169 190 623 166
4 169 162 190 166
4 623 170 166 430
4 643 176 170 430
4 430 166 164 170
4 173 454 171 168
4 24 431 229 20
4 201 504 204 347
4 432 204 218 268
4 432 642 204 268
4 504 642 201 204
4 440 465 646 213
4 646 440 213 664
4 268 664 646 213
4 204 214 647 502
4 268 204 218 265
4 265 214 647 204
4 356 462 216 471
4 220 648 211 212
4 373 211 382 225
4 220 648 465 307
4 220 648 373 211
4 220 648 450 373
4 220 648 212 465
4 213 653 465 646
4 213 466 653 599
4 684 461 214 467
4 475 684 650 514
4 221 514 650 684
4 684 478 462 461
4 478 461 684 467
4 302 509 238 508
4 514 475 684 509
4 216 627 484 508
4 308 317 68 60
4 450 519 307 359
4 420 338 220 212
4 293 466 213 599
4 259 236 526 659
4 478 446 514 506
4 483 237 514 686
4 507 475 514 238
4 507 475 483 514
4 227 508 238 478
4 227 238 506 478
4 507 354 238 239
4 308 360 327 513
4 657 513 563 600
4 657 243 600 563
4 243 488 600 563
4 243 519 488 563
4 220 528 359 654
4 220 359 234 654
4 246 234 236 521
4 246 659 660 526
4 521 681 236 246
4 361 238 239 507
4 348 529 685 239
4 482 298 271 361
4 510 223 525 348
4 403 260 258 242
4 455 260 565 532
4 455 403 260 532
4 538 662 658 244
4 662 244 524 658
4 662 266 244 538
4 662 292 266 538
4 660 544 246 364
4 542 524 267 266
4 269 246 601 399
4 271 482 555 298
4 557 501 592 529
4 501 555 271 482
4 341 410 76 72
4 570 455 281 565
4 570 283 569 418
4 569 235 283 266
4 226 290 22 539
4 207 505 549 271
4 207 501 555 271
4 315 555 272 271
4 641 559 505 615
4 641 621 559 615
4 207 576 555 501
4 621 559 615 479
4 83 391 295 222
4 577 263 283 281
4 577 263 281 668
4 263 283 578 577
4 181 297 367 500
4 551 520 181 632
4 517 23 637 288
4 401 290 539 22
4 580 416 673 254
4 670 274 588 301
4 670 589 274 301
4 606 498 301 588
4 409 474 337 106
4 311 263 578 572
4 596 311 551 262
4 252 579 297 463
4 309 299 367 581
4 581 602 299 367
4 22 299 401 602
4 581 602 620 299
4 261 581 602 620
4 602 687 620 603
4 576 479 321 670
4 284 606 301 588
4 330 464 422 426
4 614 187 331 351
4 593 443 253 262
4 365 618 331 443
4 339 607 480 619
4 614 619 331 365
4 189 332 250 598
4 256 261 598 303
4 329 215 675 194
4 333 625 626 329
4 628 503 331 619
4 334 676 250 332
4 628 145 387 151
4 381 387 390 151
4 622 423 332 568
4 622 332 676 568
4 622 318 423 651
4 332 598 189 383
4 552 568 332 423
4 550 511 333 329
4 626 550 333 329
4 149 245 407 405
4 150 393 612 564
4 150 564 612 343
4 264 368 346 340
4 340 430 623 166
4 190 340 623 166
4 22 539 288 344
4 491 218 347 204
4 202 265 434 213
4 439 211 212 420
4 599 646 653 213
4 650 647 214 502
4 515 362 647 502
4 214 221 467 448
4 452 467 214 461
4 508 462 484 216
4 338 220 466 654
4 236 590 686 656
4 514 686 221 650
4 449 359 307 519
4 686 656 681 236
4 237 686 681 236
4 246 681 236 237
4 658 521 524 546
4 269 544 524 267
4 246 364 269 601
4 23 637 288 546
4 544 364 288 269
4 444 288 344 22
4 666 271 549 505
4 309 288 22 539
4 500 297 367 261
4 602 22 299 367
4 261 581 367 602
4 602 401 603 620
4 620 497 603 345
4 395 464 426 567
4 250 610 598 332
4 430 340 346 368
4 524 544 269 246
4 544 364 269 246
4 542 544 267 524
4 669 316 290 604
4 246 544 660 659
4 246 659 524 544
4 269 546 267 524
4 546 681 521 246

CELL_TYPES 2400
10
10
10
10
10
10
10
10
10
10
10
10
10
10
10
10
10
10
10
10
10
10
10
10
10
10
10
10
10
10
10
10
10
10
10
10
10
10
10
10
10
10
10
10
10
10
10
10
10
10
10
10
10
10
10
10
10
10
10
10
10
10
10
10
10
10
10
10
10
10
10
10
10
10
10
10
10
10
10
10
10
10
10
10
10
10
10
10
10
10
10
10
10
10
10
10
10
10
10
10
10
10
10
10
10
10
10
10
10
10
10
10
10
10
10
10
10
10
10
10
10
10
10
10
10
10
10
10
10
10
10
10
10
10
10
10
10
10
10
10
10
10
10
10
10
10
10
10
10
10
10
10
10
10
10
10
10
10
10
10
10
10
10
10
10
10
10
10
10
10
10
10
10
10
10
10
10
10
10
10
10
10
10
10
10
10
10
10
10
10
10
10
10
10
10
10
10
10
10
10
10
10
10
10
10
10
10
10
10
10
10
10
10
10
10
10
10
10
10
10
10
10
10
10
10
10
10
10
10
10
10
10
10
10
10
10
10
10
10
10
10
10
10
10
10
10
10
10
10
10
10
10
10
10
10
10
10
10
10
10
10
10
10
10
10
10
10
10
10
10
10
10
10
10
10
10
10
10
10
10
10
10
10
10
10
10
10
10
10
10
10
10
10
10
10
10
10
10
10
10
10
10
10
10
10
10
10
10
10
10
10
10
10
10
10
10
10
10
10
10
10
10
10
10
10
10
10
10
10
10
10
10
10
10
10
10
10
10
10
10
10
10
10
10
10
10
10
10
10
10
10
10
10
10
10
10
10
10
10
10
10
10
10
10
10
10
10
10
10
10
10
10
10
10
10
10
10
10
10
10
10
10
10
10
10
10
10
10
10
10
10
10
10
10
10
10
10
10
10
10
10
10
10
10
10
10
10
10
10
10
10
10
10
10
10
10
10
10
10
10
10
10
10
10
10
10
10
10
10
10
10
10
10
10
10
10
10
10
10
10
10
10
10
10
10
10
10
10
10
10
10
10
10
10
10
10
10
10
10
10
10
10
10
10
10
10
10
10
10
10
10
10
10
10
10
10
10
10
10
10
10
10
10
10
10
10
10
10
10
10
10
10
10
10
10
10
10
10
10
10
10
10
10
10
10
10
10
10
10
10
10
10
10
10
10
10
10
10
10
10
10
10
10
10
10
10
10
10
10
10
10
10
10
10
10
10
10
10
10
10
10
10
10
10
10
10
10
10
10
10
10
10
10
10
10
10
10
10
10
10
10
10
10
10
10
10
10
10
10
10
10
10
10
10
10
10
10
10
10
10
10
10
10
10
10
10
10
10
10
10
10
10
10
10
10
10
10
10
10
10
10
10
10
10
10
10
10
10
10
10
10
10
10
10
10
10
10
10
10
10
10
10
10
10
10
10
10
10
10
10
10
10
10
10
10
10
10
10
10
10
10
10
10
10
10
10
10
10
10
10
10
10
10
10
10
10
10
10
10
10
10
10
10
10
10
10
10
10
10
10
10
10
10
10
10
10
10
10
10
10
10
10
10
10
10
10
10
10
10
10
10
10
10
10
10
10
10
10
10
10
10
10
10
10
10
10
10
10
10
10
10
10
10
10
10
10
10
10
10
10
10
10
10
10
10
10
10
10
10
10
10
10
10
10
10
10
10
10
10
10
10
10
10
10
10
10
10
10
10
10
10
10
10
10
10
10
10
10
10
10
10
10
10
10
10
10
10
10
10
10
10
10
10
10
10
10
10
10
10
10
10
10
10
10
10
10
10
10
10
10
10
10
10
10
10
10
10
10
10
10
10
10
10
10
10
10
10
10
10
10
10
10
10
10
10
10
10
10
10
10
10
10
10
10
10
10
10
10
10
10
10
10
10
10
10
10
10
10
10
10
10
10
10
10
10
10
10
10
10
10
10
10
10
10
10
10
10
10
10
10
10
10
10
10
10
10
10
10
10
10
10
10
10
10
10
10
10
10
10
10
10
10
10
10
10
10
10
10
10
10
10
10
10
10
10
10
10
10
10
10
10
10
10
10
10
10
10
10
10
10
10
10
10
10
10
10
10
10
10
10
10
10
10
10
10
10
10
10
10
10
10
10
10
10
10
10
10
10
10
10
10
10
10
10
10
10
10
10
10
10
10
10
10
10
10
10
10
10
10
10
10
10
10
10
10
10
10
10
10
10
10
10
10
10
10
10
10
10
10
10
10
10
10
10
10
10
10
10
10
10
10
10
10
10
10
10
10
10
10
10
10
10
10
10
10
10
10
10
10
10
10
10
10
10
10
10
10
10
10
10
10
10
10
10
10
10
10
10
10
10
10
10
10
10
10
10
10
10
10
10
10
10
10
10
10
10
10
10
10
10
10
10
10
10
10
10
10
10
10
10
10
10
10
10
10
10
10
10
10
10
10
10
10
10
10
10
10
10
10
10
10
10
10
10
10
10
10
10
10
10
10
10
10
10
10
10
10
10
10
10
10
10
10
10
10
10
10
10
10
10
10
10
10
10
10
10
10
10
10
10
10
10
10
10
10
10
10
10
10
10
10
10
10
10
10
10
10
10
10
10
10
10
10
10
10
10
10
10
10
10
10
10
10
10
10
10
10
10
10
10
10
10
10
10
10
10
10
10
10
10
10
10
10
10
10
10
10
10
10
10
10
10
10
10
10
10
10
10
10
10
10
10
10
10
10
10
10
10
10
10
10
10
10
10
10
10
10
10
10
10
10
10
10
10
10
10
10
10
10
10
10
10
10
10
10
10
10
10
10
10
10
10
10
10
10
10
10
10
10
10
10
10
10
10
10
10
10
10
10
10
10
10
10
10
10
10
10
10
10
10
10
10
10
10
10
10
10
10
10
10
10
10
10
10
10
10
10
10
10
10
10
10
10
10
10
10
10
10
10
10
10
10
10
10
10
10
10
10
10
10
10
10
10
10
10
10
10
10
10
10
10
10
10
10
10
10
10
10
10
10
10
10
10
10
10
10
10
10
10
10
10
10
10
10
10
10
10
10
10
10
10
10
10
10
10
10
10
10
10
10
10
10
10
10
10
10
10
10
10
10
10
10
10
10
10
10
10
10
10
10
10
10
10
10
10
10
10
10
10
10
10
10
10
10
10
10
10
10
10
10
10
10
10
10
10
10
10
10
10
10
10
10
10
10
10
10
10
10
10
10
10
10
10
10
10
10
10
10
10
10
10
10
10
10
10
10
10
10
10
10
10
10
10
10
10
10
10
10
10
10
10
10
10
10
10
10
10
10
10
10
10
10
10
10
10
10
10
10
10
10
10
10
10
10
10
10
10
10
10
10
10
10
10
10
10
10
10
10
10
10
10
10
10
10
10
10
10
10
10
10
10
10
10
10
10
10
10
10
10
10
10
10
10
10
10
10
10
10
10
10
10
10
10
10
10
10
10
10
10
10
10
10
10
10
10
10
10
10
10
10
10
10
10
10
10
10
10
10
10
10
10
10
10
10
10
10
10
10
10
10
10
10
10
10
10
10
10
10
10
10
10
10
10
10
10
10
10
10
10
10
10
10
10
10
10
10
10
10
10
10
10
10
10
10
10
10
10
10
10
10
10
10
10
10
10
10
10
10
10
10
10
10
10
10
10
10
10
10
10
10
10
10
10
10
10
10
10
10
10
10
10
10
10
10
10
10
10
10
10
10
10
10
10
10
10
10
10
10
10
10
10
10
10
10
10
10
10
10
10
10
10
10
10
10
10
10
10
10
10
10
10
10
10
10
10
10
10
10
10
10
10
10
10
10
10
10
10
10
10
10
10
10
10
10
10
10
10
10
10
10
10
10
10
10
10
10
10
10
10
10
10
10
10
10
10
10
10
10
10
10
10
10
10
10
10
10
10
10
10
10
10
10
10
10
10
10
10
10
10
10
10
10
10
10
10
10
10
10
10
10
10
10
10
10
10
10
10
10
10
10
10
10
10
10
10
10
10
10
10
10
10
10
10
10
10
10
10
10
10
10
10
10
10
10
10
10
10
10
10
10
10
10
10
10
10
10
10
10
10
10
10
10
10
10
10
10
10
10
10
10
10
10
10
10
10
10
10
10
10
10
10
10
10
10
10
10
10
10
10
10
10
10
10
10
10
10
10
10
10
10
10
10
10
10
10
10
10
10
10
10
10
10
10
10
10
10
10
10
10
10
10
10
10
10
10
10
10
10
10
10
10
10
10
10
10
10
10
10
10
10
10
10
10
10
10
10
10
10
10
10
10
10
10
10
10
10
10
10
10
10
10
10
10
10
10
10
10
10
10
10
10
10
10
10
10
10
10
10
10
10
10
10
10
10
10
10
10
10
10
10
10
10
10
10
10
10
10
10
10
10
10
10
10
10
10
10
10
10
10
10
10
10
10
10
10
10
10
10
10
10
10
10
10
10
10
10
10
10
10
10
10
10
10
10
10
10
10
10
10
10
10
10
10
10
10
10
10
10
10
10
10
10
10
10
10
10
10
10
10
10
10
10
10
10
10
10
10
10
10
10
10
10
10
10
10
10
10
10
10
10
10
10
10
10
10
10
10
10
10
10
10
10
10
10
10
10
10
10
10
10
10
10
10
10
10
10
10
10
10
10
10
10
10
10
10
10
10
10
10
10
10
10
10
10
10
10
10
10
10
10
10
10
10
10
10
10
10
10
10
10
10
10
10
10
10
10
10
10
10
10
10
10
10
10
10
10
10
10
10
10
10
10
10
10
10
10
10
10
10
10
10
10
10
10
10
10
10
10
10
10
10
10
10
10
10
10
10
10
10
10
10
10
10
10
10
10
10
10
10
10
10
10
10
10
10
10
10
10
10
10
10
10
10
10
10
10
10
10
10
10
10
10
10
10
10
10
10
10
10
10
10
10
10
10
10
10
10
10
10
10
10
10
10
10
10
10
10
10
10
10
10
10
10
10
10
10
10
10
10
10
10
10
10
10
10
10
10
10
10
10
10
10
10
10
10
10
10
10
10
10
10
10
10
10
10
10
10
10
10
10
10
10
10
10
10
10
10
10
10
10
10
10
10
10
10
10
10
10
10
10
10
10
10
10
10
10
10
10
10
10
10
10
10
10
10
10
10
10
10
10
10
10
10
10
10
10
10
10
10
10
10
10
10
10
10
10
10
10
10
10
10
10
10
10
10
10
10
10
10
10
10
10
10
10
10
10
10
10
10
10
10
10
10
10
10
10
10
10
10
10
10
10
10
10
10
10
10
10
10
10
10
10
10
10
10
10
10
10
10
10
10
10
10
10
10
10
10
10
10
10
10
10
10
10
10
10
10
10
10
10
10
10
10
10
10
10
10
10
10
10
10
10
10
10
10
10
10
10
10
10
10
10
10
10
10
10
10
10
10
10
10
10
10
10
10
10
10
10
10
10
10
10
10
10
10
10
10
10
10
10
