# vtk DataFile Version 2.0
bar-186, Created by Gmsh
ASCII
DATASET UNSTRUCTURED_GRID
POINTS 86 double
0 0 0
10 0 0
10 0 1
0 0 1
0 0.5 0
10 0.5 0
10 0.5 1
0 0.5 1
5 0.25 1
5 0 0
5 0 0.5
5 0 1
5 0.5 0
5 0.25 0
5 0.5 1
2.5 0.125 1
5 0.5 0.5
7.5 0.375 1
2.5 0 0
7.5 0 0
2.5 0 0.25
2.5 0 1
2.5 0.125 0
7.5 0.5 0.75
2.5 0.5 0.25
6.25 0.3125 1
3.75 0 0
8.75 0 0
1.25 0 0.125
1.25 0 1
1.25 0.0625 0
3.75 0.5 0.375
1.25 0.5 0.125
7.5 0 0.75
7.5 0 1
7.5 0.5 0
2.5 0.5 0
7.5 0.375 0
1.25 0.0625 1
2.5 0.5 1
7.5 0.5 1
3.75 0.1875 1
8.75 0.4375 1
1.25 0 0
6.25 0 0
3.75 0 0.375
3.75 0 1
3.75 0.1875 0
6.25 0.5 0.625
8.75 0.5 0.875
6.25 0.5 1
1.25 0.5 1
3.75 0.5 0
1.25 0.5 0
8.75 0.5 0
6.25 0 0.625
8.75 0 0.875
6.25 0 1
8.75 0 1
6.25 0.5 0
6.25 0.3125 0
8.75 0.4375 0
3.75 0.5 1
8.75 0.5 1
0.625 0.5 1
9.375 0 0
8.125 0 0.8125
8.125 0.5 1
8.127338999999999 0.406367 1
8.115648 0 1
8.134304999999999 0.5 0.8134304999999999
1.875 0.5 0.1875
1.875 0 0
1.872661 0.09363303000000001 0
1.865695 0 0.1865695
1.884352 0.5 0
3.125 0 0.3125
3.125 0.5 0
3.140586 0 0
3.136668 0.1568334 0
3.109491 0.5 0.3109491
6.875 0.5 0.6875
6.859414 0.5 1
6.863332 0.3431666 1
6.894388 0 0.6894388
6.878899 0 1

CELLS 186 930
4 8 10 16 48
4 35 37 23 81
4 13 9 45 47
4 13 10 44 60
4 33 23 37 84
4 66 56 68 69
4 45 31 47 76
4 8 10 11 41
4 28 3 29 38
4 6 2 49 65
4 24 36 77 79
4 10 9 13 44
4 56 27 61 65
4 15 24 39 80
4 32 28 38 64
4 0 28 30 32
4 85 25 55 57
4 16 31 41 62
4 25 8 55 57
4 42 49 56 68
4 17 33 34 83
4 9 10 13 45
4 20 15 76 80
4 8 11 55 57
4 37 23 81 84
4 8 14 16 62
4 6 2 42 49
4 23 17 33 66
4 32 38 51 64
4 56 49 61 70
4 53 32 73 75
4 36 22 71 75
4 79 31 77 80
4 26 45 47 76
4 10 11 41 46
4 0 7 3 64
4 8 16 41 62
4 27 56 61 66
4 49 2 56 65
4 23 33 37 66
4 32 28 73 74
4 19 33 37 84
4 30 28 43 72
4 30 28 72 73
4 28 0 30 43
4 31 10 41 45
4 2 42 49 56
4 20 18 22 78
4 28 72 73 74
4 20 76 78 79
4 50 81 82 83
4 12 13 16 31
4 56 58 68 69
4 15 20 21 74
4 16 13 10 31
4 33 34 83 85
4 48 55 60 81
4 24 22 36 79
4 14 8 16 48
4 76 26 78 79
4 10 8 11 55
4 49 56 61 65
4 4 0 30 32
4 47 77 31 52
4 31 13 47 52
4 22 20 71 74
4 22 71 73 74
4 30 4 32 53
4 20 15 21 76
4 33 83 23 84
4 2 42 56 58
4 49 42 63 67
4 23 17 66 70
4 28 32 38 74
4 12 13 31 52
4 37 35 59 81
4 31 47 76 79
4 10 8 16 41
4 10 16 31 41
4 71 22 73 75
4 10 41 45 46
4 42 6 49 63
4 24 15 39 71
4 31 13 45 47
4 81 23 82 83
4 14 25 48 50
4 13 10 31 45
4 2 6 1 65
4 20 76 79 80
4 71 32 73 74
4 38 32 71 74
4 9 26 45 47
4 28 30 32 73
4 8 14 25 48
4 22 20 24 71
4 4 0 32 64
4 0 28 32 64
4 25 8 48 55
4 8 10 48 55
4 25 55 81 83
4 55 83 85 84
4 33 17 34 66
4 29 28 38 74
4 37 35 23 70
4 5 49 54 61
4 22 24 36 71
4 13 16 10 60
4 10 16 48 60
4 10 48 55 60
4 23 17 40 82
4 13 12 16 60
4 48 16 59 60
4 44 10 55 60
4 81 23 83 84
4 16 12 59 60
4 67 49 68 70
4 0 4 7 64
4 0 3 28 64
4 28 3 38 64
4 6 5 1 65
4 5 6 49 65
4 5 49 61 65
4 20 15 24 71
4 59 48 60 81
4 33 19 37 66
4 17 66 68 69
4 42 56 58 68
4 37 27 61 66
4 17 34 66 69
4 37 23 66 70
4 49 54 61 70
4 19 27 37 66
4 56 61 66 70
4 49 42 67 68
4 38 32 51 71
4 66 17 68 70
4 56 66 68 70
4 49 56 68 70
4 61 37 66 70
4 17 23 40 70
4 54 35 61 70
4 40 67 68 70
4 35 37 61 70
4 17 40 68 70
4 15 38 51 71
4 20 15 71 74
4 39 15 51 71
4 25 48 50 81
4 32 71 73 75
4 41 45 46 76
4 32 30 53 73
4 41 31 45 76
4 15 38 71 74
4 18 20 22 74
4 21 29 38 74
4 72 18 73 74
4 15 21 38 74
4 18 22 73 74
4 77 24 79 80
4 21 15 46 76
4 15 41 46 76
4 76 31 79 80
4 47 26 76 79
4 22 20 78 79
4 48 25 55 81
4 15 41 76 80
4 15 20 24 80
4 41 31 76 80
4 31 41 62 80
4 24 79 20 22
4 79 24 20 80
4 41 39 62 80
4 31 79 77 47
4 15 39 41 80
4 37 59 60 81
4 50 25 81 83
4 23 17 82 83
4 33 83 84 85
4 83 33 23 17
4 55 81 83 84
4 83 55 85 25
4 55 44 60 84
4 55 60 81 84
4 60 37 81 84
4 44 19 60 84
4 19 37 60 84

CELL_TYPES 186
10
10
10
10
10
10
10
10
10
10
10
10
10
10
10
10
10
10
10
10
10
10
10
10
10
10
10
10
10
10
10
10
10
10
10
10
10
10
10
10
10
10
10
10
10
10
10
10
10
10
10
10
10
10
10
10
10
10
10
10
10
10
10
10
10
10
10
10
10
10
10
10
10
10
10
10
10
10
10
10
10
10
10
10
10
10
10
10
10
10
10
10
10
10
10
10
10
10
10
10
10
10
10
10
10
10
10
10
10
10
10
10
10
10
10
10
10
10
10
10
10
10
10
10
10
10
10
10
10
10
10
10
10
10
10
10
10
10
10
10
10
10
10
10
10
10
10
10
10
10
10
10
10
10
10
10
10
10
10
10
10
10
10
10
10
10
10
10
10
10
10
10
10
10
10
10
10
10
10
10
10
10
10
10
10
10
