# vtk DataFile Version 2.0
bar-651, Created by Gmsh 4.10.5 
ASCII
DATASET UNSTRUCTURED_GRID
POINTS 292 double
0 0 0
10 0 0
10 0 1
0 0 1
0 0.5 0
10 0.5 0
10 0.5 1
0 0.5 1
5 0.25 1
5 0 0
10 0 0.5
5 0 0.5
5 0 1
0 0 0.5
0 0.25 0
5 0.5 0
5 0.25 0
10 0.25 0
10 0.5 0.5
10 0.25 0.5
10 0.25 1
5 0.5 1
0 0.25 1
0 0.25 0.5
0 0.5 0.5
2.5 0.125 1
5 0.5 0.5
7.5 0.375 1
2.5 0 0
7.5 0 0
10 0 0.75
2.5 0 0.25
2.5 0 1
0 0 0.25
7.5 0.5 0
2.5 0.125 0
10 0.5 0.75
10 0.125 0.25
2.5 0.5 1
0 0.375 0.75
0 0.5 0.25
1.25 0.0625 1
2.5 0.5 0.25
6.25 0.3125 1
3.75 0 0
8.75 0 0
1.25 0 0.125
1.25 0 1
3.75 0.1875 0
1.25 0.0625 0
0.625 0.03125 1
1.25 0.5 0.125
5.625 0.28125 1
4.375 0 0
8.125 0 0
9.375 0 0
0.625 0 1
0.625 0.03125 0
5.3125 0.265625 1
4.6875 0 0
8.4375 0 0
9.0625 0 0
9.6875 0 0
0.3125 0 1
0.9375 0.046875 0
0.3125 0.015625 0
10 0 0.25
7.5 0 0.75
7.5 0 1
0 0 0.75
2.5 0.5 0
7.5 0.375 0
10 0.5 0.25
10 0.375 0.75
7.5 0.5 1
0 0.125 0.25
0 0.5 0.75
3.75 0.1875 1
7.5 0.5 0.75
8.75 0.4375 1
1.25 0 0
6.25 0 0
3.75 0 0.375
3.75 0 1
8.75 0.5 0
6.25 0.5 0
1.25 0.5 1
3.75 0.5 1
1.875 0.09375 1
3.75 0.5 0.375
6.875 0.34375 1
3.125 0 0
0.625 0 0.0625
1.875 0 0.1875
1.875 0 1
3.125 0.15625 0
4.375 0.21875 0
1.875 0.09375 0
0.625 0.5 0.0625
1.875 0.5 0.1875
0.3125 0.015625 1
0.9375 0.046875 1
5.9375 0.296875 1
4.0625 0 0
7.8125 0 0
0.9375 0 1
6.25 0.3125 0
6.25 0 1
6.25 0 0.625
8.75 0 0.875
3.125 0.15625 1
6.25 0.5 0.625
9.375 0.46875 1
8.125 0.40625 1
0.625 0 0
1.875 0 0
6.875 0 0
3.125 0 1
6.875 0.5 0
0.3125 0 0.03125
1.5625 0 0.15625
1.5625 0 1
2.8125 0.140625 0
4.0625 0.203125 0
1.5625 0.078125 0
0.9375 0.5 0.09375
0.3125 0.5 0.03125
1.5625 0.5 0.15625
7.1875 0 0
2.8125 0 1
7.1875 0.5 0
8.75 0 1
3.75 0.5 0
1.25 0.5 0
8.75 0.4375 0
6.25 0.5 1
8.75 0.5 1
4.375 0.21875 1
8.75 0.5 0.875
5.625 0 0
3.125 0 0.3125
4.375 0 0.4375
4.375 0 1
9.375 0.5 0
8.125 0.5 0
5.625 0.5 0
0.9375 0 0.09375
3.4375 0 0
3.125 0.5 1
0.625 0.5 1
1.875 0.5 1
4.375 0.5 1
6.5625 0.328125 1
3.125 0.5 0.3125
1.5625 0.078125 1
2.1875 0.109375 1
4.375 0.5 0.4375
7.1875 0.359375 1
2.8125 0 0
2.1875 0 0.21875
2.1875 0 1
3.4375 0.171875 0
4.6875 0.234375 0
2.1875 0.109375 0
2.1875 0.5 0.21875
2.1875 0 0
0.9375 0 0
0.3125 0 0
7.8125 0.390625 1
8.125 0 0.8125
9.375 0 0.9375
5.625 0.28125 0
6.875 0.34375 0
5.625 0 0.5625
5.625 0 1
6.875 0 1
6.875 0 0.6875
9.0625 0.453125 1
9.6875 0.484375 1
5.625 0.5 0.5625
2.8125 0.140625 1
3.4375 0.171875 1
6.875 0.5 0.6875
8.4375 0.421875 1
1.5625 0 0
6.5625 0 0
3.4375 0 1
6.5625 0.5 0
5.9375 0.5 0
8.4375 0.5 0
9.6875 0.5 0
4.0625 0 1
8.125 0.40625 0
9.375 0.46875 0
1.875 0.5 0
0.625 0.5 0
4.375 0.5 0
8.125 0 1
2.8125 0.5 1
0.9375 0.5 1
0.3125 0.5 1
1.5625 0.5 1
4.0625 0.5 1
2.8125 0.5 0.28125
4.0625 0.5 0.40625
9.0625 0 0.90625
5.3125 0 0.53125
5.3125 0 1
6.5625 0 1
6.5625 0 0.65625
9.375 0 1
3.125 0.5 0
4.0625 0 0.40625
8.125 0.5 1
5.625 0.5 1
6.875 0.5 1
9.375 0.5 1
4.6875 0 0.46875
8.125 0.5 0.8125
4.0625 0.203125 1
4.6875 0.234375 1
9.375 0.5 0.9375
2.8125 0 0.28125
5.9375 0 0
5.3125 0 0
3.4375 0 0.34375
4.6875 0 1
9.0625 0.5 0
7.8125 0.5 0
5.3125 0.5 0
3.4375 0.5 1
2.1875 0.5 1
4.6875 0.5 1
3.4375 0.5 0.34375
4.6875 0.5 0.46875
7.8125 0 0.78125
8.4375 0 0.84375
9.6875 0 0.96875
6.5625 0.328125 0
5.3125 0.265625 0
5.9375 0.296875 0
7.1875 0.359375 0
5.9375 0 0.59375
5.9375 0 1
7.1875 0 1
7.1875 0 0.71875
6.5625 0.5 0.65625
5.3125 0.5 0.53125
5.9375 0.5 0.59375
7.1875 0.5 0.71875
0.9375 0.5 0
0.3125 0.5 0
2.1875 0.5 0
1.5625 0.5 0
9.0625 0.453125 0
9.6875 0.484375 0
7.8125 0.390625 0
8.4375 0.421875 0
7.8125 0 1
4.6875 0.5 0
4.0625 0.5 0
8.4375 0 1
7.8125 0.5 0.78125
9.0625 0.5 1
9.6875 0.5 1
6.5625 0.5 1
7.1875 0.5 1
5.3125 0.5 1
3.4375 0.5 0
2.8125 0.5 0
9.0625 0 1
9.6875 0 1
9.6875 0.5 0.96875
9.0625 0.5 0.90625
7.8125 0.5 1
8.4375 0.5 1
5.9375 0.5 1
8.4375 0.5 0.84375
0.4875 0 0.53125
0.4875 0.5 0.53125
9.512499999999999 0 0.46875
9.512499999999999 0.5 0.46875
8.007811999999999 0 0.40625
8.949999999999999 0.5 0.453125
8.521065 0.5 0.421875
1.05 0.5 0.546875
1.478935 0.5 0.578125
2.30625 0.5 0.609375
8.635937999999999 0 0.4375
1.364062 0 0.5625
7.616406 0 0.375
1.899558 0.5 0.59375

CELLS 651 3255
4 128 29 241 290
4 67 245 249 290
4 129 117 140 180
4 155 150 231 291
4 28 159 163 165
4 96 156 196 204
4 180 198 203 287
4 31 28 35 158
4 31 32 155 160
4 190 143 255 281
4 203 31 222 287
4 21 58 247 267
4 55 62 193 280
4 134 84 189 284
4 74 27 78 262
4 192 60 257 282
4 23 75 126 279
4 70 35 164 252
4 182 176 241 249
4 22 100 39 200
4 32 25 129 222
4 240 173 242 248
4 69 22 100 39
4 152 90 176 182
4 64 57 92 98
4 245 241 249 290
4 122 31 158 222
4 150 88 201 291
4 179 173 240 248
4 173 58 179 247
4 93 97 163 165
4 95 140 147 161
4 57 92 114 166
4 52 179 214 248
4 124 51 127 253
4 17 1 37 62
4 99 97 127 194
4 48 82 103 123
4 46 49 80 146
4 168 113 218 274
4 2 20 237 271
4 169 113 197 236
4 49 125 133 250
4 221 237 281 272
4 65 14 119 126
4 2 20 30 237
4 21 8 26 247
4 69 22 3 100
4 64 57 98 195
4 35 28 159 163
4 154 86 201 286
4 137 217 220 226
4 128 172 176 241
4 44 48 82 103
4 138 277 284 288
4 92 119 278 279
4 20 178 237 271
4 24 23 40 279
4 96 156 162 196
4 176 172 209 246
4 23 24 39 279
4 82 48 89 123
4 140 147 161 225
4 89 123 132 260
4 93 99 127 286
4 11 8 206 247
4 144 192 257 284
4 95 140 203 222
4 109 138 283 288
4 189 144 257 284
4 134 283 284 288
4 118 130 182 241
4 46 120 124 127
4 164 159 287 291
4 61 55 254 280
4 35 42 70 164
4 11 16 217 234
4 171 139 206 239
4 51 124 133 253
4 138 183 275 277
4 50 100 200 279
4 97 99 163 194
4 40 23 126 279
4 182 90 215 265
4 34 71 78 249
4 101 149 199 285
4 181 82 186 225
4 52 58 173 174
4 176 128 241 245
4 14 4 126 251
4 93 97 99 163
4 7 22 39 200
4 173 58 206 207
4 157 67 244 245
4 109 131 183 261
4 170 177 221 273
4 119 75 278 279
4 20 73 237 272
4 162 141 217 234
4 109 79 131 205
4 152 176 208 209
4 71 78 249 290
4 46 49 124 184
4 137 141 156 234
4 31 35 122 158
4 92 57 119 126
4 39 76 200 279
4 84 134 254 283
4 18 19 73 281
4 170 237 280 281
4 156 162 196 259
4 134 189 257 284
4 67 27 68 235
4 1 37 62 66
4 120 93 127 286
4 235 262 282 290
4 51 46 127 289
4 120 97 124 127
4 11 206 239 247
4 237 73 280 281
4 46 51 285 289
4 109 79 138 183
4 217 11 220 226
4 154 88 289 291
4 109 79 205 273
4 82 103 123 212
4 137 142 217 226
4 192 144 218 284
4 229 26 239 247
4 48 161 233 268
4 75 33 119 278
4 27 67 68 157
4 175 152 176 208
4 102 52 242 243
4 8 11 12 220
4 93 88 94 159
4 57 92 98 126
4 205 109 273 283
4 161 140 225 233
4 15 16 234 259
4 116 185 209 238
4 149 50 279 285
4 31 35 42 122
4 92 98 126 279
4 55 193 254 280
4 170 112 210 237
4 173 171 206 247
4 102 43 111 276
4 59 96 141 162
4 88 93 289 291
4 3 63 69 100
4 168 113 169 218
4 71 29 104 290
4 108 43 209 246
4 172 116 176 209
4 88 94 159 160
4 153 95 203 211
4 67 68 157 244
4 169 235 262 282
4 192 218 262 282
4 130 182 241 249
4 97 93 115 165
4 95 153 161 211
4 134 61 254 283
4 48 89 123 132
4 5 72 190 255
4 168 27 235 258
4 43 107 108 209
4 8 58 206 247
4 82 83 181 186
4 141 156 204 219
4 67 27 78 157
4 42 35 70 122
4 91 95 140 147
4 37 17 62 255
4 37 72 255 281
4 139 171 173 223
4 280 205 281 283
4 58 52 173 179
4 236 282 284 288
4 92 57 114 119
4 156 137 202 219
4 31 155 159 160
4 155 88 159 160
4 93 97 115 120
4 57 65 119 126
4 43 111 135 246
4 123 96 204 212
4 206 171 239 247
4 10 19 37 280
4 102 43 108 111
4 79 131 205 270
4 88 154 201 291
4 39 24 76 279
4 11 8 12 206
4 159 93 163 165
4 25 31 32 155
4 134 45 283 288
4 97 93 99 127
4 75 23 278 279
4 128 241 245 290
4 51 46 124 127
4 93 97 120 127
4 113 183 236 277
4 23 39 278 279
4 106 85 111 238
4 98 92 125 279
4 0 65 119 167
4 97 115 120 124
4 254 61 280 283
4 117 110 140 180
4 102 108 242 248
4 214 102 248 276
4 241 71 249 290
4 28 31 35 159
4 8 11 26 247
4 65 114 119 167
4 78 67 249 290
4 78 256 262 290
4 91 95 122 222
4 102 43 107 108
4 112 178 237 272
4 168 218 262 274
4 108 102 242 243
4 8 26 220 232
4 137 151 156 202
4 168 169 235 262
4 143 193 281 283
4 107 102 108 243
4 11 217 220 234
4 7 39 76 200
4 77 89 181 230
4 73 237 272 281
4 58 173 206 247
4 140 110 153 180
4 58 173 174 207
4 8 12 206 207
4 16 11 26 234
4 11 8 26 220
4 78 71 256 290
4 33 0 75 119
4 57 65 114 119
4 119 92 126 279
4 67 78 262 290
4 0 14 75 119
4 14 0 65 119
4 75 119 126 279
4 162 156 234 259
4 11 16 26 239
4 46 49 51 124
4 57 126 195 251
4 82 77 89 181
4 81 106 108 185
4 14 75 119 126
4 11 206 224 239
4 49 46 51 125
4 11 12 220 226
4 92 64 98 125
4 100 39 200 279
4 31 25 222 287
4 39 100 278 279
4 192 218 282 284
4 96 123 204 260
4 14 4 40 126
4 14 40 75 126
4 37 62 66 280
4 54 192 256 282
4 40 23 75 126
4 177 170 210 270
4 109 236 277 288
4 49 46 80 184
4 97 127 194 253
4 98 64 195 250
4 216 112 221 272
4 27 168 235 262
4 157 78 249 266
4 156 202 204 219
4 109 183 236 261
4 51 49 125 133
4 49 51 124 133
4 35 163 164 252
4 163 99 164 252
4 26 11 239 247
4 42 31 203 287
4 92 64 125 146
4 108 106 111 238
4 170 112 177 210
4 88 155 159 291
4 31 25 32 222
4 53 59 96 141
4 64 49 125 146
4 49 46 125 146
4 71 104 256 290
4 49 64 80 146
4 149 50 200 279
4 235 67 262 290
4 41 86 154 286
4 125 92 278 279
4 29 71 241 290
4 100 50 278 279
4 89 181 230 233
4 31 42 164 287
4 155 31 159 287
4 141 96 156 162
4 89 82 123 204
4 257 134 284 288
4 16 162 234 259
4 95 91 140 222
4 111 108 238 246
4 77 82 83 181
4 26 220 232 234
4 27 74 78 266
4 60 45 257 288
4 168 169 197 258
4 153 180 198 203
4 48 161 225 233
4 63 69 100 278
4 113 168 169 197
4 221 177 263 273
4 42 31 122 203
4 99 163 194 252
4 77 82 204 212
4 140 95 153 161
4 282 60 284 288
4 98 57 126 195
4 280 205 283 288
4 106 108 111 248
4 169 168 218 262
4 92 64 146 166
4 64 80 146 166
4 57 64 92 166
4 93 159 163 164
4 99 93 163 164
4 159 35 163 164
4 31 35 159 164
4 35 31 42 164
4 97 124 127 253
4 78 67 157 249
4 217 137 220 234
4 173 52 242 248
4 36 18 73 281
4 170 205 273 281
4 137 141 142 219
4 140 180 203 222
4 120 46 124 184
4 178 20 237 272
4 87 77 204 219
4 115 120 124 184
4 77 82 89 204
4 110 148 153 198
4 110 153 180 198
4 85 106 111 248
4 141 137 156 219
4 106 108 185 238
4 77 87 89 230
4 185 108 209 238
4 170 177 205 270
4 171 139 173 206
4 87 77 89 204
4 141 137 142 217
4 16 162 217 234
4 90 157 245 249
4 93 99 286 291
4 171 173 179 247
4 122 95 203 222
4 187 111 238 246
4 152 90 175 176
4 116 128 172 176
4 79 109 131 183
4 142 141 191 219
4 141 59 162 217
4 48 44 82 225
4 169 236 282 284
4 156 141 162 234
4 79 177 205 273
4 172 116 209 238
4 91 122 158 222
4 31 122 203 222
4 58 8 206 207
4 173 52 174 242
4 176 152 182 246
4 209 172 238 246
4 241 176 245 249
4 135 152 246 265
4 176 90 245 249
4 173 223 240 242
4 176 172 182 241
4 152 176 209 246
4 172 118 182 241
4 46 51 125 285
4 65 14 126 251
4 54 60 192 282
4 95 203 211 269
4 177 79 205 270
4 73 19 280 281
4 140 129 180 222
4 106 240 242 248
4 141 204 212 219
4 204 77 212 219
4 202 87 204 219
4 77 191 212 219
4 73 19 237 280
4 188 179 240 248
4 79 136 138 275
4 71 34 78 256
4 79 138 183 275
4 5 17 72 255
4 112 216 221 263
4 152 90 182 265
4 201 154 286 291
4 101 105 278 289
4 11 9 16 224
4 153 140 180 203
4 138 109 277 288
4 82 123 204 212
4 60 257 284 288
4 95 140 153 203
4 45 61 283 288
4 277 236 284 288
4 96 141 156 204
4 153 140 161 233
4 113 197 236 261
4 183 113 236 261
4 191 141 212 219
4 171 173 223 240
4 96 141 204 212
4 141 137 217 234
4 16 11 224 239
4 108 102 111 248
4 52 102 242 248
4 43 152 208 209
4 107 43 208 209
4 52 173 179 248
4 16 15 26 239
4 82 77 83 212
4 96 53 141 212
4 103 53 123 212
4 83 77 191 212
4 53 96 123 212
4 157 67 245 249
4 90 182 215 249
4 57 65 126 251
4 129 25 180 222
4 154 41 286 289
4 37 255 280 281
4 193 143 227 283
4 9 11 16 217
4 102 111 248 276
4 109 138 273 283
4 59 9 162 217
4 9 16 162 217
4 159 31 164 287
4 177 112 221 263
4 27 68 235 258
4 228 78 256 262
4 123 89 204 260
4 177 170 205 273
4 112 170 177 221
4 19 37 280 281
4 255 193 280 281
4 79 109 138 273
4 177 136 263 273
4 136 79 138 273
4 110 117 140 225
4 15 16 26 234
4 147 44 161 225
4 110 181 186 225
4 44 48 161 225
4 117 110 186 225
4 173 171 179 240
4 171 145 179 240
4 52 174 242 243
4 26 11 220 234
4 151 137 156 234
4 205 109 283 288
4 61 280 283 288
4 8 21 26 232
4 48 89 132 233
4 140 110 225 233
4 110 140 153 233
4 82 48 225 233
4 48 82 89 233
4 110 181 225 233
4 89 82 181 233
4 181 82 225 233
4 148 110 153 233
4 181 148 230 233
4 110 148 181 233
4 220 151 232 234
4 137 151 220 234
4 193 227 254 283
4 100 69 39 278
4 237 221 112 272
4 196 96 204 260
4 169 168 235 258
4 143 193 255 281
4 30 20 73 237
4 159 155 287 291
4 19 30 73 237
4 145 171 179 247
4 111 85 187 238
4 206 139 224 239
4 26 15 229 239
4 108 106 242 248
4 179 145 188 240
4 90 176 182 249
4 43 152 209 246
4 108 209 238 246
4 106 81 108 242
4 43 108 111 246
4 215 157 249 266
4 223 81 240 242
4 81 106 240 242
4 49 64 125 250
4 90 175 176 245
4 64 98 125 250
4 93 286 289 291
4 90 157 244 245
4 99 93 164 291
4 175 90 244 245
4 93 88 159 291
4 172 176 182 246
4 118 172 182 246
4 43 135 152 246
4 172 187 238 246
4 172 118 187 246
4 171 229 239 247
4 8 21 58 247
4 171 145 229 247
4 106 188 240 248
4 102 52 214 248
4 138 109 183 277
4 183 109 236 277
4 106 85 188 248
4 157 90 215 249
4 71 130 241 249
4 71 34 130 249
4 72 190 255 281
4 74 168 262 274
4 113 213 218 274
4 120 93 286 289
4 36 73 272 281
4 60 257 282 284
4 111 43 135 276
4 17 37 72 255
4 218 169 262 282
4 78 34 228 256
4 152 182 246 265
4 25 31 155 287
4 86 41 199 285
4 205 273 281 283
4 193 280 281 283
4 67 27 235 262
4 27 67 78 262
4 227 84 254 283
4 193 254 280 283
4 144 192 218 262
4 27 74 168 262
4 125 92 146 278
4 192 228 256 262
4 192 144 228 262
4 27 78 157 266
4 58 179 247 267
4 58 52 179 267
4 179 52 214 267
4 132 48 233 268
4 161 153 233 268
4 153 161 211 268
4 95 122 203 269
4 70 42 122 269
4 122 42 203 269
4 112 210 237 271
4 178 112 237 271
4 221 170 273 281
4 237 221 170 112
4 237 221 281 170
4 146 46 285 289
4 6 178 264 272
4 6 36 73 272
4 178 216 264 272
4 286 154 289 291
4 20 6 73 272
4 6 20 178 272
4 178 112 216 272
4 278 125 279 285
4 46 125 146 285
4 93 159 164 291
4 79 136 177 273
4 84 134 283 284
4 236 169 277 284
4 213 113 218 277
4 169 113 236 277
4 113 169 218 277
4 169 218 277 284
4 183 213 275 277
4 183 113 213 277
4 218 169 282 284
4 104 54 256 282
4 41 101 285 289
4 50 56 100 278
4 56 63 100 278
4 56 50 105 278
4 23 13 75 278
4 13 33 75 278
4 13 23 69 278
4 88 150 155 291
4 50 101 105 278
4 23 39 69 278
4 62 37 255 280
4 146 125 278 285
4 19 10 30 280
4 19 30 237 280
4 46 120 127 289
4 155 231 287 291
4 256 192 262 282
4 86 41 285 289
4 193 62 255 280
4 10 37 66 280
4 127 120 286 289
4 50 278 279 285
4 19 18 72 281
4 205 170 280 281
4 257 192 282 284
4 37 19 72 281
4 45 61 134 283
4 41 86 286 289
4 41 101 199 285
4 50 101 278 285
4 262 256 282 290
4 256 104 282 290
4 101 50 149 285
4 180 203 222 287
4 25 180 222 287
4 25 155 231 287
4 38 25 231 287
4 25 38 180 287
4 180 38 198 287
4 283 138 284 288
4 45 134 257 288
4 278 146 285 289
4 101 278 285 289
4 88 93 94 289
4 41 47 101 289
4 47 41 121 289
4 101 47 105 289
4 121 41 154 289
4 51 127 286 289
4 285 51 286 289
4 86 285 286 289
4 94 121 154 289
4 88 94 154 289

CELL_TYPES 651
10
10
10
10
10
10
10
10
10
10
10
10
10
10
10
10
10
10
10
10
10
10
10
10
10
10
10
10
10
10
10
10
10
10
10
10
10
10
10
10
10
10
10
10
10
10
10
10
10
10
10
10
10
10
10
10
10
10
10
10
10
10
10
10
10
10
10
10
10
10
10
10
10
10
10
10
10
10
10
10
10
10
10
10
10
10
10
10
10
10
10
10
10
10
10
10
10
10
10
10
10
10
10
10
10
10
10
10
10
10
10
10
10
10
10
10
10
10
10
10
10
10
10
10
10
10
10
10
10
10
10
10
10
10
10
10
10
10
10
10
10
10
10
10
10
10
10
10
10
10
10
10
10
10
10
10
10
10
10
10
10
10
10
10
10
10
10
10
10
10
10
10
10
10
10
10
10
10
10
10
10
10
10
10
10
10
10
10
10
10
10
10
10
10
10
10
10
10
10
10
10
10
10
10
10
10
10
10
10
10
10
10
10
10
10
10
10
10
10
10
10
10
10
10
10
10
10
10
10
10
10
10
10
10
10
10
10
10
10
10
10
10
10
10
10
10
10
10
10
10
10
10
10
10
10
10
10
10
10
10
10
10
10
10
10
10
10
10
10
10
10
10
10
10
10
10
10
10
10
10
10
10
10
10
10
10
10
10
10
10
10
10
10
10
10
10
10
10
10
10
10
10
10
10
10
10
10
10
10
10
10
10
10
10
10
10
10
10
10
10
10
10
10
10
10
10
10
10
10
10
10
10
10
10
10
10
10
10
10
10
10
10
10
10
10
10
10
10
10
10
10
10
10
10
10
10
10
10
10
10
10
10
10
10
10
10
10
10
10
10
10
10
10
10
10
10
10
10
10
10
10
10
10
10
10
10
10
10
10
10
10
10
10
10
10
10
10
10
10
10
10
10
10
10
10
10
10
10
10
10
10
10
10
10
10
10
10
10
10
10
10
10
10
10
10
10
10
10
10
10
10
10
10
10
10
10
10
10
10
10
10
10
10
10
10
10
10
10
10
10
10
10
10
10
10
10
10
10
10
10
10
10
10
10
10
10
10
10
10
10
10
10
10
10
10
10
10
10
10
10
10
10
10
10
10
10
10
10
10
10
10
10
10
10
10
10
10
10
10
10
10
10
10
10
10
10
10
10
10
10
10
10
10
10
10
10
10
10
10
10
10
10
10
10
10
10
10
10
10
10
10
10
10
10
10
10
10
10
10
10
10
10
10
10
10
10
10
10
10
10
10
10
10
10
10
10
10
10
10
10
10
10
10
10
10
10
10
10
10
10
10
10
10
10
10
10
10
10
10
10
10
10
10
10
10
10
10
10
10
10
10
10
10
10
10
10
10
10
10
10
10
10
10
10
10
10
10
10
10
10
10
10
10
10
10
10
10
10
10
10
10
10
10
10
10
10
10
10
10
10
10
10
10
10
10
10
10
10
10
10
10
10
10
10
10
10
10
10
10
10
10
