# vtk DataFile Version 2.0
Unstructured Grid
ASCII
DATASET UNSTRUCTURED_GRID
POINTS 8 double
-0.029999999999999999 -0.029999999999999999 -0.029999999999999999
-0.029999999999999999 -0.029999999999999999 0.029999999999999999
-0.029999999999999999 0.029999999999999999 -0.029999999999999999
-0.029999999999999999 0.029999999999999999 0.029999999999999999
0.029999999999999999 -0.029999999999999999 -0.029999999999999999
0.029999999999999999 -0.029999999999999999 0.029999999999999999
0.029999999999999999 0.029999999999999999 -0.029999999999999999
0.029999999999999999 0.029999999999999999 0.029999999999999999
0.0 0.0 0.0

CELLS 12 
4  4 7 6 8
4  5 7 4 8
4  1 7 5 8
4  1 3 7 8
4  1 2 3 8
4  0 2 1 8
4  0 4 2 8
4  4 6 2 8
4  6 7 2 8
4  7 3 2 8
4  4 1 5 8
4  4 0 1 8

CELL_TYPES 12
10
10
10
10
10
10
10
10
10
10
10
10