# vtk DataFile Version 2.0
Unstructured Grid
ASCII
DATASET UNSTRUCTURED_GRID
POINTS 12 double
0.0  0.0  -0.1
0.1  0.0  -0.1
0.0  0.0  0.0
0.1  0.0  0.0
0.0  0.0  0.1
0.1  0.0  0.1
0.0  0.1  -0.1
0.1  0.1  -0.1
0.0  0.1  0.0
0.1  0.1  0.0
0.0  0.1  0.1
0.1  0.1  0.1

CELLS 10 840 
4     1    2    3    9
4     6    2    9    8 
4     1    7    6    9
4     0    1    6    2
4     1    6    2    9
4     2    3    9    5
4     2    9    8    10
4     2    4    5    10
4     10   9    11   5
4     2    5    9    10

CELL_TYPES 10
10
10
10
10
10
10
10
10
10
10