# vtk DataFile Version 2.0
Unstructured Grid
ASCII
DATASET UNSTRUCTURED_GRID
POINTS 8 double
-0.029999999999999999 -0.029999999999999999 -0.029999999999999999
-0.029999999999999999 -0.029999999999999999 0.029999999999999999
-0.029999999999999999 0.029999999999999999 -0.029999999999999999
-0.029999999999999999 0.029999999999999999 0.029999999999999999
0.029999999999999999 -0.029999999999999999 -0.029999999999999999
0.029999999999999999 -0.029999999999999999 0.029999999999999999
0.029999999999999999 0.029999999999999999 -0.029999999999999999
0.029999999999999999 0.029999999999999999 0.029999999999999999

CELLS 5 840 
4     5    1    7    4
4     7    2    6    4 
4     1    7    2    3
4     0    4    2    1
4     1    2    7    4

CELL_TYPES 5
10
10
10
10
10