# File exported by Houdini 19.0.589 (www.sidefx.com)
# 108 points
# 648 vertices
# 216 primitives
# Bounds: [-0.084195517, -0.0868568271, -0.0288056303] to [0.0877500027, 0.086856842, 0.0288056303]
mtllib textured_torus.mtl
v -0.084195517 -0.0247220192 0
v -0.0841955096 0.0247220509 0
v -0.0776295066 -0.0227940697 -0.0188015401
v -0.0776294991 -0.0227940604 0.0188015606
v -0.0776294991 0.0227940995 -0.0188015401
v -0.0776294917 0.0227940902 0.0188015606
v -0.0610038117 -0.0179123208 -0.0288056303
v -0.0610038005 0.0179123506 -0.0288056303
v -0.0610037893 -0.0179123208 0.0288056303
v -0.0610037819 0.0179123394 0.0288056303
v -0.0574640408 -0.0663170218 0
v -0.057464011 0.0663170516 0
v -0.0529826991 -0.0611452684 -0.0188015401
v -0.0529826917 -0.0611452609 0.0188015606
v -0.0529826693 0.0611452907 -0.0188015401
v -0.0529826693 0.0611452907 0.0188015606
v -0.0420977585 -0.0123610096 -0.0253312495
v -0.0420977585 0.0123610301 -0.0253312495
v -0.0420977399 -0.0123610096 0.0253312401
v -0.0420977399 0.0123610198 0.0253312401
v -0.0416355394 -0.0480499491 -0.0288056303
v -0.0416355208 -0.0480499417 0.0288056303
v -0.0416355208 0.0480499715 -0.0288056303
v -0.0416355096 0.0480499603 0.0288056303
v -0.0297577102 -0.00873764977 -0.0100041004
v -0.0297577102 0.00873766001 -0.0100041004
v -0.0297577102 -0.00873764046 0.0100040799
v -0.0297577009 0.00873766001 0.0100040799
v -0.0287320204 -0.0331585109 -0.0253312495
v -0.0287320092 -0.0331584997 0.0253312401
v -0.0287320092 0.0331585295 -0.0253312495
v -0.0287319999 0.0331585109 0.0253312401
v -0.0203098506 -0.0234388094 -0.0100041004
v -0.0203098506 -0.0234388094 0.0100040799
v -0.0203098394 0.0234388206 -0.0100041004
v -0.0203098394 0.0234388094 0.0100040799
v -0.0124881398 -0.0868568271 0
v -0.0124880997 0.086856842 0
v -0.0115142502 -0.0800832808 -0.0188015401
v -0.0115142502 -0.0800832734 0.0188015606
v -0.0115142101 0.0800832883 -0.0188015401
v -0.0115142101 0.0800832808 0.0188015606
v -0.00904827006 -0.0629320666 -0.0288056303
v -0.00904827006 -0.0629320517 0.0288056303
v -0.00904824957 0.0629320666 -0.0288056303
v -0.00904824026 0.0629320517 0.0288056303
v -0.0062440699 -0.043428421 -0.0253312495
v -0.00624404987 0.0434284285 -0.0253312495
v -0.00624404987 0.0434284098 0.0253312401
v -0.0044137598 -0.0306983199 -0.0100041004
v -0.00441375002 -0.0306983106 0.0100040799
v -0.00441373978 0.0306983199 -0.0100041004
v -0.00441373978 0.0306983106 0.0100040799
v 0.0128836799 -0.0282113198 0.0100040799
v 0.0128836799 -0.0282113198 -0.0100041004
v 0.0128836799 0.0282113198 0.0100040799
v 0.0128836799 0.0282113198 -0.0100041004
v 0.0182263292 -0.0399100892 0.0253312401
v 0.0182263292 0.0399100892 0.0253312401
v 0.0182263292 -0.0399101116 -0.0253312495
v 0.0182263404 0.0399101116 -0.0253312495
v 0.0260906201 0.0167674292 0.0100040799
v 0.0260906294 -0.0167674292 0.0100040799
v 0.0260906294 -0.0167674292 -0.0100041004
v 0.0260906294 0.0167674292 -0.0100041004
v 0.0264117494 -0.0578336716 0.0288056303
v 0.0264117606 -0.0578336902 -0.0288056303
v 0.0264117606 0.0578336716 0.0288056303
v 0.0264117699 0.0578336902 -0.0288056303
v 0.0310139898 9.99999994e-09 0.0100040799
v 0.0310139991 9.99999994e-09 -0.0100041004
v 0.0336098894 -0.0735954121 0.0188015606
v 0.0336099006 -0.0735954195 -0.0188015401
v 0.0336099006 0.0735953972 0.0188015606
v 0.0336099118 0.0735954121 -0.0188015401
v 0.0364526697 -0.0798202083 0
v 0.0364526808 0.0798202083 0
v 0.03690999 0.0237206109 0.0253312401
v 0.03690999 -0.0237206109 0.0253312401
v 0.0369100012 0.0237206202 -0.0253312495
v 0.0369100012 -0.0237206202 -0.0253312495
v 0.0438749902 9.99999994e-09 0.0253312401
v 0.0438750088 9.99999994e-09 -0.0253312495
v 0.0534862094 0.0343735106 0.0288056303
v 0.0534862205 -0.0343735106 0.0288056303
v 0.0534862317 -0.0343735218 -0.0288056303
v 0.0534862317 0.0343735218 -0.0288056303
v 0.0635791868 1.99999999e-08 0.0288056303
v 0.0635792091 1.99999999e-08 -0.0288056303
v 0.0680631176 0.0437415205 0.0188015606
v 0.0680631176 -0.0437415093 0.0188015606
v 0.0680631325 0.0437415205 -0.0188015401
v 0.0680631325 -0.0437415205 -0.0188015401
v 0.0738199875 0.0474412404 0
v 0.0738200024 -0.0474412292 0
v 0.0809067935 1.99999999e-08 0.0188015606
v 0.0809068009 1.99999999e-08 -0.0188015401
v 0.0877500027 2.99999989e-08 0
v -0.0062440699 -0.0434283987 0.0253312401
v 0.0357911587 -0.0497063883 -0.0288056303
v 0.0555900298 -0.0546143614 0.0186612103
v 0.0736092404 0.0248531997 -0.0188015401
v 0.0114787798 -0.0834109113 0
v 0.0525046214 -0.0572230406 -0.0188015401
v 0.0510415994 -0.0671788305 0
v 0.0468382202 0.0621329993 0.0188015606
v 0.0798359066 -0.0269529298 0
v 0.0791417733 0.0293169394 0
vt 0.642246246 0 0
vt 0.881666362 0.153865978 0
vt 0.851895154 0.179661021 0
vt 0.851900578 0.179660127 0
vt 0.631146193 0.0377942808 0
vt 0.357646942 0 0
vt 0.631151676 0.037793424 0
vt 0.960901916 0.418352783 0
vt 0.9609074 0.418351859 0
vt 0.999893188 0.412746668 0
vt 0.776517212 0.244975314 0
vt 0.603045523 0.133491769 0
vt 0.396839291 0.133491799 0
vt 0.368741512 0.0377942808 0
vt 0.776525497 0.244973987 0
vt 0.603053868 0.133490488 0
vt 0.368746996 0.0377933793 0
vt 0.571092725 0.242314637 0
vt 0.428793043 0.242314607 0
vt 0.862178326 0.432547092 0
vt 0.690802813 0.319247633 0
vt 0.690810084 0.319246441 0
vt 0.396847665 0.133490488 0
vt 0.571099997 0.242313504 0
vt 0.428800464 0.242313474 0
vt 0.86218667 0.432545692 0
vt 0.749923468 0.448686719 0
vt 0.118226841 0.153865948 0
vt 0.923557758 0.678086638 0
vt 0.923563242 0.678085685 0
vt 0.959390402 0.694449127 0
vt 0.223367527 0.244975269 0
vt 0.147992581 0.179660961 0
vt 0.223376006 0.244973913 0
vt 0.147998095 0.179660052 0
vt 0.550238848 0.313343376 0
vt 0.449651331 0.313343346 0
vt 0.749916196 0.448687971 0
vt 0.634858549 0.367725134 0
vt 0.676644146 0.459222823 0
vt 0.550241828 0.313342899 0
vt 0.634861469 0.367724687 0
vt 0.309090465 0.319246441 0
vt 0.832832098 0.636654437 0
vt 0.729672134 0.589537919 0
vt 0.832840383 0.636653006 0
vt 0.449654251 0.313342869 0
vt 0.676647007 0.459222317 0
vt 0.36503166 0.367725074 0
vt 0.309082985 0.319247574 0
vt 0.729664803 0.58953923 0
vt 0.662331879 0.558786035 0
vt 0.36503458 0.367724657 0
vt 0.662329018 0.558786571 0
vt 0.0603296719 0.280643016 0
vt 0.773017526 0.909534812 0
vt 0.137706339 0.432547063 0
vt 0.0389856398 0.418352753 0
vt 0.137714878 0.432545692 0
vt 0.0389912128 0.418351799 0
vt 0.697795808 0.792494714 0
vt 0.751719296 0.876398802 0
vt 0.697804153 0.792493224 0
vt 0.75172472 0.876397848 0
vt 0.249977052 0.448686719 0
vt 0.636485696 0.697080672 0
vt 0.249969557 0.448687881 0
vt 0.636478364 0.697082043 0
vt 0.596461058 0.634805024 0
vt 0.323246062 0.459222823 0
vt 0.323248982 0.459222317 0
vt 0.596458197 0.634805501 0
vt 0.337564111 0.558786035 0
vt 0.270228386 0.589537919 0
vt 0.270220906 0.58953917 0
vt 0.33756119 0.558786511 0
vt 0.499945104 0.66314429 0
vt 0.49995029 0.737171173 0
vt 0.499948055 0.663143754 0
vt 0.499942899 0.737172484 0
vt 0.499950856 0.850588143 0
vt 0.147872761 0.503255904 0
vt 0.499942422 0.850589693 0
vt 0.403435022 0.634805083 0
vt 0.363414854 0.697080791 0
vt 0.403432071 0.63480562 0
vt 0.363407403 0.697082102 0
vt 0.0625016019 0.58385247 0
vt 0.167061076 0.636652946 0
vt 0.655055583 0.904782474 0
vt 0.499943882 0.950326741 0
vt 0 0.412746608 0
vt 0.0594658293 0.560795069 0
vt 0.0158130135 0.522728682 0
vt 0.499949396 0.950325727 0
vt 0.499946684 0.989715636 0
vt 0.302089065 0.792494714 0
vt 0.167052582 0.636654377 0
vt 0.302097529 0.792493224 0
vt 0.248173967 0.876397967 0
vt 0.0763353705 0.678085625 0
vt 0.0763297975 0.678086579 0
vt 0.391223013 0.918403387 0
vt 0.248168454 0.876398861 0
vt 0.395623446 0.959083617 0
vt 0.0405027531 0.694449067 0
vt 0.120991021 0.787337482 0
vt 0.226875752 0.909534931 0
vn -0.959492981 -0.28173238 3.34738566e-08
vn -0.959492981 0.281732678 8.36846503e-09
vn -0.757343948 0.222376436 -0.613986015
vn -0.959492981 -0.28173238 3.34738566e-08
vn -0.75734365 0.222376212 0.613986433
vn -0.959492981 0.281732678 8.36846503e-09
vn -0.757343948 0.222376436 -0.613986015
vn -0.757344007 -0.222376153 -0.613985956
vn -0.959492981 -0.28173238 3.34738566e-08
vn -0.959492981 -0.28173238 3.34738566e-08
vn -0.757344007 -0.222376153 -0.613985956
vn -0.654860795 -0.755749524 5.57897728e-08
vn -0.75734365 0.222376212 0.613986433
vn -0.959492981 -0.28173238 3.34738566e-08
vn -0.757343769 -0.222376004 0.613986492
vn -0.757343769 -0.222376004 0.613986492
vn -0.959492981 -0.28173238 3.34738566e-08
vn -0.654860795 -0.755749524 5.57897728e-08
vn -0.757343948 0.222376436 -0.613986015
vn -0.959492981 0.281732678 8.36846503e-09
vn -0.516892552 0.596526027 -0.613986075
vn -0.959492981 0.281732678 8.36846503e-09
vn -0.75734365 0.222376212 0.613986433
vn -0.516892374 0.596525848 0.613986373
vn -0.516892552 0.596526027 -0.613986075
vn -0.959492981 0.281732678 8.36846503e-09
vn -0.654860497 0.755749762 -1.422639e-07
vn -0.654860497 0.755749762 -1.422639e-07
vn -0.959492981 0.281732678 8.36846503e-09
vn -0.516892374 0.596525848 0.613986373
vn -0.757344007 -0.222376153 -0.613985956
vn -0.757343948 0.222376436 -0.613986015
vn -0.223050565 0.0654936209 -0.972604215
vn -0.223050684 -0.0654935017 -0.972604215
vn -0.757344007 -0.222376153 -0.613985956
vn -0.223050565 0.0654936209 -0.972604215
vn -0.223050684 -0.0654935017 -0.972604215
vn -0.152233616 -0.175686851 -0.972604275
vn -0.757344007 -0.222376153 -0.613985956
vn -0.516892731 -0.596525788 -0.613986015
vn -0.654860795 -0.755749524 5.57897728e-08
vn -0.757344007 -0.222376153 -0.613985956
vn -0.152233616 -0.175686851 -0.972604275
vn -0.516892731 -0.596525788 -0.613986015
vn -0.757344007 -0.222376153 -0.613985956
vn -0.223049834 0.0654933602 0.972604454
vn -0.75734365 0.222376212 0.613986433
vn -0.757343769 -0.222376004 0.613986492
vn -0.223049864 -0.0654933155 0.972604454
vn -0.223049834 0.0654933602 0.972604454
vn -0.757343769 -0.222376004 0.613986492
vn -0.757343769 -0.222376004 0.613986492
vn -0.516892672 -0.596525609 0.613986373
vn -0.223049864 -0.0654933155 0.972604454
vn -0.757343769 -0.222376004 0.613986492
vn -0.654860795 -0.755749524 5.57897728e-08
vn -0.516892672 -0.596525609 0.613986373
vn -0.223050565 0.0654936209 -0.972604215
vn -0.757343948 0.222376436 -0.613986015
vn -0.516892552 0.596526027 -0.613986075
vn -0.516892374 0.596525848 0.613986373
vn -0.75734365 0.222376212 0.613986433
vn -0.223049834 0.0654933602 0.972604454
vn 0.432374179 0.126956493 -0.892711937
vn -0.223050684 -0.0654935017 -0.972604215
vn -0.223050565 0.0654936209 -0.972604215
vn 0.432374179 0.126956493 -0.892711937
vn 0.295098543 0.340561718 -0.892711937
vn -0.223050684 -0.0654935017 -0.972604215
vn 0.295098543 0.340561718 -0.892711937
vn -0.152233616 -0.175686851 -0.972604275
vn -0.223050684 -0.0654935017 -0.972604215
vn -0.223050565 0.0654936209 -0.972604215
vn -0.516892552 0.596526027 -0.613986075
vn -0.15223363 0.175687 -0.972604215
vn -0.223050565 0.0654936209 -0.972604215
vn 0.43237406 -0.126956567 -0.892711997
vn 0.432374179 0.126956493 -0.892711937
vn 0.43237406 -0.126956567 -0.892711997
vn -0.223050565 0.0654936209 -0.972604215
vn -0.15223363 0.175687 -0.972604215
vn -0.223049834 0.0654933602 0.972604454
vn -0.223049864 -0.0654933155 0.972604454
vn 0.432374716 -0.126956731 0.892711699
vn -0.223049864 -0.0654933155 0.972604454
vn -0.516892672 -0.596525609 0.613986373
vn -0.152233109 -0.17568633 0.972604454
vn -0.223049864 -0.0654933155 0.972604454
vn 0.432374805 0.126956686 0.892711639
vn 0.432374716 -0.126956731 0.892711699
vn 0.432374805 0.126956686 0.892711639
vn -0.223049864 -0.0654933155 0.972604454
vn 0.295098871 0.340562165 0.892711639
vn 0.295098871 0.340562165 0.892711639
vn -0.223049864 -0.0654933155 0.972604454
vn -0.152233109 -0.17568633 0.972604454
vn -0.152233049 0.175686389 0.972604454
vn -0.516892374 0.596525848 0.613986373
vn -0.223049834 0.0654933602 0.972604454
vn 0.432374716 -0.126956731 0.892711699
vn 0.295098692 -0.340562135 0.892711699
vn -0.223049834 0.0654933602 0.972604454
vn -0.152233049 0.175686389 0.972604454
vn -0.223049834 0.0654933602 0.972604454
vn 0.295098692 -0.340562135 0.892711699
vn -0.14231503 -0.989821374 3.34738495e-08
vn -0.654860795 -0.755749524 5.57897728e-08
vn -0.516892731 -0.596525788 -0.613986015
vn -0.516892672 -0.596525609 0.613986373
vn -0.654860795 -0.755749524 5.57897728e-08
vn -0.14231503 -0.989821374 3.34738495e-08
vn -0.112331301 0.781282842 -0.613986015
vn -0.516892552 0.596526027 -0.613986075
vn -0.654860497 0.755749762 -1.422639e-07
vn -0.516892374 0.596525848 0.613986373
vn -0.112331234 0.781282485 0.613986433
vn -0.654860497 0.755749762 -1.422639e-07
vn -0.142314568 0.989821494 -3.90528321e-08
vn -0.112331301 0.781282842 -0.613986015
vn -0.654860497 0.755749762 -1.422639e-07
vn -0.112331234 0.781282485 0.613986433
vn -0.142314568 0.989821494 -3.90528321e-08
vn -0.654860497 0.755749762 -1.422639e-07
vn -0.0330835544 -0.230101034 -0.972604275
vn -0.516892731 -0.596525788 -0.613986015
vn -0.152233616 -0.175686851 -0.972604275
vn -0.516892731 -0.596525788 -0.613986015
vn -0.112331674 -0.781282902 -0.613985837
vn -0.14231503 -0.989821374 3.34738495e-08
vn -0.516892731 -0.596525788 -0.613986015
vn -0.0330835544 -0.230101034 -0.972604275
vn -0.112331674 -0.781282902 -0.613985837
vn -0.0330834351 -0.230100304 0.972604334
vn -0.152233109 -0.17568633 0.972604454
vn -0.516892672 -0.596525609 0.613986373
vn -0.112331666 -0.781282604 0.613986313
vn -0.516892672 -0.596525609 0.613986373
vn -0.14231503 -0.989821374 3.34738495e-08
vn -0.0330834351 -0.230100304 0.972604334
vn -0.516892672 -0.596525609 0.613986373
vn -0.112331666 -0.781282604 0.613986313
vn -0.112331301 0.781282842 -0.613986015
vn -0.15223363 0.175687 -0.972604215
vn -0.516892552 0.596526027 -0.613986075
vn -0.152233049 0.175686389 0.972604454
vn -0.112331234 0.781282485 0.613986433
vn -0.516892374 0.596525848 0.613986373
vn 0.43237406 -0.126956567 -0.892711997
vn 0.893856466 0.262459844 -0.36350435
vn 0.432374179 0.126956493 -0.892711937
vn 0.610063553 0.704050481 -0.363504261
vn 0.432374179 0.126956493 -0.892711937
vn 0.893856466 0.262459844 -0.36350435
vn 0.432374179 0.126956493 -0.892711937
vn 0.610063553 0.704050481 -0.363504261
vn 0.295098543 0.340561718 -0.892711937
vn 0.43237406 -0.126956567 -0.892711997
vn -0.15223363 0.175687 -0.972604215
vn 0.295098275 -0.340561748 -0.892711997
vn 0.43237406 -0.126956567 -0.892711997
vn 0.893856347 -0.262460083 -0.363504559
vn 0.893856466 0.262459844 -0.36350435
vn 0.43237406 -0.126956567 -0.892711997
vn 0.610063016 -0.704050779 -0.363504529
vn 0.893856347 -0.262460083 -0.363504559
vn 0.610063016 -0.704050779 -0.363504529
vn 0.43237406 -0.126956567 -0.892711997
vn 0.295098275 -0.340561748 -0.892711997
vn 0.893856823 0.262459606 0.363503754
vn 0.432374716 -0.126956731 0.892711699
vn 0.432374805 0.126956686 0.892711639
vn 0.432374805 0.126956686 0.892711639
vn 0.295098871 0.340562165 0.892711639
vn 0.893856823 0.262459606 0.363503754
vn 0.893856585 -0.262460351 0.363503724
vn 0.432374716 -0.126956731 0.892711699
vn 0.893856823 0.262459606 0.363503754
vn 0.432374716 -0.126956731 0.892711699
vn 0.893856585 -0.262460351 0.363503724
vn 0.295098692 -0.340562135 0.892711699
vn 0.295098543 0.340561718 -0.892711937
vn -0.0330835544 -0.230101034 -0.972604275
vn -0.152233616 -0.175686851 -0.972604275
vn -0.152233109 -0.17568633 0.972604454
vn 0.0641311556 0.446041584 0.892711699
vn 0.295098871 0.340562165 0.892711639
vn -0.0330834351 -0.230100304 0.972604334
vn 0.0641311556 0.446041584 0.892711699
vn -0.152233109 -0.17568633 0.972604454
vn 0.295098275 -0.340561748 -0.892711997
vn -0.15223363 0.175687 -0.972604215
vn -0.0330835283 0.23010087 -0.972604275
vn -0.15223363 0.175687 -0.972604215
vn -0.112331301 0.781282842 -0.613986015
vn -0.0330835283 0.23010087 -0.972604275
vn 0.295098692 -0.340562135 0.892711699
vn 0.0641309842 -0.446041495 0.892711699
vn -0.152233049 0.175686389 0.972604454
vn -0.152233049 0.175686389 0.972604454
vn -0.0330833718 0.2301002 0.972604454
vn -0.112331234 0.781282485 0.613986433
vn -0.0330833718 0.2301002 0.972604454
vn -0.152233049 0.175686389 0.972604454
vn 0.0641309842 -0.446041495 0.892711699
vn 0.893856466 0.262459844 -0.36350435
vn 0.893856347 -0.262460083 -0.363504559
vn 0.893856585 -0.262460351 0.363503724
vn 0.893856466 0.262459844 -0.36350435
vn 0.893856585 -0.262460351 0.363503724
vn 0.893856823 0.262459606 0.363503754
vn 0.893856823 0.262459606 0.363503754
vn 0.610063672 0.704050779 0.363503635
vn 0.893856466 0.262459844 -0.36350435
vn 0.610063672 0.704050779 0.363503635
vn 0.610063553 0.704050481 -0.363504261
vn 0.893856466 0.262459844 -0.36350435
vn 0.610063016 -0.704050779 -0.363504529
vn 0.893856585 -0.262460351 0.363503724
vn 0.893856347 -0.262460083 -0.363504559
vn 0.295098871 0.340562165 0.892711639
vn 0.610063672 0.704050779 0.363503635
vn 0.893856823 0.262459606 0.363503754
vn 0.610063434 -0.704050958 0.363503754
vn 0.295098692 -0.340562135 0.892711699
vn 0.893856585 -0.262460351 0.363503724
vn 0.893856585 -0.262460351 0.363503724
vn 0.610063016 -0.704050779 -0.363504529
vn 0.610063434 -0.704050958 0.363503754
vn 0.132579565 0.9221102 -0.363504499
vn 0.295098543 0.340561718 -0.892711937
vn 0.610063553 0.704050481 -0.363504261
vn 0.0641310886 0.446041018 -0.892711937
vn -0.0330835544 -0.230101034 -0.972604275
vn 0.295098543 0.340561718 -0.892711937
vn 0.132579565 0.9221102 -0.363504499
vn 0.0641310886 0.446041018 -0.892711937
vn 0.295098543 0.340561718 -0.892711937
vn 0.610063672 0.704050779 0.363503635
vn 0.295098871 0.340562165 0.892711639
vn 0.0641311556 0.446041584 0.892711699
vn 0.610063016 -0.704050779 -0.363504529
vn 0.295098275 -0.340561748 -0.892711997
vn 0.0641309172 -0.446040988 -0.892711937
vn -0.0330835283 0.23010087 -0.972604275
vn 0.0641309172 -0.446040988 -0.892711937
vn 0.295098275 -0.340561748 -0.892711997
vn 0.295098692 -0.340562135 0.892711699
vn 0.610063434 -0.704050958 0.363503754
vn 0.132579371 -0.922110438 0.363503873
vn 0.132579371 -0.922110438 0.363503873
vn 0.0641309842 -0.446041495 0.892711699
vn 0.295098692 -0.340562135 0.892711699
vn 0.610063672 0.704050779 0.363503635
vn 0.132579565 0.9221102 -0.363504499
vn 0.610063553 0.704050481 -0.363504261
vn 0.132579327 0.922110498 0.363503605
vn 0.132579565 0.9221102 -0.363504499
vn 0.610063672 0.704050779 0.363503635
vn 0.0641311556 0.446041584 0.892711699
vn 0.132579327 0.922110498 0.363503605
vn 0.610063672 0.704050779 0.363503635
vn 0.132579148 -0.9221102 -0.363504678
vn 0.610063434 -0.704050958 0.363503754
vn 0.610063016 -0.704050779 -0.363504529
vn 0.132579148 -0.9221102 -0.363504678
vn 0.610063016 -0.704050779 -0.363504529
vn 0.0641309172 -0.446040988 -0.892711937
vn 0.132579148 -0.9221102 -0.363504678
vn 0.132579371 -0.922110438 0.363503873
vn 0.610063434 -0.704050958 0.363503754
vn -0.14231503 -0.989821374 3.34738495e-08
vn -0.112331674 -0.781282902 -0.613985837
vn 0.142314643 -0.989821494 4.77290101e-08
vn -0.14231503 -0.989821374 3.34738495e-08
vn 0.142314643 -0.989821494 4.77290101e-08
vn -0.112331666 -0.781282604 0.613986313
vn -0.112331301 0.781282842 -0.613986015
vn -0.142314568 0.989821494 -3.90528321e-08
vn 0.415415168 0.909631908 1.64579802e-07
vn -0.112331234 0.781282485 0.613986433
vn 0.415415168 0.909631908 1.64579802e-07
vn -0.142314568 0.989821494 -3.90528321e-08
vn -0.112331674 -0.781282902 -0.613985837
vn -0.0330835544 -0.230101034 -0.972604275
vn 0.0965704024 -0.211459652 -0.972604275
vn 0.327894151 -0.717988014 -0.613985717
vn -0.112331674 -0.781282902 -0.613985837
vn 0.0965704024 -0.211459652 -0.972604275
vn 0.142314643 -0.989821494 4.77290101e-08
vn -0.112331674 -0.781282902 -0.613985837
vn 0.327894151 -0.717988014 -0.613985717
vn -0.0330834351 -0.230100304 0.972604334
vn -0.112331666 -0.781282604 0.613986313
vn 0.0974891335 -0.21156919 0.972488701
vn 0.0974891335 -0.21156919 0.972488701
vn -0.112331666 -0.781282604 0.613986313
vn 0.328369915 -0.717433512 0.614379644
vn -0.112331666 -0.781282604 0.613986313
vn 0.142314643 -0.989821494 4.77290101e-08
vn 0.328369915 -0.717433512 0.614379644
vn -0.0330835283 0.23010087 -0.972604275
vn -0.112331301 0.781282842 -0.613986015
vn 0.0965703875 0.211459607 -0.972604215
vn 0.0965703875 0.211459607 -0.972604215
vn -0.112331301 0.781282842 -0.613986015
vn 0.327894241 0.717987895 -0.613985896
vn -0.112331301 0.781282842 -0.613986015
vn 0.415415168 0.909631908 1.64579802e-07
vn 0.327894241 0.717987895 -0.613985896
vn -0.112331234 0.781282485 0.613986433
vn -0.0330833718 0.2301002 0.972604454
vn 0.0965701118 0.211458966 0.972604334
vn -0.112331234 0.781282485 0.613986433
vn 0.0965701118 0.211458966 0.972604334
vn 0.327893972 0.717987597 0.613986433
vn -0.112331234 0.781282485 0.613986433
vn 0.327893972 0.717987597 0.613986433
vn 0.415415168 0.909631908 1.64579802e-07
vn -0.0330835544 -0.230101034 -0.972604275
vn 0.0641310886 0.446041018 -0.892711937
vn 0.0965704024 -0.211459652 -0.972604275
vn -0.187197745 0.40990603 0.892711699
vn -0.0330834351 -0.230100304 0.972604334
vn 0.0974891335 -0.21156919 0.972488701
vn -0.187197745 0.40990603 0.892711699
vn 0.0641311556 0.446041584 0.892711699
vn -0.0330834351 -0.230100304 0.972604334
vn -0.0330835283 0.23010087 -0.972604275
vn 0.0965703875 0.211459607 -0.972604215
vn 0.0641309172 -0.446040988 -0.892711937
vn -0.0330833718 0.2301002 0.972604454
vn 0.0641309842 -0.446041495 0.892711699
vn -0.187197879 -0.40990603 0.892711639
vn 0.0965701118 0.211458966 0.972604334
vn -0.0330833718 0.2301002 0.972604454
vn -0.187197879 -0.40990603 0.892711639
vn 0.132579565 0.9221102 -0.363504499
vn -0.187197462 0.409905463 -0.892711937
vn 0.0641310886 0.446041018 -0.892711937
vn -0.187197462 0.409905463 -0.892711937
vn 0.0965704024 -0.211459652 -0.972604275
vn 0.0641310886 0.446041018 -0.892711937
vn 0.0641309172 -0.446040988 -0.892711937
vn -0.187197611 -0.409905285 -0.892711997
vn 0.132579148 -0.9221102 -0.363504678
vn -0.187197611 -0.409905285 -0.892711997
vn 0.0641309172 -0.446040988 -0.892711937
vn 0.0965703875 0.211459607 -0.972604215
vn -0.38699767 -0.847406447 0.363503903
vn 0.0641309842 -0.446041495 0.892711699
vn 0.132579371 -0.922110438 0.363503873
vn 0.0641309842 -0.446041495 0.892711699
vn -0.38699767 -0.847406447 0.363503903
vn -0.187197879 -0.40990603 0.892711639
vn -0.38699761 0.847406209 -0.36350435
vn 0.132579565 0.9221102 -0.363504499
vn 0.132579327 0.922110498 0.363503605
vn -0.38699761 0.847406209 -0.36350435
vn -0.187197462 0.409905463 -0.892711937
vn 0.132579565 0.9221102 -0.363504499
vn -0.386997521 0.847406507 0.363503814
vn -0.38699761 0.847406209 -0.36350435
vn 0.132579327 0.922110498 0.363503605
vn -0.187197745 0.40990603 0.892711699
vn -0.386997521 0.847406507 0.363503814
vn 0.132579327 0.922110498 0.363503605
vn -0.187197745 0.40990603 0.892711699
vn 0.132579327 0.922110498 0.363503605
vn 0.0641311556 0.446041584 0.892711699
vn -0.3869977 -0.847406209 -0.363504469
vn 0.132579371 -0.922110438 0.363503873
vn 0.132579148 -0.9221102 -0.363504678
vn -0.187197611 -0.409905285 -0.892711997
vn -0.3869977 -0.847406209 -0.363504469
vn 0.132579148 -0.9221102 -0.363504678
vn -0.3869977 -0.847406209 -0.363504469
vn -0.38699767 -0.847406447 0.363503903
vn 0.132579371 -0.922110438 0.363503873
vn -0.38699761 0.847406209 -0.36350435
vn -0.386997521 0.847406507 0.363503814
vn -0.783705711 0.503656864 0.363503814
vn -0.379092693 0.243628055 0.892711699
vn -0.386997521 0.847406507 0.363503814
vn -0.187197745 0.40990603 0.892711699
vn -0.379092693 0.243628055 0.892711699
vn -0.783705711 0.503656864 0.363503814
vn -0.386997521 0.847406507 0.363503814
vn -0.187197462 0.409905463 -0.892711937
vn -0.38699761 0.847406209 -0.36350435
vn -0.379092157 0.243627712 -0.892711937
vn -0.38699761 0.847406209 -0.36350435
vn -0.783705711 0.503656864 0.363503814
vn -0.783705473 0.503656924 -0.363504291
vn -0.783705473 0.503656924 -0.363504291
vn -0.379092157 0.243627712 -0.892711937
vn -0.38699761 0.847406209 -0.36350435
vn -0.3869977 -0.847406209 -0.363504469
vn -0.783705354 -0.503656924 -0.36350444
vn -0.38699767 -0.847406447 0.363503903
vn -0.187197879 -0.40990603 0.892711639
vn -0.38699767 -0.847406447 0.363503903
vn -0.379092604 -0.243628055 0.892711699
vn -0.783705652 -0.503657103 0.363503784
vn -0.38699767 -0.847406447 0.363503903
vn -0.783705354 -0.503656924 -0.36350444
vn -0.379092604 -0.243628055 0.892711699
vn -0.38699767 -0.847406447 0.363503903
vn -0.783705652 -0.503657103 0.363503784
vn -0.3869977 -0.847406209 -0.363504469
vn -0.187197611 -0.409905285 -0.892711997
vn -0.379092157 -0.243627787 -0.892711937
vn -0.3869977 -0.847406209 -0.363504469
vn -0.379092157 -0.243627787 -0.892711937
vn -0.783705354 -0.503656924 -0.36350444
vn 0.0974891335 -0.21156919 0.972488701
vn -0.379092693 0.243628055 0.892711699
vn -0.187197745 0.40990603 0.892711699
vn 0.0965701118 0.211458966 0.972604334
vn -0.187197879 -0.40990603 0.892711639
vn 0.195562959 0.1256807 0.972604454
vn 0.195562959 0.1256807 0.972604454
vn -0.187197879 -0.40990603 0.892711639
vn -0.379092604 -0.243628055 0.892711699
vn 0.0965704024 -0.211459652 -0.972604275
vn -0.187197462 0.409905463 -0.892711937
vn 0.117221221 -0.135280445 -0.983848751
vn -0.187197462 0.409905463 -0.892711937
vn -0.379092157 0.243627712 -0.892711937
vn 0.117221221 -0.135280445 -0.983848751
vn 0.195563793 0.125681162 -0.972604275
vn -0.187197611 -0.409905285 -0.892711997
vn 0.0965703875 0.211459607 -0.972604215
vn 0.195563793 0.125681162 -0.972604275
vn -0.379092157 -0.243627787 -0.892711937
vn -0.187197611 -0.409905285 -0.892711997
vn -0.931592762 -3.64632427e-07 0.363503665
vn -0.783705652 -0.503657103 0.363503784
vn -0.783705354 -0.503656924 -0.36350444
vn -0.931592762 -3.64632427e-07 0.363503665
vn -0.450628251 -8.39951895e-08 0.892711699
vn -0.783705652 -0.503657103 0.363503784
vn -0.450628251 -8.39951895e-08 0.892711699
vn -0.379092604 -0.243628055 0.892711699
vn -0.783705652 -0.503657103 0.363503784
vn -0.931592464 -1.67533798e-07 -0.363504499
vn -0.783705473 0.503656924 -0.363504291
vn -0.783705711 0.503656864 0.363503814
vn -0.931592762 -3.64632427e-07 0.363503665
vn -0.931592464 -1.67533798e-07 -0.363504499
vn -0.783705711 0.503656864 0.363503814
vn -0.931592762 -3.64632427e-07 0.363503665
vn -0.783705711 0.503656864 0.363503814
vn -0.379092693 0.243628055 0.892711699
vn -0.450627744 -2.71749165e-08 -0.892711937
vn -0.783705473 0.503656924 -0.363504291
vn -0.931592464 -1.67533798e-07 -0.363504499
vn -0.450627744 -2.71749165e-08 -0.892711937
vn -0.379092157 0.243627712 -0.892711937
vn -0.783705473 0.503656924 -0.363504291
vn -0.931592464 -1.67533798e-07 -0.363504499
vn -0.931592762 -3.64632427e-07 0.363503665
vn -0.783705354 -0.503656924 -0.36350444
vn -0.379092157 -0.243627787 -0.892711937
vn -0.931592464 -1.67533798e-07 -0.363504499
vn -0.783705354 -0.503656924 -0.36350444
vn 0.508864045 -0.588207006 0.628545821
vn 0.0974891335 -0.21156919 0.972488701
vn 0.328369915 -0.717433512 0.614379644
vn 0.195646167 -0.12692146 0.972426593
vn -0.379092693 0.243628055 0.892711699
vn 0.0974891335 -0.21156919 0.972488701
vn 0.0974891335 -0.21156919 0.972488701
vn 0.508864045 -0.588207006 0.628545821
vn 0.195646167 -0.12692146 0.972426593
vn 0.327894151 -0.717988014 -0.613985717
vn 0.0965704024 -0.211459652 -0.972604275
vn 0.117221221 -0.135280445 -0.983848751
vn 0.0965701118 0.211458966 0.972604334
vn 0.508150756 0.586437166 0.63077265
vn 0.327893972 0.717987597 0.613986433
vn 0.0965701118 0.211458966 0.972604334
vn 0.195562959 0.1256807 0.972604454
vn 0.508150756 0.586437166 0.63077265
vn 0.66401583 0.426736832 -0.613985777
vn 0.0965703875 0.211459607 -0.972604215
vn 0.327894241 0.717987895 -0.613985896
vn 0.0965703875 0.211459607 -0.972604215
vn 0.66401583 0.426736832 -0.613985777
vn 0.195563793 0.125681162 -0.972604275
vn -0.450628251 -8.39951895e-08 0.892711699
vn -0.931592762 -3.64632427e-07 0.363503665
vn -0.379092693 0.243628055 0.892711699
vn -0.379092157 -0.243627787 -0.892711937
vn -0.450627744 -2.71749165e-08 -0.892711937
vn -0.931592464 -1.67533798e-07 -0.363504499
vn 0.415415108 -0.909631968 8.64741168e-08
vn 0.508864045 -0.588207006 0.628545821
vn 0.328369915 -0.717433512 0.614379644
vn 0.415415108 -0.909631968 8.64741168e-08
vn 0.328369915 -0.717433512 0.614379644
vn 0.142314643 -0.989821494 4.77290101e-08
vn 0.327894151 -0.717988014 -0.613985717
vn 0.415415108 -0.909631968 8.64741168e-08
vn 0.142314643 -0.989821494 4.77290101e-08
vn 0.508151054 -0.586437583 -0.630772173
vn 0.415415108 -0.909631968 8.64741168e-08
vn 0.327894151 -0.717988014 -0.613985717
vn 0.508151054 -0.586437583 -0.630772173
vn 0.327894151 -0.717988014 -0.613985717
vn 0.117221221 -0.135280445 -0.983848751
vn 0.508150756 0.586437166 0.63077265
vn 0.415415168 0.909631908 1.64579802e-07
vn 0.327893972 0.717987597 0.613986433
vn 0.415415168 0.909631908 1.64579802e-07
vn 0.66401583 0.426736832 -0.613985777
vn 0.327894241 0.717987895 -0.613985896
vn 0.508864045 -0.588207006 0.628545821
vn 0.415415108 -0.909631968 8.64741168e-08
vn 0.654860735 -0.755749643 6.02892882e-08
vn 0.415415108 -0.909631968 8.64741168e-08
vn 0.508151054 -0.586437583 -0.630772173
vn 0.654860735 -0.755749643 6.02892882e-08
vn 0.415415168 0.909631908 1.64579802e-07
vn 0.664015412 0.426736832 0.613986373
vn 0.8412534 0.54064101 2.51053844e-08
vn 0.664015412 0.426736832 0.613986373
vn 0.415415168 0.909631908 1.64579802e-07
vn 0.508150756 0.586437166 0.63077265
vn 0.8412534 0.54064101 2.51053844e-08
vn 0.66401583 0.426736832 -0.613985777
vn 0.415415168 0.909631908 1.64579802e-07
vn -0.379092604 -0.243628055 0.892711699
vn -0.450628251 -8.39951895e-08 0.892711699
vn 0.195562959 0.1256807 0.972604454
vn -0.379092693 0.243628055 0.892711699
vn 0.195646167 -0.12692146 0.972426593
vn -0.450628251 -8.39951895e-08 0.892711699
vn 0.232467115 5.38575016e-08 -0.972604275
vn -0.450627744 -2.71749165e-08 -0.892711937
vn -0.379092157 -0.243627787 -0.892711937
vn 0.232467115 5.38575016e-08 -0.972604275
vn -0.379092157 -0.243627787 -0.892711937
vn 0.195563793 0.125681162 -0.972604275
vn 0.232467115 5.38575016e-08 -0.972604275
vn -0.379092157 0.243627712 -0.892711937
vn -0.450627744 -2.71749165e-08 -0.892711937
vn -0.379092157 0.243627712 -0.892711937
vn 0.232467115 5.38575016e-08 -0.972604275
vn 0.195563793 -0.125681266 -0.972604275
vn 0.117221221 -0.135280445 -0.983848751
vn -0.379092157 0.243627712 -0.892711937
vn 0.195563793 -0.125681266 -0.972604275
vn -0.450628251 -8.39951895e-08 0.892711699
vn 0.232466191 9.23271202e-08 0.972604454
vn 0.195562959 0.1256807 0.972604454
vn 0.195646167 -0.12692146 0.972426593
vn 0.232466191 9.23271202e-08 0.972604454
vn -0.450628251 -8.39951895e-08 0.892711699
vn 0.789316654 8.14730328e-08 0.613986373
vn 0.195562959 0.1256807 0.972604454
vn 0.232466191 9.23271202e-08 0.972604454
vn 0.664015412 0.426736832 0.613986373
vn 0.195562959 0.1256807 0.972604454
vn 0.789316654 8.14730328e-08 0.613986373
vn 0.508150756 0.586437166 0.63077265
vn 0.195562959 0.1256807 0.972604454
vn 0.664015412 0.426736832 0.613986373
vn 0.195646167 -0.12692146 0.972426593
vn 0.789316654 8.14730328e-08 0.613986373
vn 0.232466191 9.23271202e-08 0.972604454
vn 0.662932575 -0.427426845 0.614676118
vn 0.789316654 8.14730328e-08 0.613986373
vn 0.195646167 -0.12692146 0.972426593
vn 0.508864045 -0.588207006 0.628545821
vn 0.662932575 -0.427426845 0.614676118
vn 0.195646167 -0.12692146 0.972426593
vn 0.664015591 -0.426736981 -0.613985956
vn 0.195563793 -0.125681266 -0.972604275
vn 0.232467115 5.38575016e-08 -0.972604275
vn 0.195563793 -0.125681266 -0.972604275
vn 0.664015591 -0.426736981 -0.613985956
vn 0.508151054 -0.586437583 -0.630772173
vn 0.195563793 -0.125681266 -0.972604275
vn 0.508151054 -0.586437583 -0.630772173
vn 0.117221221 -0.135280445 -0.983848751
vn 0.744535863 0.218615606 -0.630772173
vn 0.232467115 5.38575016e-08 -0.972604275
vn 0.195563793 0.125681162 -0.972604275
vn 0.66401583 0.426736832 -0.613985777
vn 0.744535863 0.218615606 -0.630772173
vn 0.195563793 0.125681162 -0.972604275
vn 0.789316952 1.57514464e-07 -0.613985956
vn 0.664015591 -0.426736981 -0.613985956
vn 0.232467115 5.38575016e-08 -0.972604275
vn 0.744535863 0.218615606 -0.630772173
vn 0.789316952 1.57514464e-07 -0.613985956
vn 0.232467115 5.38575016e-08 -0.972604275
vn 0.664015412 0.426736832 0.613986373
vn 0.959492862 0.281732947 -8.03857105e-08
vn 0.8412534 0.54064101 2.51053844e-08
vn 0.959492862 0.281732947 -8.03857105e-08
vn 0.664015412 0.426736832 0.613986373
vn 0.789316654 8.14730328e-08 0.613986373
vn 0.662932575 -0.427426845 0.614676118
vn 0.508864045 -0.588207006 0.628545821
vn 0.841253579 -0.540640771 1.84106227e-07
vn 0.959492981 -0.28173247 1.33138826e-07
vn 0.662932575 -0.427426845 0.614676118
vn 0.841253579 -0.540640771 1.84106227e-07
vn 0.662932575 -0.427426845 0.614676118
vn 0.959492981 -0.28173247 1.33138826e-07
vn 0.789316654 8.14730328e-08 0.613986373
vn 0.8412534 0.54064101 2.51053844e-08
vn 0.744535863 0.218615606 -0.630772173
vn 0.66401583 0.426736832 -0.613985777
vn 0.841253579 -0.540640771 1.84106227e-07
vn 0.508151054 -0.586437583 -0.630772173
vn 0.664015591 -0.426736981 -0.613985956
vn 0.959492981 -0.28173247 1.33138826e-07
vn 0.841253579 -0.540640771 1.84106227e-07
vn 0.664015591 -0.426736981 -0.613985956
vn 0.789316952 1.57514464e-07 -0.613985956
vn 0.959492981 -0.28173247 1.33138826e-07
vn 0.664015591 -0.426736981 -0.613985956
vn 0.959492862 0.281732947 -8.03857105e-08
vn 0.744535863 0.218615606 -0.630772173
vn 0.8412534 0.54064101 2.51053844e-08
vn 0.841253579 -0.540640771 1.84106227e-07
vn 0.508864045 -0.588207006 0.628545821
vn 0.654860735 -0.755749643 6.02892882e-08
vn 0.654860735 -0.755749643 6.02892882e-08
vn 0.508151054 -0.586437583 -0.630772173
vn 0.841253579 -0.540640771 1.84106227e-07
vn 0.959492981 -0.28173247 1.33138826e-07
vn 1 3.15212105e-07 -1.67369265e-08
vn 0.789316654 8.14730328e-08 0.613986373
vn 1 3.15212105e-07 -1.67369265e-08
vn 0.959492862 0.281732947 -8.03857105e-08
vn 0.789316654 8.14730328e-08 0.613986373
vn 0.744535863 0.218615606 -0.630772173
vn 1 3.15212105e-07 -1.67369265e-08
vn 0.789316952 1.57514464e-07 -0.613985956
vn 1 3.15212105e-07 -1.67369265e-08
vn 0.959492981 -0.28173247 1.33138826e-07
vn 0.789316952 1.57514464e-07 -0.613985956
vn 1 3.15212105e-07 -1.67369265e-08
vn 0.744535863 0.218615606 -0.630772173
vn 0.959492862 0.281732947 -8.03857105e-08
usemtl dots
f 1/1/1 2/2/2 5/3/3
f 1/1/4 6/4/5 2/2/6
f 5/3/7 3/5/8 1/1/9
f 1/1/10 3/5/11 11/6/12
f 6/4/13 1/1/14 4/7/15
f 4/7/16 1/1/17 11/6/18
f 5/3/19 2/2/20 15/8/21
f 2/2/22 6/4/23 16/9/24
f 15/8/25 2/2/26 12/10/27
f 12/10/28 2/2/29 16/9/30
f 3/5/31 5/3/32 8/11/33
f 7/12/34 3/5/35 8/11/36
f 7/12/37 21/13/38 3/5/39
f 13/14/40 11/6/41 3/5/42
f 21/13/43 13/14/44 3/5/45
f 10/15/46 6/4/47 4/7/48
f 9/16/49 10/15/50 4/7/51
f 4/7/52 14/17/53 9/16/54
f 4/7/55 11/6/56 14/17/57
f 8/11/58 5/3/59 15/8/60
f 16/9/61 6/4/62 10/15/63
f 17/18/64 7/12/65 8/11/66
f 17/18/67 29/19/68 7/12/69
f 29/19/70 21/13/71 7/12/72
f 8/11/73 15/8/74 23/20/75
f 8/11/76 18/21/77 17/18/78
f 18/21/79 8/11/80 23/20/81
f 10/15/82 9/16/83 20/22/84
f 9/16/85 14/17/86 22/23/87
f 9/16/88 19/24/89 20/22/90
f 19/24/91 9/16/92 30/25/93
f 30/25/94 9/16/95 22/23/96
f 24/26/97 16/9/98 10/15/99
f 20/22/100 32/27/101 10/15/102
f 24/26/103 10/15/104 32/27/105
f 37/28/106 11/6/107 13/14/108
f 14/17/109 11/6/110 37/28/111
f 41/29/112 15/8/113 12/10/114
f 16/9/115 42/30/116 12/10/117
f 38/31/118 41/29/119 12/10/120
f 42/30/121 38/31/122 12/10/123
f 43/32/124 13/14/125 21/13/126
f 13/14/127 39/33/128 37/28/129
f 13/14/130 43/32/131 39/33/132
f 44/34/133 22/23/134 14/17/135
f 40/35/136 14/17/137 37/28/138
f 44/34/139 14/17/140 40/35/141
f 41/29/142 23/20/143 15/8/144
f 24/26/145 42/30/146 16/9/147
f 18/21/148 25/36/149 17/18/150
f 33/37/151 17/18/152 25/36/153
f 17/18/154 33/37/155 29/19/156
f 18/21/157 23/20/158 31/38/159
f 18/21/160 26/39/161 25/36/162
f 18/21/163 35/40/164 26/39/165
f 35/40/166 18/21/167 31/38/168
f 27/41/169 20/22/170 19/24/171
f 19/24/172 30/25/173 27/41/174
f 28/42/175 20/22/176 27/41/177
f 20/22/178 28/42/179 32/27/180
f 29/19/181 43/32/182 21/13/183
f 22/23/184 99/43/185 30/25/186
f 44/34/187 99/43/188 22/23/189
f 31/38/190 23/20/191 45/44/192
f 23/20/193 41/29/194 45/44/195
f 32/27/196 49/45/197 24/26/198
f 24/26/199 46/46/200 42/30/201
f 46/46/202 24/26/203 49/45/204
f 25/36/205 26/39/206 28/42/207
f 25/36/208 28/42/209 27/41/210
f 27/41/211 34/47/212 25/36/213
f 34/47/214 33/37/215 25/36/216
f 35/40/217 28/42/218 26/39/219
f 30/25/220 34/47/221 27/41/222
f 36/48/223 32/27/224 28/42/225
f 28/42/226 35/40/227 36/48/228
f 50/49/229 29/19/230 33/37/231
f 47/50/232 43/32/233 29/19/234
f 50/49/235 47/50/236 29/19/237
f 34/47/238 30/25/239 99/43/240
f 35/40/241 31/38/242 48/51/243
f 45/44/244 48/51/245 31/38/246
f 32/27/247 36/48/248 53/52/249
f 53/52/250 49/45/251 32/27/252
f 34/47/253 50/49/254 33/37/255
f 51/53/256 50/49/257 34/47/258
f 99/43/259 51/53/260 34/47/261
f 52/54/262 36/48/263 35/40/264
f 52/54/265 35/40/266 48/51/267
f 52/54/268 53/52/269 36/48/270
f 37/28/271 39/33/272 103/55/273
f 37/28/274 103/55/275 40/35/276
f 41/29/277 38/31/278 77/56/279
f 42/30/280 77/56/281 38/31/282
f 39/33/283 43/32/284 67/57/285
f 73/58/286 39/33/287 67/57/288
f 103/55/289 39/33/290 73/58/291
f 44/34/292 40/35/293 66/59/294
f 66/59/295 40/35/296 72/60/297
f 40/35/298 103/55/299 72/60/300
f 45/44/301 41/29/302 69/61/303
f 69/61/304 41/29/305 75/62/306
f 41/29/307 77/56/308 75/62/309
f 42/30/310 46/46/311 68/63/312
f 42/30/313 68/63/314 74/64/315
f 42/30/316 74/64/317 77/56/318
f 43/32/319 47/50/320 67/57/321
f 58/65/322 44/34/323 66/59/324
f 58/65/325 99/43/326 44/34/327
f 45/44/328 69/61/329 48/51/330
f 46/46/331 49/45/332 59/66/333
f 68/63/334 46/46/335 59/66/336
f 50/49/337 60/67/338 47/50/339
f 60/67/340 67/57/341 47/50/342
f 48/51/343 61/68/344 52/54/345
f 61/68/346 48/51/347 69/61/348
f 56/69/349 49/45/350 53/52/351
f 49/45/352 56/69/353 59/66/354
f 55/70/355 50/49/356 51/53/357
f 55/70/358 60/67/359 50/49/360
f 54/71/361 55/70/362 51/53/363
f 58/65/364 54/71/365 51/53/366
f 58/65/367 51/53/368 99/43/369
f 57/72/370 53/52/371 52/54/372
f 61/68/373 57/72/374 52/54/375
f 57/72/376 56/69/377 53/52/378
f 55/70/379 54/71/380 63/73/381
f 79/74/382 54/71/383 58/65/384
f 79/74/385 63/73/386 54/71/387
f 60/67/388 55/70/389 81/75/390
f 55/70/391 63/73/392 64/76/393
f 64/76/394 81/75/395 55/70/396
f 57/72/397 65/77/398 56/69/399
f 59/66/400 56/69/401 78/78/402
f 62/79/403 56/69/404 65/77/405
f 78/78/406 56/69/407 62/79/408
f 57/72/409 61/68/410 80/80/411
f 57/72/412 80/80/413 65/77/414
f 66/59/415 79/74/416 58/65/417
f 68/63/418 59/66/419 84/81/420
f 84/81/421 59/66/422 78/78/423
f 67/57/424 60/67/425 100/82/426
f 60/67/427 81/75/428 100/82/429
f 87/83/430 61/68/431 69/61/432
f 87/83/433 80/80/434 61/68/435
f 70/84/436 62/79/437 65/77/438
f 70/84/439 82/85/440 62/79/441
f 82/85/442 78/78/443 62/79/444
f 71/86/445 64/76/446 63/73/447
f 70/84/448 71/86/449 63/73/450
f 70/84/451 63/73/452 79/74/453
f 83/87/454 64/76/455 71/86/456
f 83/87/457 81/75/458 64/76/459
f 71/86/460 70/84/461 65/77/462
f 80/80/463 71/86/464 65/77/465
f 101/88/466 66/59/467 72/60/468
f 85/89/469 79/74/470 66/59/471
f 66/59/472 101/88/473 85/89/474
f 73/58/475 67/57/476 100/82/477
f 68/63/478 106/90/479 74/64/480
f 68/63/481 84/81/482 106/90/483
f 92/91/484 69/61/485 75/62/486
f 69/61/487 92/91/488 87/83/489
f 82/85/490 70/84/491 79/74/492
f 80/80/493 83/87/494 71/86/495
f 76/92/496 101/88/497 72/60/498
f 76/92/499 72/60/500 103/55/501
f 73/58/502 76/92/503 103/55/504
f 104/93/505 76/92/506 73/58/507
f 104/93/508 73/58/509 100/82/510
f 106/90/511 77/56/512 74/64/513
f 77/56/514 92/91/515 75/62/516
f 101/88/517 76/92/518 105/94/519
f 76/92/520 104/93/521 105/94/522
f 77/56/523 90/95/524 94/96/525
f 90/95/526 77/56/527 106/90/528
f 94/96/529 92/91/530 77/56/531
f 78/78/532 82/85/533 84/81/534
f 79/74/535 85/89/536 82/85/537
f 89/97/538 83/87/539 80/80/540
f 89/97/541 80/80/542 87/83/543
f 89/97/544 81/75/545 83/87/546
f 81/75/547 89/97/548 86/98/549
f 100/82/550 81/75/551 86/98/552
f 82/85/553 88/99/554 84/81/555
f 85/89/556 88/99/557 82/85/558
f 96/100/559 84/81/560 88/99/561
f 90/95/562 84/81/563 96/100/564
f 106/90/565 84/81/566 90/95/567
f 85/89/568 96/100/569 88/99/570
f 91/101/571 96/100/572 85/89/573
f 101/88/574 91/101/575 85/89/576
f 93/102/577 86/98/578 89/97/579
f 86/98/580 93/102/581 104/93/582
f 86/98/583 104/93/584 100/82/585
f 102/103/586 89/97/587 87/83/588
f 92/91/589 102/103/590 87/83/591
f 97/104/592 93/102/593 89/97/594
f 102/103/595 97/104/596 89/97/597
f 90/95/598 108/105/599 94/96/600
f 108/105/601 90/95/602 96/100/603
f 91/101/604 101/88/605 95/106/606
f 107/107/607 91/101/608 95/106/609
f 91/101/610 107/107/611 96/100/612
f 94/96/613 102/103/614 92/91/615
f 95/106/616 104/93/617 93/102/618
f 107/107/619 95/106/620 93/102/621
f 97/104/622 107/107/623 93/102/624
f 108/105/625 102/103/626 94/96/627
f 95/106/628 101/88/629 105/94/630
f 105/94/631 104/93/632 95/106/633
f 107/107/634 98/108/635 96/100/636
f 98/108/637 108/105/638 96/100/639
f 102/103/640 98/108/641 97/104/642
f 98/108/643 107/107/644 97/104/645
f 98/108/646 102/103/647 108/105/648
